<?xml version="1.0" encoding="UTF-8" standalone="no"?>
<!DOCTYPE svg PUBLIC "-//W3C//DTD SVG 1.1//EN"
 "http://www.w3.org/Graphics/SVG/1.1/DTD/svg11.dtd">
<!-- Generated by graphviz version 2.43.0 (0)
 -->
<!-- Title: worker.c Pages: 1 -->
<svg width="767pt" height="137pt"
 viewBox="0.00 0.00 766.50 137.00" xmlns="http://www.w3.org/2000/svg" xmlns:xlink="http://www.w3.org/1999/xlink">
<g id="graph0" class="graph" transform="scale(1 1) rotate(0) translate(4 133)">
<title>worker.c</title>
<!-- Node1 -->
<g id="Node000001" class="node">
<title>Node1</title>
<g id="a_Node000001"><a xlink:title="Logic for a worker process participating in distributed document classification.">
<polygon fill="#999999" stroke="#666666" points="354,-129 297,-129 297,-110 354,-110 354,-129"/>
<text text-anchor="middle" x="325.5" y="-117" font-family="Helvetica,sans-Serif" font-size="10.00">worker.c</text>
</a>
</g>
</g>
<!-- Node2 -->
<g id="Node000002" class="node">
<title>Node2</title>
<g id="a_Node000002"><a xlink:title=" ">
<polygon fill="#e0e0e0" stroke="#999999" points="55,-19 0,-19 0,0 55,0 55,-19"/>
<text text-anchor="middle" x="27.5" y="-7" font-family="Helvetica,sans-Serif" font-size="10.00">GASPI.h</text>
</a>
</g>
</g>
<!-- Node1&#45;&gt;Node2 -->
<g id="edge1_Node000001_Node000002" class="edge">
<title>Node1&#45;&gt;Node2</title>
<g id="a_edge1_Node000001_Node000002"><a xlink:title=" ">
<path fill="none" stroke="#63b8ff" d="M296.77,-116.42C237.84,-111.7 105.7,-98.61 68.5,-74 52.12,-63.16 40.88,-43.29 34.37,-28.66"/>
<polygon fill="#63b8ff" stroke="#63b8ff" points="37.49,-27.05 30.45,-19.13 31.01,-29.71 37.49,-27.05"/>
</a>
</g>
</g>
<!-- Node3 -->
<g id="Node000003" class="node">
<title>Node3</title>
<g id="a_Node000003"><a xlink:title=" ">
<polygon fill="#e0e0e0" stroke="#999999" points="218,-19 165,-19 165,0 218,0 218,-19"/>
<text text-anchor="middle" x="191.5" y="-7" font-family="Helvetica,sans-Serif" font-size="10.00">limits.h</text>
</a>
</g>
</g>
<!-- Node1&#45;&gt;Node3 -->
<g id="edge2_Node000001_Node000003" class="edge">
<title>Node1&#45;&gt;Node3</title>
<g id="a_edge2_Node000001_Node000003"><a xlink:title=" ">
<path fill="none" stroke="#63b8ff" d="M296.77,-114.42C271.04,-109.29 233.99,-98.05 211.5,-74 200.04,-61.74 195.14,-42.96 193.06,-29"/>
<polygon fill="#63b8ff" stroke="#63b8ff" points="196.53,-28.59 191.91,-19.06 189.58,-29.39 196.53,-28.59"/>
</a>
</g>
</g>
<!-- Node4 -->
<g id="Node000004" class="node">
<title>Node4</title>
<g id="a_Node000004"><a xlink:title=" ">
<polygon fill="#e0e0e0" stroke="#999999" points="436.5,-19 386.5,-19 386.5,0 436.5,0 436.5,-19"/>
<text text-anchor="middle" x="411.5" y="-7" font-family="Helvetica,sans-Serif" font-size="10.00">stdio.h</text>
</a>
</g>
</g>
<!-- Node1&#45;&gt;Node4 -->
<g id="edge3_Node000001_Node000004" class="edge">
<title>Node1&#45;&gt;Node4</title>
<g id="a_edge3_Node000001_Node000004"><a xlink:title=" ">
<path fill="none" stroke="#63b8ff" d="M354.21,-117.69C384.78,-115.12 431.81,-105.83 454.5,-74 466.28,-57.47 448.79,-38.12 432.7,-25.16"/>
<polygon fill="#63b8ff" stroke="#63b8ff" points="434.67,-22.26 424.59,-19.01 430.45,-27.84 434.67,-22.26"/>
</a>
</g>
</g>
<!-- Node5 -->
<g id="Node000005" class="node">
<title>Node5</title>
<g id="a_Node000005"><a xlink:title=" ">
<polygon fill="#e0e0e0" stroke="#999999" points="140,-19 87,-19 87,0 140,0 140,-19"/>
<text text-anchor="middle" x="113.5" y="-7" font-family="Helvetica,sans-Serif" font-size="10.00">stdlib.h</text>
</a>
</g>
</g>
<!-- Node1&#45;&gt;Node5 -->
<g id="edge4_Node000001_Node000005" class="edge">
<title>Node1&#45;&gt;Node5</title>
<g id="a_edge4_Node000001_Node000005"><a xlink:title=" ">
<path fill="none" stroke="#63b8ff" d="M296.8,-117.8C237.42,-115.68 104.34,-107.25 76.5,-74 63.99,-59.06 79.58,-39.35 94.18,-25.87"/>
<polygon fill="#63b8ff" stroke="#63b8ff" points="96.74,-28.29 102.02,-19.1 92.16,-22.99 96.74,-28.29"/>
</a>
</g>
</g>
<!-- Node6 -->
<g id="Node000006" class="node">
<title>Node6</title>
<g id="a_Node000006"><a xlink:title=" ">
<polygon fill="#e0e0e0" stroke="#999999" points="273,-74 220,-74 220,-55 273,-55 273,-74"/>
<text text-anchor="middle" x="246.5" y="-62" font-family="Helvetica,sans-Serif" font-size="10.00">string.h</text>
</a>
</g>
</g>
<!-- Node1&#45;&gt;Node6 -->
<g id="edge5_Node000001_Node000006" class="edge">
<title>Node1&#45;&gt;Node6</title>
<g id="a_edge5_Node000001_Node000006"><a xlink:title=" ">
<path fill="none" stroke="#63b8ff" d="M312.81,-109.98C300.67,-101.84 282.14,-89.41 267.75,-79.76"/>
<polygon fill="#63b8ff" stroke="#63b8ff" points="269.68,-76.84 259.42,-74.17 265.78,-82.65 269.68,-76.84"/>
</a>
</g>
</g>
<!-- Node7 -->
<g id="Node000007" class="node">
<title>Node7</title>
<g id="a_Node000007"><a xlink:href="../../d9/d85/classifier_8h.html" target="_top" xlink:title="Tokenization and text classification logic.">
<polygon fill="white" stroke="#666666" points="359.5,-74 291.5,-74 291.5,-55 359.5,-55 359.5,-74"/>
<text text-anchor="middle" x="325.5" y="-62" font-family="Helvetica,sans-Serif" font-size="10.00">classifier.h</text>
</a>
</g>
</g>
<!-- Node1&#45;&gt;Node7 -->
<g id="edge6_Node000001_Node000007" class="edge">
<title>Node1&#45;&gt;Node7</title>
<g id="a_edge6_Node000001_Node000007"><a xlink:title=" ">
<path fill="none" stroke="#63b8ff" d="M325.5,-109.75C325.5,-102.8 325.5,-92.85 325.5,-84.13"/>
<polygon fill="#63b8ff" stroke="#63b8ff" points="329,-84.09 325.5,-74.09 322,-84.09 329,-84.09"/>
</a>
</g>
</g>
<!-- Node8 -->
<g id="Node000008" class="node">
<title>Node8</title>
<g id="a_Node000008"><a xlink:href="../../d1/d9d/file__utils_8h.html" target="_top" xlink:title="Utility functions for files operations.">
<polygon fill="white" stroke="#666666" points="445,-74 378,-74 378,-55 445,-55 445,-74"/>
<text text-anchor="middle" x="411.5" y="-62" font-family="Helvetica,sans-Serif" font-size="10.00">file_utils.h</text>
</a>
</g>
</g>
<!-- Node1&#45;&gt;Node8 -->
<g id="edge7_Node000001_Node000008" class="edge">
<title>Node1&#45;&gt;Node8</title>
<g id="a_edge7_Node000001_Node000008"><a xlink:title=" ">
<path fill="none" stroke="#63b8ff" d="M339.32,-109.98C352.65,-101.77 373.08,-89.18 388.81,-79.49"/>
<polygon fill="#63b8ff" stroke="#63b8ff" points="390.75,-82.4 397.43,-74.17 387.08,-76.44 390.75,-82.4"/>
</a>
</g>
</g>
<!-- Node9 -->
<g id="Node000009" class="node">
<title>Node9</title>
<g id="a_Node000009"><a xlink:href="../../df/df9/gaspi__utils_8h.html" target="_top" xlink:title="Utility macros and functions for GASPI error handling.">
<polygon fill="white" stroke="#666666" points="163.5,-74 85.5,-74 85.5,-55 163.5,-55 163.5,-74"/>
<text text-anchor="middle" x="124.5" y="-62" font-family="Helvetica,sans-Serif" font-size="10.00">gaspi_utils.h</text>
</a>
</g>
</g>
<!-- Node1&#45;&gt;Node9 -->
<g id="edge10_Node000001_Node000009" class="edge">
<title>Node1&#45;&gt;Node9</title>
<g id="a_edge10_Node000001_Node000009"><a xlink:title=" ">
<path fill="none" stroke="#63b8ff" d="M296.7,-110.91C262.72,-101.95 205.92,-86.97 166.91,-76.68"/>
<polygon fill="#63b8ff" stroke="#63b8ff" points="167.47,-73.21 156.91,-74.05 165.68,-79.98 167.47,-73.21"/>
</a>
</g>
</g>
<!-- Node10 -->
<g id="Node000010" class="node">
<title>Node10</title>
<g id="a_Node000010"><a xlink:href="../../d4/ddb/hash__table_8h.html" target="_top" xlink:title="Simple fixed&#45;size chained hash table for word lookup.">
<polygon fill="white" stroke="#666666" points="581,-74 502,-74 502,-55 581,-55 581,-74"/>
<text text-anchor="middle" x="541.5" y="-62" font-family="Helvetica,sans-Serif" font-size="10.00">hash_table.h</text>
</a>
</g>
</g>
<!-- Node1&#45;&gt;Node10 -->
<g id="edge15_Node000001_Node000010" class="edge">
<title>Node1&#45;&gt;Node10</title>
<g id="a_edge15_Node000001_Node000010"><a xlink:title=" ">
<path fill="none" stroke="#63b8ff" d="M354.18,-111.46C390.62,-102.52 453.91,-86.99 496.73,-76.48"/>
<polygon fill="#63b8ff" stroke="#63b8ff" points="497.74,-79.84 506.61,-74.06 496.07,-73.04 497.74,-79.84"/>
</a>
</g>
</g>
<!-- Node11 -->
<g id="Node000011" class="node">
<title>Node11</title>
<g id="a_Node000011"><a xlink:href="../../d2/d81/msg__consts_8h.html" target="_top" xlink:title="Constants for GASPI messaging and buffer sizes.">
<polygon fill="white" stroke="#666666" points="682,-74 599,-74 599,-55 682,-55 682,-74"/>
<text text-anchor="middle" x="640.5" y="-62" font-family="Helvetica,sans-Serif" font-size="10.00">msg_consts.h</text>
</a>
</g>
</g>
<!-- Node1&#45;&gt;Node11 -->
<g id="edge16_Node000001_Node000011" class="edge">
<title>Node1&#45;&gt;Node11</title>
<g id="a_edge16_Node000001_Node000011"><a xlink:title=" ">
<path fill="none" stroke="#63b8ff" d="M354.13,-113.71C401.02,-105.87 497.39,-89.72 588.79,-74.29"/>
<polygon fill="#63b8ff" stroke="#63b8ff" points="589.48,-77.72 598.76,-72.6 588.32,-70.82 589.48,-77.72"/>
</a>
</g>
</g>
<!-- Node12 -->
<g id="Node000012" class="node">
<title>Node12</title>
<g id="a_Node000012"><a xlink:href="../../da/da5/worker_8h.html" target="_top" xlink:title="Interface for worker process.">
<polygon fill="white" stroke="#666666" points="758.5,-74 700.5,-74 700.5,-55 758.5,-55 758.5,-74"/>
<text text-anchor="middle" x="729.5" y="-62" font-family="Helvetica,sans-Serif" font-size="10.00">worker.h</text>
</a>
</g>
</g>
<!-- Node1&#45;&gt;Node12 -->
<g id="edge17_Node000001_Node000012" class="edge">
<title>Node1&#45;&gt;Node12</title>
<g id="a_edge17_Node000001_Node000012"><a xlink:title=" ">
<path fill="none" stroke="#63b8ff" d="M354.11,-115.99C414.39,-110.51 559.01,-96.26 689.9,-74.12"/>
<polygon fill="#63b8ff" stroke="#63b8ff" points="690.83,-77.52 700.1,-72.38 689.65,-70.62 690.83,-77.52"/>
</a>
</g>
</g>
<!-- Node8&#45;&gt;Node3 -->
<g id="edge8_Node000008_Node000003" class="edge">
<title>Node8&#45;&gt;Node3</title>
<g id="a_edge8_Node000008_Node000003"><a xlink:title=" ">
<path fill="none" stroke="#63b8ff" d="M377.61,-55.33C337.08,-45.57 269.5,-29.29 227.9,-19.27"/>
<polygon fill="#63b8ff" stroke="#63b8ff" points="228.71,-15.86 218.16,-16.92 227.07,-22.67 228.71,-15.86"/>
</a>
</g>
</g>
<!-- Node8&#45;&gt;Node4 -->
<g id="edge9_Node000008_Node000004" class="edge">
<title>Node8&#45;&gt;Node4</title>
<g id="a_edge9_Node000008_Node000004"><a xlink:title=" ">
<path fill="none" stroke="#63b8ff" d="M411.5,-54.75C411.5,-47.8 411.5,-37.85 411.5,-29.13"/>
<polygon fill="#63b8ff" stroke="#63b8ff" points="415,-29.09 411.5,-19.09 408,-29.09 415,-29.09"/>
</a>
</g>
</g>
<!-- Node9&#45;&gt;Node2 -->
<g id="edge11_Node000009_Node000002" class="edge">
<title>Node9&#45;&gt;Node2</title>
<g id="a_edge11_Node000009_Node000002"><a xlink:title=" ">
<path fill="none" stroke="#63b8ff" d="M108.92,-54.98C93.73,-46.69 70.4,-33.94 52.6,-24.22"/>
<polygon fill="#63b8ff" stroke="#63b8ff" points="53.82,-20.89 43.37,-19.17 50.47,-27.04 53.82,-20.89"/>
</a>
</g>
</g>
<!-- Node9&#45;&gt;Node3 -->
<g id="edge12_Node000009_Node000003" class="edge">
<title>Node9&#45;&gt;Node3</title>
<g id="a_edge12_Node000009_Node000003"><a xlink:title=" ">
<path fill="none" stroke="#63b8ff" d="M135.26,-54.98C145.27,-47.07 160.39,-35.11 172.43,-25.58"/>
<polygon fill="#63b8ff" stroke="#63b8ff" points="174.87,-28.12 180.54,-19.17 170.53,-22.63 174.87,-28.12"/>
</a>
</g>
</g>
<!-- Node9&#45;&gt;Node4 -->
<g id="edge13_Node000009_Node000004" class="edge">
<title>Node9&#45;&gt;Node4</title>
<g id="a_edge13_Node000009_Node000004"><a xlink:title=" ">
<path fill="none" stroke="#63b8ff" d="M163.5,-56.3C219.54,-45.95 322.01,-27.03 376.02,-17.05"/>
<polygon fill="#63b8ff" stroke="#63b8ff" points="376.95,-20.44 386.15,-15.18 375.68,-13.56 376.95,-20.44"/>
</a>
</g>
</g>
<!-- Node9&#45;&gt;Node5 -->
<g id="edge14_Node000009_Node000005" class="edge">
<title>Node9&#45;&gt;Node5</title>
<g id="a_edge14_Node000009_Node000005"><a xlink:title=" ">
<path fill="none" stroke="#63b8ff" d="M122.68,-54.75C121.24,-47.8 119.18,-37.85 117.37,-29.13"/>
<polygon fill="#63b8ff" stroke="#63b8ff" points="120.74,-28.17 115.28,-19.09 113.89,-29.59 120.74,-28.17"/>
</a>
</g>
</g>
</g>
</svg>
