<?xml version="1.0" encoding="UTF-8" standalone="no"?>
<!DOCTYPE svg PUBLIC "-//W3C//DTD SVG 1.1//EN"
 "http://www.w3.org/Graphics/SVG/1.1/DTD/svg11.dtd">
<!-- Generated by graphviz version 2.43.0 (0)
 -->
<!-- Title: classify_text Pages: 1 -->
<svg width="288pt" height="64pt"
 viewBox="0.00 0.00 288.00 64.00" xmlns="http://www.w3.org/2000/svg" xmlns:xlink="http://www.w3.org/1999/xlink">
<g id="graph0" class="graph" transform="scale(1 1) rotate(0) translate(4 60)">
<title>classify_text</title>
<!-- Node1 -->
<g id="Node000001" class="node">
<title>Node1</title>
<g id="a_Node000001"><a xlink:title="Generates a classification vector from input text.">
<polygon fill="#999999" stroke="#666666" points="78,-37 0,-37 0,-18 78,-18 78,-37"/>
<text text-anchor="middle" x="39" y="-25" font-family="Helvetica,sans-Serif" font-size="10.00">classify_text</text>
</a>
</g>
</g>
<!-- Node2 -->
<g id="Node000002" class="node">
<title>Node2</title>
<g id="a_Node000002"><a xlink:href="../../d2/daf/hash__table_8c.html#a09866b547c82fa1cf347fe26223f9f51" target="_top" xlink:title="Finds a word in the hash table.">
<polygon fill="white" stroke="#666666" points="178,-56 114,-56 114,-37 178,-37 178,-56"/>
<text text-anchor="middle" x="146" y="-44" font-family="Helvetica,sans-Serif" font-size="10.00">find_word</text>
</a>
</g>
</g>
<!-- Node1&#45;&gt;Node2 -->
<g id="edge1_Node000001_Node000002" class="edge">
<title>Node1&#45;&gt;Node2</title>
<g id="a_edge1_Node000001_Node000002"><a xlink:title=" ">
<path fill="none" stroke="#63b8ff" d="M78.2,-34.41C86.54,-35.92 95.4,-37.52 103.85,-39.05"/>
<polygon fill="#63b8ff" stroke="#63b8ff" points="103.42,-42.53 113.88,-40.87 104.67,-35.64 103.42,-42.53"/>
</a>
</g>
</g>
<!-- Node4 -->
<g id="Node000004" class="node">
<title>Node4</title>
<g id="a_Node000004"><a xlink:href="../../d2/daf/hash__table_8c.html#a4c463db37a1ef64d9f98543215c06426" target="_top" xlink:title="Converts a string to lowercase in&#45;place.">
<polygon fill="white" stroke="#666666" points="175.5,-19 116.5,-19 116.5,0 175.5,0 175.5,-19"/>
<text text-anchor="middle" x="146" y="-7" font-family="Helvetica,sans-Serif" font-size="10.00">to_lower</text>
</a>
</g>
</g>
<!-- Node1&#45;&gt;Node4 -->
<g id="edge3_Node000001_Node000004" class="edge">
<title>Node1&#45;&gt;Node4</title>
<g id="a_edge3_Node000001_Node000004"><a xlink:title=" ">
<path fill="none" stroke="#63b8ff" d="M78.2,-20.95C87.32,-19.39 97.06,-17.72 106.2,-16.15"/>
<polygon fill="#63b8ff" stroke="#63b8ff" points="106.94,-19.57 116.21,-14.44 105.76,-12.68 106.94,-19.57"/>
</a>
</g>
</g>
<!-- Node3 -->
<g id="Node000003" class="node">
<title>Node3</title>
<g id="a_Node000003"><a xlink:href="../../d2/daf/hash__table_8c.html#ad0fdb05352f003d01650380f878c5059" target="_top" xlink:title="Hash function for a word.">
<polygon fill="white" stroke="#666666" points="280,-56 214,-56 214,-37 280,-37 280,-56"/>
<text text-anchor="middle" x="247" y="-44" font-family="Helvetica,sans-Serif" font-size="10.00">hash_func</text>
</a>
</g>
</g>
<!-- Node2&#45;&gt;Node3 -->
<g id="edge2_Node000002_Node000003" class="edge">
<title>Node2&#45;&gt;Node3</title>
<g id="a_edge2_Node000002_Node000003"><a xlink:title=" ">
<path fill="none" stroke="#63b8ff" d="M178.05,-46.5C186.12,-46.5 194.94,-46.5 203.48,-46.5"/>
<polygon fill="#63b8ff" stroke="#63b8ff" points="203.69,-50 213.69,-46.5 203.69,-43 203.69,-50"/>
</a>
</g>
</g>
</g>
</svg>
