<?xml version="1.0" encoding="UTF-8" standalone="no"?>
<!DOCTYPE svg PUBLIC "-//W3C//DTD SVG 1.1//EN"
 "http://www.w3.org/Graphics/SVG/1.1/DTD/svg11.dtd">
<!-- Generated by graphviz version 2.43.0 (0)
 -->
<!-- Title: clear_hash_table Pages: 1 -->
<svg width="280pt" height="64pt"
 viewBox="0.00 0.00 280.00 64.00" xmlns="http://www.w3.org/2000/svg" xmlns:xlink="http://www.w3.org/1999/xlink">
<g id="graph0" class="graph" transform="scale(1 1) rotate(0) translate(4 60)">
<title>clear_hash_table</title>
<!-- Node1 -->
<g id="Node000001" class="node">
<title>Node1</title>
<g id="a_Node000001"><a xlink:title="Frees all allocated hash table entries.">
<polygon fill="#999999" stroke="#666666" points="272,-37 173,-37 173,-18 272,-18 272,-37"/>
<text text-anchor="middle" x="222.5" y="-25" font-family="Helvetica,sans-Serif" font-size="10.00">clear_hash_table</text>
</a>
</g>
</g>
<!-- Node2 -->
<g id="Node000002" class="node">
<title>Node2</title>
<g id="a_Node000002"><a xlink:href="../../d4/d10/manager_8c.html#a693fc6348be56bfec805d6893f018c42" target="_top" xlink:title="Entry point for the manager process.">
<polygon fill="white" stroke="#666666" points="137,-56 77,-56 77,-37 137,-37 137,-56"/>
<text text-anchor="middle" x="107" y="-44" font-family="Helvetica,sans-Serif" font-size="10.00">manager</text>
</a>
</g>
</g>
<!-- Node1&#45;&gt;Node2 -->
<g id="edge1_Node000001_Node000002" class="edge">
<title>Node1&#45;&gt;Node2</title>
<g id="a_edge1_Node000001_Node000002"><a xlink:title=" ">
<path fill="none" stroke="#63b8ff" d="M162.69,-37.35C153.8,-38.83 144.97,-40.31 137.09,-41.63"/>
<polygon fill="#63b8ff" stroke="#63b8ff" points="163.42,-40.77 172.71,-35.67 162.27,-33.87 163.42,-40.77"/>
</a>
</g>
</g>
<!-- Node4 -->
<g id="Node000004" class="node">
<title>Node4</title>
<g id="a_Node000004"><a xlink:href="../../dc/d8e/worker_8c.html#a60b3bdb96860f3e67ef2dcc21b7b5c37" target="_top" xlink:title="Entry point for each GASPI worker process.">
<polygon fill="white" stroke="#666666" points="132,-19 82,-19 82,0 132,0 132,-19"/>
<text text-anchor="middle" x="107" y="-7" font-family="Helvetica,sans-Serif" font-size="10.00">worker</text>
</a>
</g>
</g>
<!-- Node1&#45;&gt;Node4 -->
<g id="edge3_Node000001_Node000004" class="edge">
<title>Node1&#45;&gt;Node4</title>
<g id="a_edge3_Node000001_Node000004"><a xlink:title=" ">
<path fill="none" stroke="#63b8ff" d="M162.76,-18.18C151.9,-16.46 141.15,-14.76 132.08,-13.32"/>
<polygon fill="#63b8ff" stroke="#63b8ff" points="162.28,-21.65 172.71,-19.76 163.38,-14.74 162.28,-21.65"/>
</a>
</g>
</g>
<!-- Node3 -->
<g id="Node000003" class="node">
<title>Node3</title>
<g id="a_Node000003"><a xlink:href="../../d0/d29/main_8c.html#a0ddf1224851353fc92bfbff6f499fa97" target="_top" xlink:title=" ">
<polygon fill="white" stroke="#666666" points="41,-37 0,-37 0,-18 41,-18 41,-37"/>
<text text-anchor="middle" x="20.5" y="-25" font-family="Helvetica,sans-Serif" font-size="10.00">main</text>
</a>
</g>
</g>
<!-- Node2&#45;&gt;Node3 -->
<g id="edge2_Node000002_Node000003" class="edge">
<title>Node2&#45;&gt;Node3</title>
<g id="a_edge2_Node000002_Node000003"><a xlink:title=" ">
<path fill="none" stroke="#63b8ff" d="M66.95,-37.72C57.97,-35.7 48.8,-33.64 41.07,-31.9"/>
<polygon fill="#63b8ff" stroke="#63b8ff" points="66.4,-41.18 76.92,-39.96 67.93,-34.35 66.4,-41.18"/>
</a>
</g>
</g>
<!-- Node4&#45;&gt;Node3 -->
<g id="edge4_Node000004_Node000003" class="edge">
<title>Node4&#45;&gt;Node3</title>
<g id="a_edge4_Node000004_Node000003"><a xlink:title=" ">
<path fill="none" stroke="#63b8ff" d="M71.5,-16.85C61.13,-19.06 50.11,-21.41 41.07,-23.33"/>
<polygon fill="#63b8ff" stroke="#63b8ff" points="72.51,-20.21 81.56,-14.71 71.05,-13.37 72.51,-20.21"/>
</a>
</g>
</g>
</g>
</svg>
