<?xml version="1.0" encoding="UTF-8" standalone="no"?>
<!DOCTYPE svg PUBLIC "-//W3C//DTD SVG 1.1//EN"
 "http://www.w3.org/Graphics/SVG/1.1/DTD/svg11.dtd">
<!-- Generated by graphviz version 2.43.0 (0)
 -->
<!-- Title: hash_table.h Pages: 1 -->
<svg width="418pt" height="82pt"
 viewBox="0.00 0.00 417.50 82.00" xmlns="http://www.w3.org/2000/svg" xmlns:xlink="http://www.w3.org/1999/xlink">
<g id="graph0" class="graph" transform="scale(1 1) rotate(0) translate(4 78)">
<title>hash_table.h</title>
<!-- Node1 -->
<g id="Node000001" class="node">
<title>Node1</title>
<g id="a_Node000001"><a xlink:title="Simple fixed&#45;size chained hash table for word lookup.">
<polygon fill="#999999" stroke="#666666" points="248.5,-74 169.5,-74 169.5,-55 248.5,-55 248.5,-74"/>
<text text-anchor="middle" x="209" y="-62" font-family="Helvetica,sans-Serif" font-size="10.00">hash_table.h</text>
</a>
</g>
</g>
<!-- Node2 -->
<g id="Node000002" class="node">
<title>Node2</title>
<g id="a_Node000002"><a xlink:href="../../d0/db9/classifier_8c.html" target="_top" xlink:title="Implements document classification using tokenization and a hash table.">
<polygon fill="white" stroke="#666666" points="68,-19 0,-19 0,0 68,0 68,-19"/>
<text text-anchor="middle" x="34" y="-7" font-family="Helvetica,sans-Serif" font-size="10.00">classifier.c</text>
</a>
</g>
</g>
<!-- Node1&#45;&gt;Node2 -->
<g id="edge1_Node000001_Node000002" class="edge">
<title>Node1&#45;&gt;Node2</title>
<g id="a_edge1_Node000001_Node000002"><a xlink:title=" ">
<path fill="none" stroke="#63b8ff" d="M171.21,-52.06C138.5,-42.15 91.93,-28.04 62.34,-19.08"/>
<polygon fill="#63b8ff" stroke="#63b8ff" points="170.3,-55.44 180.88,-54.98 172.33,-48.74 170.3,-55.44"/>
</a>
</g>
</g>
<!-- Node3 -->
<g id="Node000003" class="node">
<title>Node3</title>
<g id="a_Node000003"><a xlink:href="../../d5/d5e/file__utils_8c.html" target="_top" xlink:title="File reading, dictionary parsing, and dictionary broadcasting over MPI.">
<polygon fill="white" stroke="#666666" points="152,-19 86,-19 86,0 152,0 152,-19"/>
<text text-anchor="middle" x="119" y="-7" font-family="Helvetica,sans-Serif" font-size="10.00">file_utils.c</text>
</a>
</g>
</g>
<!-- Node1&#45;&gt;Node3 -->
<g id="edge2_Node000001_Node000003" class="edge">
<title>Node1&#45;&gt;Node3</title>
<g id="a_edge2_Node000001_Node000003"><a xlink:title=" ">
<path fill="none" stroke="#63b8ff" d="M185.56,-49.7C169.16,-40.04 147.77,-27.44 133.72,-19.17"/>
<polygon fill="#63b8ff" stroke="#63b8ff" points="184.15,-52.93 194.54,-54.98 187.7,-46.89 184.15,-52.93"/>
</a>
</g>
</g>
<!-- Node4 -->
<g id="Node000004" class="node">
<title>Node4</title>
<g id="a_Node000004"><a xlink:href="../../d2/daf/hash__table_8c.html" target="_top" xlink:title="Implementation of fixed&#45;size chained hash table for keyword lookup.">
<polygon fill="white" stroke="#666666" points="248,-19 170,-19 170,0 248,0 248,-19"/>
<text text-anchor="middle" x="209" y="-7" font-family="Helvetica,sans-Serif" font-size="10.00">hash_table.c</text>
</a>
</g>
</g>
<!-- Node1&#45;&gt;Node4 -->
<g id="edge3_Node000001_Node000004" class="edge">
<title>Node1&#45;&gt;Node4</title>
<g id="a_edge3_Node000001_Node000004"><a xlink:title=" ">
<path fill="none" stroke="#63b8ff" d="M209,-44.66C209,-35.93 209,-25.99 209,-19.09"/>
<polygon fill="#63b8ff" stroke="#63b8ff" points="205.5,-44.75 209,-54.75 212.5,-44.75 205.5,-44.75"/>
</a>
</g>
</g>
<!-- Node5 -->
<g id="Node000005" class="node">
<title>Node5</title>
<g id="a_Node000005"><a xlink:href="../../d4/d10/manager_8c.html" target="_top" xlink:title="Orchestrates the classification by managing worker coordination and output collection.">
<polygon fill="white" stroke="#666666" points="334,-19 266,-19 266,0 334,0 334,-19"/>
<text text-anchor="middle" x="300" y="-7" font-family="Helvetica,sans-Serif" font-size="10.00">manager.c</text>
</a>
</g>
</g>
<!-- Node1&#45;&gt;Node5 -->
<g id="edge4_Node000001_Node000005" class="edge">
<title>Node1&#45;&gt;Node5</title>
<g id="a_edge4_Node000001_Node000005"><a xlink:title=" ">
<path fill="none" stroke="#63b8ff" d="M232.7,-49.7C249.28,-40.04 270.91,-27.44 285.11,-19.17"/>
<polygon fill="#63b8ff" stroke="#63b8ff" points="230.5,-46.93 223.62,-54.98 234.02,-52.98 230.5,-46.93"/>
</a>
</g>
</g>
<!-- Node6 -->
<g id="Node000006" class="node">
<title>Node6</title>
<g id="a_Node000006"><a xlink:href="../../dc/d8e/worker_8c.html" target="_top" xlink:title="Logic for a worker process participating in distributed document classification.">
<polygon fill="white" stroke="#666666" points="409.5,-19 352.5,-19 352.5,0 409.5,0 409.5,-19"/>
<text text-anchor="middle" x="381" y="-7" font-family="Helvetica,sans-Serif" font-size="10.00">worker.c</text>
</a>
</g>
</g>
<!-- Node1&#45;&gt;Node6 -->
<g id="edge5_Node000001_Node000006" class="edge">
<title>Node1&#45;&gt;Node6</title>
<g id="a_edge5_Node000001_Node000006"><a xlink:title=" ">
<path fill="none" stroke="#63b8ff" d="M246.56,-51.93C278.68,-42.03 324.19,-28.01 353.15,-19.08"/>
<polygon fill="#63b8ff" stroke="#63b8ff" points="245.16,-48.69 236.63,-54.98 247.22,-55.38 245.16,-48.69"/>
</a>
</g>
</g>
</g>
</svg>
