<?xml version="1.0" encoding="UTF-8" standalone="no"?>
<!DOCTYPE svg PUBLIC "-//W3C//DTD SVG 1.1//EN"
 "http://www.w3.org/Graphics/SVG/1.1/DTD/svg11.dtd">
<!-- Generated by graphviz version 2.43.0 (0)
 -->
<!-- Title: gaspi_utils.c Pages: 1 -->
<svg width="283pt" height="137pt"
 viewBox="0.00 0.00 283.00 137.00" xmlns="http://www.w3.org/2000/svg" xmlns:xlink="http://www.w3.org/1999/xlink">
<g id="graph0" class="graph" transform="scale(1 1) rotate(0) translate(4 133)">
<title>gaspi_utils.c</title>
<!-- Node1 -->
<g id="Node000001" class="node">
<title>Node1</title>
<g id="a_Node000001"><a xlink:title="Utility functions for GASPI segment management.">
<polygon fill="#999999" stroke="#666666" points="222,-129 145,-129 145,-110 222,-110 222,-129"/>
<text text-anchor="middle" x="183.5" y="-117" font-family="Helvetica,sans-Serif" font-size="10.00">gaspi_utils.c</text>
</a>
</g>
</g>
<!-- Node2 -->
<g id="Node000002" class="node">
<title>Node2</title>
<g id="a_Node000002"><a xlink:href="../../df/df9/gaspi__utils_8h.html" target="_top" xlink:title="Utility macros and functions for GASPI error handling.">
<polygon fill="white" stroke="#666666" points="173.5,-74 95.5,-74 95.5,-55 173.5,-55 173.5,-74"/>
<text text-anchor="middle" x="134.5" y="-62" font-family="Helvetica,sans-Serif" font-size="10.00">gaspi_utils.h</text>
</a>
</g>
</g>
<!-- Node1&#45;&gt;Node2 -->
<g id="edge1_Node000001_Node000002" class="edge">
<title>Node1&#45;&gt;Node2</title>
<g id="a_edge1_Node000001_Node000002"><a xlink:title=" ">
<path fill="none" stroke="#63b8ff" d="M175.41,-109.75C168.34,-102.11 157.91,-90.82 149.35,-81.56"/>
<polygon fill="#63b8ff" stroke="#63b8ff" points="151.8,-79.06 142.44,-74.09 146.66,-83.81 151.8,-79.06"/>
</a>
</g>
</g>
<!-- Node7 -->
<g id="Node000007" class="node">
<title>Node7</title>
<g id="a_Node000007"><a xlink:href="../../d2/d81/msg__consts_8h.html" target="_top" xlink:title="Constants for GASPI messaging and buffer sizes.">
<polygon fill="white" stroke="#666666" points="275,-74 192,-74 192,-55 275,-55 275,-74"/>
<text text-anchor="middle" x="233.5" y="-62" font-family="Helvetica,sans-Serif" font-size="10.00">msg_consts.h</text>
</a>
</g>
</g>
<!-- Node1&#45;&gt;Node7 -->
<g id="edge6_Node000001_Node000007" class="edge">
<title>Node1&#45;&gt;Node7</title>
<g id="a_edge6_Node000001_Node000007"><a xlink:title=" ">
<path fill="none" stroke="#63b8ff" d="M191.76,-109.75C198.96,-102.11 209.61,-90.82 218.35,-81.56"/>
<polygon fill="#63b8ff" stroke="#63b8ff" points="221.08,-83.76 225.4,-74.09 215.99,-78.96 221.08,-83.76"/>
</a>
</g>
</g>
<!-- Node3 -->
<g id="Node000003" class="node">
<title>Node3</title>
<g id="a_Node000003"><a xlink:title=" ">
<polygon fill="#e0e0e0" stroke="#999999" points="55,-19 0,-19 0,0 55,0 55,-19"/>
<text text-anchor="middle" x="27.5" y="-7" font-family="Helvetica,sans-Serif" font-size="10.00">GASPI.h</text>
</a>
</g>
</g>
<!-- Node2&#45;&gt;Node3 -->
<g id="edge2_Node000002_Node000003" class="edge">
<title>Node2&#45;&gt;Node3</title>
<g id="a_edge2_Node000002_Node000003"><a xlink:title=" ">
<path fill="none" stroke="#63b8ff" d="M117.31,-54.98C100.25,-46.54 73.87,-33.47 54.1,-23.68"/>
<polygon fill="#63b8ff" stroke="#63b8ff" points="55.52,-20.47 45,-19.17 52.41,-26.75 55.52,-20.47"/>
</a>
</g>
</g>
<!-- Node4 -->
<g id="Node000004" class="node">
<title>Node4</title>
<g id="a_Node000004"><a xlink:title=" ">
<polygon fill="#e0e0e0" stroke="#999999" points="126,-19 73,-19 73,0 126,0 126,-19"/>
<text text-anchor="middle" x="99.5" y="-7" font-family="Helvetica,sans-Serif" font-size="10.00">limits.h</text>
</a>
</g>
</g>
<!-- Node2&#45;&gt;Node4 -->
<g id="edge3_Node000002_Node000004" class="edge">
<title>Node2&#45;&gt;Node4</title>
<g id="a_edge3_Node000002_Node000004"><a xlink:title=" ">
<path fill="none" stroke="#63b8ff" d="M128.72,-54.75C123.88,-47.42 116.82,-36.73 110.86,-27.7"/>
<polygon fill="#63b8ff" stroke="#63b8ff" points="113.6,-25.5 105.17,-19.09 107.76,-29.36 113.6,-25.5"/>
</a>
</g>
</g>
<!-- Node5 -->
<g id="Node000005" class="node">
<title>Node5</title>
<g id="a_Node000005"><a xlink:title=" ">
<polygon fill="#e0e0e0" stroke="#999999" points="194.5,-19 144.5,-19 144.5,0 194.5,0 194.5,-19"/>
<text text-anchor="middle" x="169.5" y="-7" font-family="Helvetica,sans-Serif" font-size="10.00">stdio.h</text>
</a>
</g>
</g>
<!-- Node2&#45;&gt;Node5 -->
<g id="edge4_Node000002_Node000005" class="edge">
<title>Node2&#45;&gt;Node5</title>
<g id="a_edge4_Node000002_Node000005"><a xlink:title=" ">
<path fill="none" stroke="#63b8ff" d="M140.28,-54.75C145.12,-47.42 152.18,-36.73 158.14,-27.7"/>
<polygon fill="#63b8ff" stroke="#63b8ff" points="161.24,-29.36 163.83,-19.09 155.4,-25.5 161.24,-29.36"/>
</a>
</g>
</g>
<!-- Node6 -->
<g id="Node000006" class="node">
<title>Node6</title>
<g id="a_Node000006"><a xlink:title=" ">
<polygon fill="#e0e0e0" stroke="#999999" points="266,-19 213,-19 213,0 266,0 266,-19"/>
<text text-anchor="middle" x="239.5" y="-7" font-family="Helvetica,sans-Serif" font-size="10.00">stdlib.h</text>
</a>
</g>
</g>
<!-- Node2&#45;&gt;Node6 -->
<g id="edge5_Node000002_Node000006" class="edge">
<title>Node2&#45;&gt;Node6</title>
<g id="a_edge5_Node000002_Node000006"><a xlink:title=" ">
<path fill="none" stroke="#63b8ff" d="M151.37,-54.98C168.11,-46.54 194,-33.47 213.39,-23.68"/>
<polygon fill="#63b8ff" stroke="#63b8ff" points="214.97,-26.8 222.32,-19.17 211.82,-20.55 214.97,-26.8"/>
</a>
</g>
</g>
</g>
</svg>
