<?xml version="1.0" encoding="UTF-8" standalone="no"?>
<!DOCTYPE svg PUBLIC "-//W3C//DTD SVG 1.1//EN"
 "http://www.w3.org/Graphics/SVG/1.1/DTD/svg11.dtd">
<!-- Generated by graphviz version 2.43.0 (0)
 -->
<!-- Title: worker Pages: 1 -->
<svg width="413pt" height="138pt"
 viewBox="0.00 0.00 413.00 138.00" xmlns="http://www.w3.org/2000/svg" xmlns:xlink="http://www.w3.org/1999/xlink">
<g id="graph0" class="graph" transform="scale(1 1) rotate(0) translate(4 134)">
<title>worker</title>
<!-- Node1 -->
<g id="Node000001" class="node">
<title>Node1</title>
<g id="a_Node000001"><a xlink:title="Entry point for each MPI worker process.">
<polygon fill="#999999" stroke="#666666" points="50,-74 0,-74 0,-55 50,-55 50,-74"/>
<text text-anchor="middle" x="25" y="-62" font-family="Helvetica,sans-Serif" font-size="10.00">worker</text>
</a>
</g>
</g>
<!-- Node2 -->
<g id="Node000002" class="node">
<title>Node2</title>
<g id="a_Node000002"><a xlink:href="../../d0/db9/classifier_8c.html#a34d7a99c1b14f5a3da44dc698c1f3bcb" target="_top" xlink:title="Generates a classification vector from input text.">
<polygon fill="white" stroke="#666666" points="178.5,-130 100.5,-130 100.5,-111 178.5,-111 178.5,-130"/>
<text text-anchor="middle" x="139.5" y="-118" font-family="Helvetica,sans-Serif" font-size="10.00">classify_text</text>
</a>
</g>
</g>
<!-- Node1&#45;&gt;Node2 -->
<g id="edge1_Node000001_Node000002" class="edge">
<title>Node1&#45;&gt;Node2</title>
<g id="a_edge1_Node000001_Node000002"><a xlink:title=" ">
<path fill="none" stroke="#63b8ff" d="M39.3,-74.2C51.12,-82.52 69.1,-94.39 86,-102.5 89.56,-104.21 93.33,-105.83 97.15,-107.36"/>
<polygon fill="#63b8ff" stroke="#63b8ff" points="96.06,-110.68 106.65,-110.92 98.51,-104.13 96.06,-110.68"/>
</a>
</g>
</g>
<!-- Node6 -->
<g id="Node000006" class="node">
<title>Node6</title>
<g id="a_Node000006"><a xlink:href="../../d2/daf/hash__table_8c.html#a2512fdab32c231a3a2e5621cb1e309c9" target="_top" xlink:title="Frees all allocated hash table entries.">
<polygon fill="white" stroke="#666666" points="189,-93 90,-93 90,-74 189,-74 189,-93"/>
<text text-anchor="middle" x="139.5" y="-81" font-family="Helvetica,sans-Serif" font-size="10.00">clear_hash_table</text>
</a>
</g>
</g>
<!-- Node1&#45;&gt;Node6 -->
<g id="edge5_Node000001_Node000006" class="edge">
<title>Node1&#45;&gt;Node6</title>
<g id="a_edge5_Node000001_Node000006"><a xlink:title=" ">
<path fill="none" stroke="#63b8ff" d="M50.13,-68.58C58.94,-70.06 69.33,-71.82 79.83,-73.59"/>
<polygon fill="#63b8ff" stroke="#63b8ff" points="79.44,-77.07 89.88,-75.29 80.6,-70.17 79.44,-77.07"/>
</a>
</g>
</g>
<!-- Node7 -->
<g id="Node000007" class="node">
<title>Node7</title>
<g id="a_Node000007"><a xlink:href="../../d5/d5e/file__utils_8c.html#aa06b061afa3a76842fb0de418d69fab4" target="_top" xlink:title="Reads entire content of a file into buffer.">
<polygon fill="white" stroke="#666666" points="190,-56 89,-56 89,-37 190,-37 190,-56"/>
<text text-anchor="middle" x="139.5" y="-44" font-family="Helvetica,sans-Serif" font-size="10.00">read_file_content</text>
</a>
</g>
</g>
<!-- Node1&#45;&gt;Node7 -->
<g id="edge6_Node000001_Node000007" class="edge">
<title>Node1&#45;&gt;Node7</title>
<g id="a_edge6_Node000001_Node000007"><a xlink:title=" ">
<path fill="none" stroke="#63b8ff" d="M50.13,-60.64C58.66,-59.27 68.66,-57.67 78.81,-56.05"/>
<polygon fill="#63b8ff" stroke="#63b8ff" points="79.64,-59.46 88.96,-54.43 78.53,-52.55 79.64,-59.46"/>
</a>
</g>
</g>
<!-- Node8 -->
<g id="Node000008" class="node">
<title>Node8</title>
<g id="a_Node000008"><a xlink:href="../../d5/d5e/file__utils_8c.html#a9e7c1dc86cc9f5060dc30988f68aeb76" target="_top" xlink:title="Receives dictionary in a worker and builds local keyword array and hash table.">
<polygon fill="white" stroke="#666666" points="193,-19 86,-19 86,0 193,0 193,-19"/>
<text text-anchor="middle" x="139.5" y="-7" font-family="Helvetica,sans-Serif" font-size="10.00">receive_dictionary</text>
</a>
</g>
</g>
<!-- Node1&#45;&gt;Node8 -->
<g id="edge7_Node000001_Node000008" class="edge">
<title>Node1&#45;&gt;Node8</title>
<g id="a_edge7_Node000001_Node000008"><a xlink:title=" ">
<path fill="none" stroke="#63b8ff" d="M40.36,-54.81C52.25,-47.05 69.76,-36.22 86,-28.5 90.31,-26.45 94.91,-24.48 99.53,-22.65"/>
<polygon fill="#63b8ff" stroke="#63b8ff" points="100.83,-25.9 108.93,-19.07 98.34,-19.35 100.83,-25.9"/>
</a>
</g>
</g>
<!-- Node3 -->
<g id="Node000003" class="node">
<title>Node3</title>
<g id="a_Node000003"><a xlink:href="../../d2/daf/hash__table_8c.html#a09866b547c82fa1cf347fe26223f9f51" target="_top" xlink:title="Finds a word in the hash table.">
<polygon fill="white" stroke="#666666" points="298,-130 234,-130 234,-111 298,-111 298,-130"/>
<text text-anchor="middle" x="266" y="-118" font-family="Helvetica,sans-Serif" font-size="10.00">find_word</text>
</a>
</g>
</g>
<!-- Node2&#45;&gt;Node3 -->
<g id="edge2_Node000002_Node000003" class="edge">
<title>Node2&#45;&gt;Node3</title>
<g id="a_edge2_Node000002_Node000003"><a xlink:title=" ">
<path fill="none" stroke="#63b8ff" d="M178.53,-120.5C192.8,-120.5 209.08,-120.5 223.64,-120.5"/>
<polygon fill="#63b8ff" stroke="#63b8ff" points="223.88,-124 233.88,-120.5 223.88,-117 223.88,-124"/>
</a>
</g>
</g>
<!-- Node5 -->
<g id="Node000005" class="node">
<title>Node5</title>
<g id="a_Node000005"><a xlink:href="../../d2/daf/hash__table_8c.html#a4c463db37a1ef64d9f98543215c06426" target="_top" xlink:title="Converts a string to lowercase in&#45;place.">
<polygon fill="white" stroke="#666666" points="295.5,-93 236.5,-93 236.5,-74 295.5,-74 295.5,-93"/>
<text text-anchor="middle" x="266" y="-81" font-family="Helvetica,sans-Serif" font-size="10.00">to_lower</text>
</a>
</g>
</g>
<!-- Node2&#45;&gt;Node5 -->
<g id="edge4_Node000002_Node000005" class="edge">
<title>Node2&#45;&gt;Node5</title>
<g id="a_edge4_Node000002_Node000005"><a xlink:title=" ">
<path fill="none" stroke="#63b8ff" d="M172.56,-110.97C189.06,-106.07 209.3,-100.05 226.63,-94.9"/>
<polygon fill="#63b8ff" stroke="#63b8ff" points="227.86,-98.19 236.44,-91.99 225.86,-91.48 227.86,-98.19"/>
</a>
</g>
</g>
<!-- Node4 -->
<g id="Node000004" class="node">
<title>Node4</title>
<g id="a_Node000004"><a xlink:href="../../d2/daf/hash__table_8c.html#ad0fdb05352f003d01650380f878c5059" target="_top" xlink:title="Hash function for a word.">
<polygon fill="white" stroke="#666666" points="405,-75 339,-75 339,-56 405,-56 405,-75"/>
<text text-anchor="middle" x="372" y="-63" font-family="Helvetica,sans-Serif" font-size="10.00">hash_func</text>
</a>
</g>
</g>
<!-- Node3&#45;&gt;Node4 -->
<g id="edge3_Node000003_Node000004" class="edge">
<title>Node3&#45;&gt;Node4</title>
<g id="a_edge3_Node000003_Node000004"><a xlink:title=" ">
<path fill="none" stroke="#63b8ff" d="M286.49,-110.91C291.86,-108.22 297.67,-105.28 303,-102.5 316.86,-95.27 332.17,-86.96 344.75,-80.06"/>
<polygon fill="#63b8ff" stroke="#63b8ff" points="346.69,-82.99 353.76,-75.09 343.31,-76.85 346.69,-82.99"/>
</a>
</g>
</g>
<!-- Node9 -->
<g id="Node000009" class="node">
<title>Node9</title>
<g id="a_Node000009"><a xlink:href="../../d2/daf/hash__table_8c.html#a02829007f61a93c496676c28e3a4cc60" target="_top" xlink:title="Inserts a keyword into the hash table.">
<polygon fill="white" stroke="#666666" points="303,-38 229,-38 229,-19 303,-19 303,-38"/>
<text text-anchor="middle" x="266" y="-26" font-family="Helvetica,sans-Serif" font-size="10.00">insert_word</text>
</a>
</g>
</g>
<!-- Node8&#45;&gt;Node9 -->
<g id="edge8_Node000008_Node000009" class="edge">
<title>Node8&#45;&gt;Node9</title>
<g id="a_edge8_Node000008_Node000009"><a xlink:title=" ">
<path fill="none" stroke="#63b8ff" d="M193.3,-17.56C201.78,-18.85 210.5,-20.18 218.81,-21.45"/>
<polygon fill="#63b8ff" stroke="#63b8ff" points="218.29,-24.91 228.7,-22.96 219.34,-17.99 218.29,-24.91"/>
</a>
</g>
</g>
<!-- Node9&#45;&gt;Node4 -->
<g id="edge9_Node000009_Node000004" class="edge">
<title>Node9&#45;&gt;Node4</title>
<g id="a_edge9_Node000009_Node000004"><a xlink:title=" ">
<path fill="none" stroke="#63b8ff" d="M293.78,-38.03C306.18,-42.44 321.1,-47.75 334.51,-52.52"/>
<polygon fill="#63b8ff" stroke="#63b8ff" points="333.35,-55.82 343.95,-55.88 335.7,-49.23 333.35,-55.82"/>
</a>
</g>
</g>
</g>
</svg>
