<?xml version="1.0" encoding="UTF-8" standalone="no"?>
<!DOCTYPE svg PUBLIC "-//W3C//DTD SVG 1.1//EN"
 "http://www.w3.org/Graphics/SVG/1.1/DTD/svg11.dtd">
<!-- Generated by graphviz version 2.43.0 (0)
 -->
<!-- Title: main.c Pages: 1 -->
<svg width="282pt" height="82pt"
 viewBox="0.00 0.00 282.00 82.00" xmlns="http://www.w3.org/2000/svg" xmlns:xlink="http://www.w3.org/1999/xlink">
<g id="graph0" class="graph" transform="scale(1 1) rotate(0) translate(4 78)">
<title>main.c</title>
<!-- Node1 -->
<g id="Node000001" class="node">
<title>Node1</title>
<g id="a_Node000001"><a xlink:title="Entry point for the MPI&#45;based document classifier.">
<polygon fill="#999999" stroke="#666666" points="150,-74 100,-74 100,-55 150,-55 150,-74"/>
<text text-anchor="middle" x="125" y="-62" font-family="Helvetica,sans-Serif" font-size="10.00">main.c</text>
</a>
</g>
</g>
<!-- Node2 -->
<g id="Node000002" class="node">
<title>Node2</title>
<g id="a_Node000002"><a xlink:title=" ">
<polygon fill="#e0e0e0" stroke="#999999" points="44,-19 0,-19 0,0 44,0 44,-19"/>
<text text-anchor="middle" x="22" y="-7" font-family="Helvetica,sans-Serif" font-size="10.00">mpi.h</text>
</a>
</g>
</g>
<!-- Node1&#45;&gt;Node2 -->
<g id="edge1_Node000001_Node000002" class="edge">
<title>Node1&#45;&gt;Node2</title>
<g id="a_edge1_Node000001_Node000002"><a xlink:title=" ">
<path fill="none" stroke="#63b8ff" d="M108.45,-54.98C92.11,-46.57 66.87,-33.59 47.87,-23.81"/>
<polygon fill="#63b8ff" stroke="#63b8ff" points="49.34,-20.63 38.85,-19.17 46.14,-26.86 49.34,-20.63"/>
</a>
</g>
</g>
<!-- Node3 -->
<g id="Node000003" class="node">
<title>Node3</title>
<g id="a_Node000003"><a xlink:title=" ">
<polygon fill="#e0e0e0" stroke="#999999" points="112,-19 62,-19 62,0 112,0 112,-19"/>
<text text-anchor="middle" x="87" y="-7" font-family="Helvetica,sans-Serif" font-size="10.00">stdio.h</text>
</a>
</g>
</g>
<!-- Node1&#45;&gt;Node3 -->
<g id="edge2_Node000001_Node000003" class="edge">
<title>Node1&#45;&gt;Node3</title>
<g id="a_edge2_Node000001_Node000003"><a xlink:title=" ">
<path fill="none" stroke="#63b8ff" d="M118.73,-54.75C113.41,-47.34 105.64,-36.5 99.12,-27.41"/>
<polygon fill="#63b8ff" stroke="#63b8ff" points="101.83,-25.18 93.16,-19.09 96.14,-29.26 101.83,-25.18"/>
</a>
</g>
</g>
<!-- Node4 -->
<g id="Node000004" class="node">
<title>Node4</title>
<g id="a_Node000004"><a xlink:href="../../db/d45/manager_8h.html" target="_top" xlink:title="Interface for the manager process.">
<polygon fill="white" stroke="#666666" points="198,-19 130,-19 130,0 198,0 198,-19"/>
<text text-anchor="middle" x="164" y="-7" font-family="Helvetica,sans-Serif" font-size="10.00">manager.h</text>
</a>
</g>
</g>
<!-- Node1&#45;&gt;Node4 -->
<g id="edge3_Node000001_Node000004" class="edge">
<title>Node1&#45;&gt;Node4</title>
<g id="a_edge3_Node000001_Node000004"><a xlink:title=" ">
<path fill="none" stroke="#63b8ff" d="M131.44,-54.75C136.89,-47.34 144.86,-36.5 151.56,-27.41"/>
<polygon fill="#63b8ff" stroke="#63b8ff" points="154.57,-29.22 157.68,-19.09 148.93,-25.07 154.57,-29.22"/>
</a>
</g>
</g>
<!-- Node5 -->
<g id="Node000005" class="node">
<title>Node5</title>
<g id="a_Node000005"><a xlink:href="../../da/da5/worker_8h.html" target="_top" xlink:title="Interface for worker process.">
<polygon fill="white" stroke="#666666" points="274,-19 216,-19 216,0 274,0 274,-19"/>
<text text-anchor="middle" x="245" y="-7" font-family="Helvetica,sans-Serif" font-size="10.00">worker.h</text>
</a>
</g>
</g>
<!-- Node1&#45;&gt;Node5 -->
<g id="edge4_Node000001_Node000005" class="edge">
<title>Node1&#45;&gt;Node5</title>
<g id="a_edge4_Node000001_Node000005"><a xlink:title=" ">
<path fill="none" stroke="#63b8ff" d="M144.28,-54.98C163.67,-46.42 193.81,-33.11 216.07,-23.28"/>
<polygon fill="#63b8ff" stroke="#63b8ff" points="217.64,-26.41 225.37,-19.17 214.81,-20.01 217.64,-26.41"/>
</a>
</g>
</g>
</g>
</svg>
