<?xml version="1.0" encoding="UTF-8" standalone="no"?>
<!DOCTYPE svg PUBLIC "-//W3C//DTD SVG 1.1//EN"
 "http://www.w3.org/Graphics/SVG/1.1/DTD/svg11.dtd">
<!-- Generated by graphviz version 2.43.0 (0)
 -->
<!-- Title: main.c Pages: 1 -->
<svg width="366pt" height="137pt"
 viewBox="0.00 0.00 365.50 137.00" xmlns="http://www.w3.org/2000/svg" xmlns:xlink="http://www.w3.org/1999/xlink">
<g id="graph0" class="graph" transform="scale(1 1) rotate(0) translate(4 133)">
<title>main.c</title>
<!-- Node1 -->
<g id="Node000001" class="node">
<title>Node1</title>
<g id="a_Node000001"><a xlink:title="Entry point for the GASPI&#45;based document classifier.">
<polygon fill="#999999" stroke="#666666" points="181.5,-129 131.5,-129 131.5,-110 181.5,-110 181.5,-129"/>
<text text-anchor="middle" x="156.5" y="-117" font-family="Helvetica,sans-Serif" font-size="10.00">main.c</text>
</a>
</g>
</g>
<!-- Node2 -->
<g id="Node000002" class="node">
<title>Node2</title>
<g id="a_Node000002"><a xlink:title=" ">
<polygon fill="#e0e0e0" stroke="#999999" points="55,-19 0,-19 0,0 55,0 55,-19"/>
<text text-anchor="middle" x="27.5" y="-7" font-family="Helvetica,sans-Serif" font-size="10.00">GASPI.h</text>
</a>
</g>
</g>
<!-- Node1&#45;&gt;Node2 -->
<g id="edge1_Node000001_Node000002" class="edge">
<title>Node1&#45;&gt;Node2</title>
<g id="a_edge1_Node000001_Node000002"><a xlink:title=" ">
<path fill="none" stroke="#63b8ff" d="M144.74,-109.89C132.88,-101.1 114.13,-86.96 98.5,-74 79.55,-58.3 58.65,-39.4 44.46,-26.32"/>
<polygon fill="#63b8ff" stroke="#63b8ff" points="46.66,-23.59 36.95,-19.36 41.9,-28.72 46.66,-23.59"/>
</a>
</g>
</g>
<!-- Node3 -->
<g id="Node000003" class="node">
<title>Node3</title>
<g id="a_Node000003"><a xlink:title=" ">
<polygon fill="#e0e0e0" stroke="#999999" points="123.5,-19 73.5,-19 73.5,0 123.5,0 123.5,-19"/>
<text text-anchor="middle" x="98.5" y="-7" font-family="Helvetica,sans-Serif" font-size="10.00">stdio.h</text>
</a>
</g>
</g>
<!-- Node1&#45;&gt;Node3 -->
<g id="edge2_Node000001_Node000003" class="edge">
<title>Node1&#45;&gt;Node3</title>
<g id="a_edge2_Node000001_Node000003"><a xlink:title=" ">
<path fill="none" stroke="#63b8ff" d="M143.19,-109.98C132.02,-102.07 116.62,-89.24 108.5,-74 101.19,-60.29 98.87,-42.71 98.28,-29.53"/>
<polygon fill="#63b8ff" stroke="#63b8ff" points="101.78,-29.22 98.12,-19.28 94.78,-29.33 101.78,-29.22"/>
</a>
</g>
</g>
<!-- Node4 -->
<g id="Node000004" class="node">
<title>Node4</title>
<g id="a_Node000004"><a xlink:href="../../df/df9/gaspi__utils_8h.html" target="_top" xlink:title="Utility macros and functions for GASPI error handling.">
<polygon fill="white" stroke="#666666" points="195.5,-74 117.5,-74 117.5,-55 195.5,-55 195.5,-74"/>
<text text-anchor="middle" x="156.5" y="-62" font-family="Helvetica,sans-Serif" font-size="10.00">gaspi_utils.h</text>
</a>
</g>
</g>
<!-- Node1&#45;&gt;Node4 -->
<g id="edge3_Node000001_Node000004" class="edge">
<title>Node1&#45;&gt;Node4</title>
<g id="a_edge3_Node000001_Node000004"><a xlink:title=" ">
<path fill="none" stroke="#63b8ff" d="M156.5,-109.75C156.5,-102.8 156.5,-92.85 156.5,-84.13"/>
<polygon fill="#63b8ff" stroke="#63b8ff" points="160,-84.09 156.5,-74.09 153,-84.09 160,-84.09"/>
</a>
</g>
</g>
<!-- Node7 -->
<g id="Node000007" class="node">
<title>Node7</title>
<g id="a_Node000007"><a xlink:href="../../db/d45/manager_8h.html" target="_top" xlink:title="Interface for the manager process.">
<polygon fill="white" stroke="#666666" points="281.5,-74 213.5,-74 213.5,-55 281.5,-55 281.5,-74"/>
<text text-anchor="middle" x="247.5" y="-62" font-family="Helvetica,sans-Serif" font-size="10.00">manager.h</text>
</a>
</g>
</g>
<!-- Node1&#45;&gt;Node7 -->
<g id="edge8_Node000001_Node000007" class="edge">
<title>Node1&#45;&gt;Node7</title>
<g id="a_edge8_Node000001_Node000007"><a xlink:title=" ">
<path fill="none" stroke="#63b8ff" d="M171.12,-109.98C185.36,-101.69 207.25,-88.94 223.95,-79.22"/>
<polygon fill="#63b8ff" stroke="#63b8ff" points="225.73,-82.23 232.61,-74.17 222.21,-76.18 225.73,-82.23"/>
</a>
</g>
</g>
<!-- Node8 -->
<g id="Node000008" class="node">
<title>Node8</title>
<g id="a_Node000008"><a xlink:href="../../da/da5/worker_8h.html" target="_top" xlink:title="Interface for worker process.">
<polygon fill="white" stroke="#666666" points="357.5,-74 299.5,-74 299.5,-55 357.5,-55 357.5,-74"/>
<text text-anchor="middle" x="328.5" y="-62" font-family="Helvetica,sans-Serif" font-size="10.00">worker.h</text>
</a>
</g>
</g>
<!-- Node1&#45;&gt;Node8 -->
<g id="edge9_Node000001_Node000008" class="edge">
<title>Node1&#45;&gt;Node8</title>
<g id="a_edge9_Node000001_Node000008"><a xlink:title=" ">
<path fill="none" stroke="#63b8ff" d="M181.51,-110.79C210.3,-101.92 257.89,-87.26 291.09,-77.03"/>
<polygon fill="#63b8ff" stroke="#63b8ff" points="292.37,-80.3 300.9,-74.01 290.31,-73.61 292.37,-80.3"/>
</a>
</g>
</g>
<!-- Node4&#45;&gt;Node2 -->
<g id="edge4_Node000004_Node000002" class="edge">
<title>Node4&#45;&gt;Node2</title>
<g id="a_edge4_Node000004_Node000002"><a xlink:title=" ">
<path fill="none" stroke="#63b8ff" d="M135.77,-54.98C114.74,-46.34 81.95,-32.87 57.96,-23.02"/>
<polygon fill="#63b8ff" stroke="#63b8ff" points="59.18,-19.73 48.6,-19.17 56.52,-26.21 59.18,-19.73"/>
</a>
</g>
</g>
<!-- Node4&#45;&gt;Node3 -->
<g id="edge6_Node000004_Node000003" class="edge">
<title>Node4&#45;&gt;Node3</title>
<g id="a_edge6_Node000004_Node000003"><a xlink:title=" ">
<path fill="none" stroke="#63b8ff" d="M147.18,-54.98C138.69,-47.23 125.94,-35.58 115.62,-26.14"/>
<polygon fill="#63b8ff" stroke="#63b8ff" points="117.73,-23.33 107.99,-19.17 113.01,-28.5 117.73,-23.33"/>
</a>
</g>
</g>
<!-- Node5 -->
<g id="Node000005" class="node">
<title>Node5</title>
<g id="a_Node000005"><a xlink:title=" ">
<polygon fill="#e0e0e0" stroke="#999999" points="195,-19 142,-19 142,0 195,0 195,-19"/>
<text text-anchor="middle" x="168.5" y="-7" font-family="Helvetica,sans-Serif" font-size="10.00">limits.h</text>
</a>
</g>
</g>
<!-- Node4&#45;&gt;Node5 -->
<g id="edge5_Node000004_Node000005" class="edge">
<title>Node4&#45;&gt;Node5</title>
<g id="a_edge5_Node000004_Node000005"><a xlink:title=" ">
<path fill="none" stroke="#63b8ff" d="M158.48,-54.75C160.07,-47.72 162.36,-37.62 164.35,-28.84"/>
<polygon fill="#63b8ff" stroke="#63b8ff" points="167.76,-29.62 166.56,-19.09 160.93,-28.07 167.76,-29.62"/>
</a>
</g>
</g>
<!-- Node6 -->
<g id="Node000006" class="node">
<title>Node6</title>
<g id="a_Node000006"><a xlink:title=" ">
<polygon fill="#e0e0e0" stroke="#999999" points="266,-19 213,-19 213,0 266,0 266,-19"/>
<text text-anchor="middle" x="239.5" y="-7" font-family="Helvetica,sans-Serif" font-size="10.00">stdlib.h</text>
</a>
</g>
</g>
<!-- Node4&#45;&gt;Node6 -->
<g id="edge7_Node000004_Node000006" class="edge">
<title>Node4&#45;&gt;Node6</title>
<g id="a_edge7_Node000004_Node000006"><a xlink:title=" ">
<path fill="none" stroke="#63b8ff" d="M169.84,-54.98C182.59,-46.84 202.05,-34.41 217.17,-24.76"/>
<polygon fill="#63b8ff" stroke="#63b8ff" points="219.38,-27.5 225.92,-19.17 215.61,-21.6 219.38,-27.5"/>
</a>
</g>
</g>
</g>
</svg>
