<?xml version="1.0" encoding="UTF-8" standalone="no"?>
<!DOCTYPE svg PUBLIC "-//W3C//DTD SVG 1.1//EN"
 "http://www.w3.org/Graphics/SVG/1.1/DTD/svg11.dtd">
<!-- Generated by graphviz version 2.43.0 (0)
 -->
<!-- Title: manager Pages: 1 -->
<svg width="435pt" height="193pt"
 viewBox="0.00 0.00 435.00 193.00" xmlns="http://www.w3.org/2000/svg" xmlns:xlink="http://www.w3.org/1999/xlink">
<g id="graph0" class="graph" transform="scale(1 1) rotate(0) translate(4 189)">
<title>manager</title>
<!-- Node1 -->
<g id="Node000001" class="node">
<title>Node1</title>
<g id="a_Node000001"><a xlink:title="Entry point for the manager process.">
<polygon fill="#999999" stroke="#666666" points="60,-111 0,-111 0,-92 60,-92 60,-111"/>
<text text-anchor="middle" x="30" y="-99" font-family="Helvetica,sans-Serif" font-size="10.00">manager</text>
</a>
</g>
</g>
<!-- Node2 -->
<g id="Node000002" class="node">
<title>Node2</title>
<g id="a_Node000002"><a xlink:href="../../d5/d5e/file__utils_8c.html#a07982d8fbcce521936640f6b39550dad" target="_top" xlink:title="Broadcasts dictionary from manager to workers.">
<polygon fill="white" stroke="#666666" points="215,-185 96,-185 96,-166 215,-166 215,-185"/>
<text text-anchor="middle" x="155.5" y="-173" font-family="Helvetica,sans-Serif" font-size="10.00">broadcast_dictionary</text>
</a>
</g>
</g>
<!-- Node1&#45;&gt;Node2 -->
<g id="edge1_Node000001_Node000002" class="edge">
<title>Node1&#45;&gt;Node2</title>
<g id="a_edge1_Node000001_Node000002"><a xlink:title=" ">
<path fill="none" stroke="#63b8ff" d="M39.75,-111.2C51.44,-123.6 73.32,-144.96 96,-157.5 99.21,-159.27 102.62,-160.9 106.12,-162.38"/>
<polygon fill="#63b8ff" stroke="#63b8ff" points="104.9,-165.66 115.49,-165.97 107.41,-159.13 104.9,-165.66"/>
</a>
</g>
</g>
<!-- Node3 -->
<g id="Node000003" class="node">
<title>Node3</title>
<g id="a_Node000003"><a xlink:href="../../d2/daf/hash__table_8c.html#a2512fdab32c231a3a2e5621cb1e309c9" target="_top" xlink:title="Frees all allocated hash table entries.">
<polygon fill="white" stroke="#666666" points="205,-148 106,-148 106,-129 205,-129 205,-148"/>
<text text-anchor="middle" x="155.5" y="-136" font-family="Helvetica,sans-Serif" font-size="10.00">clear_hash_table</text>
</a>
</g>
</g>
<!-- Node1&#45;&gt;Node3 -->
<g id="edge2_Node000001_Node000003" class="edge">
<title>Node1&#45;&gt;Node3</title>
<g id="a_edge2_Node000001_Node000003"><a xlink:title=" ">
<path fill="none" stroke="#63b8ff" d="M60.27,-110.27C75.89,-114.95 95.39,-120.79 112.59,-125.94"/>
<polygon fill="#63b8ff" stroke="#63b8ff" points="111.82,-129.37 122.41,-128.89 113.83,-122.66 111.82,-129.37"/>
</a>
</g>
</g>
<!-- Node4 -->
<g id="Node000004" class="node">
<title>Node4</title>
<g id="a_Node000004"><a xlink:href="../../d5/d5e/file__utils_8c.html#af60f33bb7908850bdcf52ebe9f49d310" target="_top" xlink:title="Lists all .txt files in a directory.">
<polygon fill="white" stroke="#666666" points="193.5,-111 117.5,-111 117.5,-92 193.5,-92 193.5,-111"/>
<text text-anchor="middle" x="155.5" y="-99" font-family="Helvetica,sans-Serif" font-size="10.00">list_txt_files</text>
</a>
</g>
</g>
<!-- Node1&#45;&gt;Node4 -->
<g id="edge3_Node000001_Node000004" class="edge">
<title>Node1&#45;&gt;Node4</title>
<g id="a_edge3_Node000001_Node000004"><a xlink:title=" ">
<path fill="none" stroke="#63b8ff" d="M60.27,-101.5C74.31,-101.5 91.49,-101.5 107.31,-101.5"/>
<polygon fill="#63b8ff" stroke="#63b8ff" points="107.47,-105 117.47,-101.5 107.47,-98 107.47,-105"/>
</a>
</g>
</g>
<!-- Node5 -->
<g id="Node000005" class="node">
<title>Node5</title>
<g id="a_Node000005"><a xlink:href="../../d5/d5e/file__utils_8c.html#af2d299fe865532706c80ab701585b877" target="_top" xlink:title="Opens the result output file for writing.">
<polygon fill="white" stroke="#666666" points="204.5,-74 106.5,-74 106.5,-55 204.5,-55 204.5,-74"/>
<text text-anchor="middle" x="155.5" y="-62" font-family="Helvetica,sans-Serif" font-size="10.00">open_output_file</text>
</a>
</g>
</g>
<!-- Node1&#45;&gt;Node5 -->
<g id="edge4_Node000001_Node000005" class="edge">
<title>Node1&#45;&gt;Node5</title>
<g id="a_edge4_Node000001_Node000005"><a xlink:title=" ">
<path fill="none" stroke="#63b8ff" d="M60.27,-92.73C75.89,-88.05 95.39,-82.21 112.59,-77.06"/>
<polygon fill="#63b8ff" stroke="#63b8ff" points="113.83,-80.34 122.41,-74.11 111.82,-73.63 113.83,-80.34"/>
</a>
</g>
</g>
<!-- Node6 -->
<g id="Node000006" class="node">
<title>Node6</title>
<g id="a_Node000006"><a xlink:href="../../d5/d5e/file__utils_8c.html#a9cef8f76bf0bbcbbc225ed062b5d8d15" target="_top" xlink:title="Reads dictionary and builds global keyword list and hash table.">
<polygon fill="white" stroke="#666666" points="201.5,-37 109.5,-37 109.5,-18 201.5,-18 201.5,-37"/>
<text text-anchor="middle" x="155.5" y="-25" font-family="Helvetica,sans-Serif" font-size="10.00">read_dictionary</text>
</a>
</g>
</g>
<!-- Node1&#45;&gt;Node6 -->
<g id="edge5_Node000001_Node000006" class="edge">
<title>Node1&#45;&gt;Node6</title>
<g id="a_edge5_Node000001_Node000006"><a xlink:title=" ">
<path fill="none" stroke="#63b8ff" d="M40.23,-91.62C52.08,-79.45 73.79,-58.87 96,-46.5 99.88,-44.34 104.05,-42.38 108.31,-40.61"/>
<polygon fill="#63b8ff" stroke="#63b8ff" points="109.59,-43.86 117.69,-37.04 107.1,-37.32 109.59,-43.86"/>
</a>
</g>
</g>
<!-- Node7 -->
<g id="Node000007" class="node">
<title>Node7</title>
<g id="a_Node000007"><a xlink:href="../../d2/daf/hash__table_8c.html#a02829007f61a93c496676c28e3a4cc60" target="_top" xlink:title="Inserts a keyword into the hash table.">
<polygon fill="white" stroke="#666666" points="325,-56 251,-56 251,-37 325,-37 325,-56"/>
<text text-anchor="middle" x="288" y="-44" font-family="Helvetica,sans-Serif" font-size="10.00">insert_word</text>
</a>
</g>
</g>
<!-- Node6&#45;&gt;Node7 -->
<g id="edge6_Node000006_Node000007" class="edge">
<title>Node6&#45;&gt;Node7</title>
<g id="a_edge6_Node000006_Node000007"><a xlink:title=" ">
<path fill="none" stroke="#63b8ff" d="M201.78,-34.09C214.44,-35.94 228.21,-37.94 240.92,-39.79"/>
<polygon fill="#63b8ff" stroke="#63b8ff" points="240.44,-43.26 250.84,-41.24 241.45,-36.33 240.44,-43.26"/>
</a>
</g>
</g>
<!-- Node9 -->
<g id="Node000009" class="node">
<title>Node9</title>
<g id="a_Node000009"><a xlink:href="../../d2/daf/hash__table_8c.html#a4c463db37a1ef64d9f98543215c06426" target="_top" xlink:title="Converts a string to lowercase in&#45;place.">
<polygon fill="white" stroke="#666666" points="317.5,-19 258.5,-19 258.5,0 317.5,0 317.5,-19"/>
<text text-anchor="middle" x="288" y="-7" font-family="Helvetica,sans-Serif" font-size="10.00">to_lower</text>
</a>
</g>
</g>
<!-- Node6&#45;&gt;Node9 -->
<g id="edge8_Node000006_Node000009" class="edge">
<title>Node6&#45;&gt;Node9</title>
<g id="a_edge8_Node000006_Node000009"><a xlink:title=" ">
<path fill="none" stroke="#63b8ff" d="M201.78,-21.25C216.82,-19.18 233.44,-16.89 247.97,-14.88"/>
<polygon fill="#63b8ff" stroke="#63b8ff" points="248.7,-18.32 258.13,-13.48 247.75,-11.38 248.7,-18.32"/>
</a>
</g>
</g>
<!-- Node8 -->
<g id="Node000008" class="node">
<title>Node8</title>
<g id="a_Node000008"><a xlink:href="../../d2/daf/hash__table_8c.html#ad0fdb05352f003d01650380f878c5059" target="_top" xlink:title="Hash function for a word.">
<polygon fill="white" stroke="#666666" points="427,-56 361,-56 361,-37 427,-37 427,-56"/>
<text text-anchor="middle" x="394" y="-44" font-family="Helvetica,sans-Serif" font-size="10.00">hash_func</text>
</a>
</g>
</g>
<!-- Node7&#45;&gt;Node8 -->
<g id="edge7_Node000007_Node000008" class="edge">
<title>Node7&#45;&gt;Node8</title>
<g id="a_edge7_Node000007_Node000008"><a xlink:title=" ">
<path fill="none" stroke="#63b8ff" d="M325.08,-46.5C333.34,-46.5 342.19,-46.5 350.69,-46.5"/>
<polygon fill="#63b8ff" stroke="#63b8ff" points="350.8,-50 360.8,-46.5 350.8,-43 350.8,-50"/>
</a>
</g>
</g>
</g>
</svg>
