<?xml version="1.0" encoding="UTF-8" standalone="no"?>
<!DOCTYPE svg PUBLIC "-//W3C//DTD SVG 1.1//EN"
 "http://www.w3.org/Graphics/SVG/1.1/DTD/svg11.dtd">
<!-- Generated by graphviz version 2.43.0 (0)
 -->
<!-- Title: gaspi_utils.h Pages: 1 -->
<svg width="400pt" height="82pt"
 viewBox="0.00 0.00 399.50 82.00" xmlns="http://www.w3.org/2000/svg" xmlns:xlink="http://www.w3.org/1999/xlink">
<g id="graph0" class="graph" transform="scale(1 1) rotate(0) translate(4 78)">
<title>gaspi_utils.h</title>
<!-- Node1 -->
<g id="Node000001" class="node">
<title>Node1</title>
<g id="a_Node000001"><a xlink:title="Utility macros and functions for GASPI error handling.">
<polygon fill="#999999" stroke="#666666" points="244,-74 166,-74 166,-55 244,-55 244,-74"/>
<text text-anchor="middle" x="205" y="-62" font-family="Helvetica,sans-Serif" font-size="10.00">gaspi_utils.h</text>
</a>
</g>
</g>
<!-- Node2 -->
<g id="Node000002" class="node">
<title>Node2</title>
<g id="a_Node000002"><a xlink:href="../../d5/d5e/file__utils_8c.html" target="_top" xlink:title="File reading, dictionary parsing, and dictionary broadcasting over GASPI.">
<polygon fill="white" stroke="#666666" points="66,-19 0,-19 0,0 66,0 66,-19"/>
<text text-anchor="middle" x="33" y="-7" font-family="Helvetica,sans-Serif" font-size="10.00">file_utils.c</text>
</a>
</g>
</g>
<!-- Node1&#45;&gt;Node2 -->
<g id="edge1_Node000001_Node000002" class="edge">
<title>Node1&#45;&gt;Node2</title>
<g id="a_edge1_Node000001_Node000002"><a xlink:title=" ">
<path fill="none" stroke="#63b8ff" d="M167.44,-51.93C135.32,-42.03 89.81,-28.01 60.85,-19.08"/>
<polygon fill="#63b8ff" stroke="#63b8ff" points="166.78,-55.38 177.37,-54.98 168.84,-48.69 166.78,-55.38"/>
</a>
</g>
</g>
<!-- Node3 -->
<g id="Node000003" class="node">
<title>Node3</title>
<g id="a_Node000003"><a xlink:href="../../db/dfb/gaspi__utils_8c.html" target="_top" xlink:title="Utility functions for GASPI segment management.">
<polygon fill="white" stroke="#666666" points="161.5,-19 84.5,-19 84.5,0 161.5,0 161.5,-19"/>
<text text-anchor="middle" x="123" y="-7" font-family="Helvetica,sans-Serif" font-size="10.00">gaspi_utils.c</text>
</a>
</g>
</g>
<!-- Node1&#45;&gt;Node3 -->
<g id="edge2_Node000001_Node000003" class="edge">
<title>Node1&#45;&gt;Node3</title>
<g id="a_edge2_Node000001_Node000003"><a xlink:title=" ">
<path fill="none" stroke="#63b8ff" d="M183.22,-49.42C168.34,-39.81 149.09,-27.37 136.41,-19.17"/>
<polygon fill="#63b8ff" stroke="#63b8ff" points="181.53,-52.5 191.83,-54.98 185.33,-46.62 181.53,-52.5"/>
</a>
</g>
</g>
<!-- Node4 -->
<g id="Node000004" class="node">
<title>Node4</title>
<g id="a_Node000004"><a xlink:href="../../d0/d29/main_8c.html" target="_top" xlink:title="Entry point for the GASPI&#45;based document classifier.">
<polygon fill="white" stroke="#666666" points="230,-19 180,-19 180,0 230,0 230,-19"/>
<text text-anchor="middle" x="205" y="-7" font-family="Helvetica,sans-Serif" font-size="10.00">main.c</text>
</a>
</g>
</g>
<!-- Node1&#45;&gt;Node4 -->
<g id="edge3_Node000001_Node000004" class="edge">
<title>Node1&#45;&gt;Node4</title>
<g id="a_edge3_Node000001_Node000004"><a xlink:title=" ">
<path fill="none" stroke="#63b8ff" d="M205,-44.66C205,-35.93 205,-25.99 205,-19.09"/>
<polygon fill="#63b8ff" stroke="#63b8ff" points="201.5,-44.75 205,-54.75 208.5,-44.75 201.5,-44.75"/>
</a>
</g>
</g>
<!-- Node5 -->
<g id="Node000005" class="node">
<title>Node5</title>
<g id="a_Node000005"><a xlink:href="../../d4/d10/manager_8c.html" target="_top" xlink:title="Orchestrates the classification by managing worker coordination and output collection.">
<polygon fill="white" stroke="#666666" points="316,-19 248,-19 248,0 316,0 316,-19"/>
<text text-anchor="middle" x="282" y="-7" font-family="Helvetica,sans-Serif" font-size="10.00">manager.c</text>
</a>
</g>
</g>
<!-- Node1&#45;&gt;Node5 -->
<g id="edge4_Node000001_Node000005" class="edge">
<title>Node1&#45;&gt;Node5</title>
<g id="a_edge4_Node000001_Node000005"><a xlink:title=" ">
<path fill="none" stroke="#63b8ff" d="M225.85,-49.15C239.76,-39.57 257.61,-27.29 269.4,-19.17"/>
<polygon fill="#63b8ff" stroke="#63b8ff" points="223.62,-46.43 217.37,-54.98 227.59,-52.2 223.62,-46.43"/>
</a>
</g>
</g>
<!-- Node6 -->
<g id="Node000006" class="node">
<title>Node6</title>
<g id="a_Node000006"><a xlink:href="../../dc/d8e/worker_8c.html" target="_top" xlink:title="Logic for a worker process participating in distributed document classification.">
<polygon fill="white" stroke="#666666" points="391.5,-19 334.5,-19 334.5,0 391.5,0 391.5,-19"/>
<text text-anchor="middle" x="363" y="-7" font-family="Helvetica,sans-Serif" font-size="10.00">worker.c</text>
</a>
</g>
</g>
<!-- Node1&#45;&gt;Node6 -->
<g id="edge5_Node000001_Node000006" class="edge">
<title>Node1&#45;&gt;Node6</title>
<g id="a_edge5_Node000001_Node000006"><a xlink:title=" ">
<path fill="none" stroke="#63b8ff" d="M239.88,-51.8C269.37,-41.91 310.93,-27.97 337.42,-19.08"/>
<polygon fill="#63b8ff" stroke="#63b8ff" points="238.75,-48.49 230.39,-54.98 240.98,-55.12 238.75,-48.49"/>
</a>
</g>
</g>
</g>
</svg>
