<?xml version="1.0" encoding="UTF-8" standalone="no"?>
<!DOCTYPE svg PUBLIC "-//W3C//DTD SVG 1.1//EN"
 "http://www.w3.org/Graphics/SVG/1.1/DTD/svg11.dtd">
<!-- Generated by graphviz version 2.43.0 (0)
 -->
<!-- Title: file_utils.c Pages: 1 -->
<svg width="641pt" height="137pt"
 viewBox="0.00 0.00 641.42 137.00" xmlns="http://www.w3.org/2000/svg" xmlns:xlink="http://www.w3.org/1999/xlink">
<g id="graph0" class="graph" transform="scale(1 1) rotate(0) translate(4 133)">
<title>file_utils.c</title>
<!-- Node1 -->
<g id="Node000001" class="node">
<title>Node1</title>
<g id="a_Node000001"><a xlink:title="File reading, dictionary parsing, and dictionary broadcasting over GASPI.">
<polygon fill="#999999" stroke="#666666" points="289.92,-129 223.92,-129 223.92,-110 289.92,-110 289.92,-129"/>
<text text-anchor="middle" x="256.92" y="-117" font-family="Helvetica,sans-Serif" font-size="10.00">file_utils.c</text>
</a>
</g>
</g>
<!-- Node2 -->
<g id="Node000002" class="node">
<title>Node2</title>
<g id="a_Node000002"><a xlink:title=" ">
<polygon fill="#e0e0e0" stroke="#999999" points="63.42,-19 8.42,-19 8.42,0 63.42,0 63.42,-19"/>
<text text-anchor="middle" x="35.92" y="-7" font-family="Helvetica,sans-Serif" font-size="10.00">GASPI.h</text>
</a>
</g>
</g>
<!-- Node1&#45;&gt;Node2 -->
<g id="edge1_Node000001_Node000002" class="edge">
<title>Node1&#45;&gt;Node2</title>
<g id="a_edge1_Node000001_Node000002"><a xlink:title=" ">
<path fill="none" stroke="#63b8ff" d="M223.65,-117.71C161.71,-115.46 32.48,-106.85 4.92,-74 -7.07,-59.7 6.14,-39.97 18.83,-26.31"/>
<polygon fill="#63b8ff" stroke="#63b8ff" points="21.48,-28.62 26.05,-19.06 16.52,-23.68 21.48,-28.62"/>
</a>
</g>
</g>
<!-- Node3 -->
<g id="Node000003" class="node">
<title>Node3</title>
<g id="a_Node000003"><a xlink:title=" ">
<polygon fill="#e0e0e0" stroke="#999999" points="67.92,-74 13.92,-74 13.92,-55 67.92,-55 67.92,-74"/>
<text text-anchor="middle" x="40.92" y="-62" font-family="Helvetica,sans-Serif" font-size="10.00">dirent.h</text>
</a>
</g>
</g>
<!-- Node1&#45;&gt;Node3 -->
<g id="edge2_Node000001_Node000003" class="edge">
<title>Node1&#45;&gt;Node3</title>
<g id="a_edge2_Node000001_Node000003"><a xlink:title=" ">
<path fill="none" stroke="#63b8ff" d="M223.65,-110.33C184.26,-100.67 118.88,-84.63 77.93,-74.58"/>
<polygon fill="#63b8ff" stroke="#63b8ff" points="78.63,-71.15 68.08,-72.16 76.96,-77.95 78.63,-71.15"/>
</a>
</g>
</g>
<!-- Node4 -->
<g id="Node000004" class="node">
<title>Node4</title>
<g id="a_Node000004"><a xlink:title=" ">
<polygon fill="#e0e0e0" stroke="#999999" points="256.42,-19 203.42,-19 203.42,0 256.42,0 256.42,-19"/>
<text text-anchor="middle" x="229.92" y="-7" font-family="Helvetica,sans-Serif" font-size="10.00">limits.h</text>
</a>
</g>
</g>
<!-- Node1&#45;&gt;Node4 -->
<g id="edge3_Node000001_Node000004" class="edge">
<title>Node1&#45;&gt;Node4</title>
<g id="a_edge3_Node000001_Node000004"><a xlink:title=" ">
<path fill="none" stroke="#63b8ff" d="M254.71,-109.66C250.32,-92.09 240.41,-52.45 234.54,-28.95"/>
<polygon fill="#63b8ff" stroke="#63b8ff" points="237.91,-28.01 232.09,-19.16 231.12,-29.71 237.91,-28.01"/>
</a>
</g>
</g>
<!-- Node5 -->
<g id="Node000005" class="node">
<title>Node5</title>
<g id="a_Node000005"><a xlink:title=" ">
<polygon fill="#e0e0e0" stroke="#999999" points="387.92,-19 337.92,-19 337.92,0 387.92,0 387.92,-19"/>
<text text-anchor="middle" x="362.92" y="-7" font-family="Helvetica,sans-Serif" font-size="10.00">stdio.h</text>
</a>
</g>
</g>
<!-- Node1&#45;&gt;Node5 -->
<g id="edge4_Node000001_Node000005" class="edge">
<title>Node1&#45;&gt;Node5</title>
<g id="a_edge4_Node000001_Node000005"><a xlink:title=" ">
<path fill="none" stroke="#63b8ff" d="M289.93,-119.17C325.1,-117.88 379.31,-109.72 405.92,-74 418.05,-57.73 400.49,-38.32 384.3,-25.28"/>
<polygon fill="#63b8ff" stroke="#63b8ff" points="386.2,-22.33 376.12,-19.09 381.98,-27.92 386.2,-22.33"/>
</a>
</g>
</g>
<!-- Node6 -->
<g id="Node000006" class="node">
<title>Node6</title>
<g id="a_Node000006"><a xlink:title=" ">
<polygon fill="#e0e0e0" stroke="#999999" points="153.42,-19 100.42,-19 100.42,0 153.42,0 153.42,-19"/>
<text text-anchor="middle" x="126.92" y="-7" font-family="Helvetica,sans-Serif" font-size="10.00">stdlib.h</text>
</a>
</g>
</g>
<!-- Node1&#45;&gt;Node6 -->
<g id="edge5_Node000001_Node000006" class="edge">
<title>Node1&#45;&gt;Node6</title>
<g id="a_edge5_Node000001_Node000006"><a xlink:title=" ">
<path fill="none" stroke="#63b8ff" d="M223.88,-118.57C190.29,-116.65 139.78,-107.83 114.92,-74 105.19,-60.76 110.52,-41.88 116.87,-28.16"/>
<polygon fill="#63b8ff" stroke="#63b8ff" points="120,-29.72 121.46,-19.22 113.78,-26.52 120,-29.72"/>
</a>
</g>
</g>
<!-- Node7 -->
<g id="Node000007" class="node">
<title>Node7</title>
<g id="a_Node000007"><a xlink:title=" ">
<polygon fill="#e0e0e0" stroke="#999999" points="311.42,-74 258.42,-74 258.42,-55 311.42,-55 311.42,-74"/>
<text text-anchor="middle" x="284.92" y="-62" font-family="Helvetica,sans-Serif" font-size="10.00">string.h</text>
</a>
</g>
</g>
<!-- Node1&#45;&gt;Node7 -->
<g id="edge6_Node000001_Node000007" class="edge">
<title>Node1&#45;&gt;Node7</title>
<g id="a_edge6_Node000001_Node000007"><a xlink:title=" ">
<path fill="none" stroke="#63b8ff" d="M261.55,-109.75C265.38,-102.49 270.95,-91.95 275.69,-82.98"/>
<polygon fill="#63b8ff" stroke="#63b8ff" points="278.81,-84.57 280.38,-74.09 272.62,-81.3 278.81,-84.57"/>
</a>
</g>
</g>
<!-- Node8 -->
<g id="Node000008" class="node">
<title>Node8</title>
<g id="a_Node000008"><a xlink:href="../../d1/d9d/file__utils_8h.html" target="_top" xlink:title="Utility functions for files operations.">
<polygon fill="white" stroke="#666666" points="396.42,-74 329.42,-74 329.42,-55 396.42,-55 396.42,-74"/>
<text text-anchor="middle" x="362.92" y="-62" font-family="Helvetica,sans-Serif" font-size="10.00">file_utils.h</text>
</a>
</g>
</g>
<!-- Node1&#45;&gt;Node8 -->
<g id="edge7_Node000001_Node000008" class="edge">
<title>Node1&#45;&gt;Node8</title>
<g id="a_edge7_Node000001_Node000008"><a xlink:title=" ">
<path fill="none" stroke="#63b8ff" d="M273.95,-109.98C290.85,-101.54 316.99,-88.47 336.57,-78.68"/>
<polygon fill="#63b8ff" stroke="#63b8ff" points="338.2,-81.77 345.58,-74.17 335.07,-75.51 338.2,-81.77"/>
</a>
</g>
</g>
<!-- Node9 -->
<g id="Node000009" class="node">
<title>Node9</title>
<g id="a_Node000009"><a xlink:href="../../df/df9/gaspi__utils_8h.html" target="_top" xlink:title="Utility macros and functions for GASPI error handling.">
<polygon fill="white" stroke="#666666" points="201.92,-74 123.92,-74 123.92,-55 201.92,-55 201.92,-74"/>
<text text-anchor="middle" x="162.92" y="-62" font-family="Helvetica,sans-Serif" font-size="10.00">gaspi_utils.h</text>
</a>
</g>
</g>
<!-- Node1&#45;&gt;Node9 -->
<g id="edge10_Node000001_Node000009" class="edge">
<title>Node1&#45;&gt;Node9</title>
<g id="a_edge10_Node000001_Node000009"><a xlink:title=" ">
<path fill="none" stroke="#63b8ff" d="M241.82,-109.98C227.11,-101.69 204.5,-88.94 187.25,-79.22"/>
<polygon fill="#63b8ff" stroke="#63b8ff" points="188.73,-76.03 178.3,-74.17 185.29,-82.13 188.73,-76.03"/>
</a>
</g>
</g>
<!-- Node10 -->
<g id="Node000010" class="node">
<title>Node10</title>
<g id="a_Node000010"><a xlink:href="../../d4/ddb/hash__table_8h.html" target="_top" xlink:title="Simple fixed&#45;size chained hash table for word lookup.">
<polygon fill="white" stroke="#666666" points="532.42,-74 453.42,-74 453.42,-55 532.42,-55 532.42,-74"/>
<text text-anchor="middle" x="492.92" y="-62" font-family="Helvetica,sans-Serif" font-size="10.00">hash_table.h</text>
</a>
</g>
</g>
<!-- Node1&#45;&gt;Node10 -->
<g id="edge15_Node000001_Node000010" class="edge">
<title>Node1&#45;&gt;Node10</title>
<g id="a_edge15_Node000001_Node000010"><a xlink:title=" ">
<path fill="none" stroke="#63b8ff" d="M289.99,-111.07C330.4,-102 399.11,-86.57 445.24,-76.21"/>
<polygon fill="#63b8ff" stroke="#63b8ff" points="446.02,-79.62 455.01,-74.01 444.49,-72.79 446.02,-79.62"/>
</a>
</g>
</g>
<!-- Node11 -->
<g id="Node000011" class="node">
<title>Node11</title>
<g id="a_Node000011"><a xlink:href="../../d2/d81/msg__consts_8h.html" target="_top" xlink:title="Constants for GASPI messaging and buffer sizes.">
<polygon fill="white" stroke="#666666" points="633.42,-74 550.42,-74 550.42,-55 633.42,-55 633.42,-74"/>
<text text-anchor="middle" x="591.92" y="-62" font-family="Helvetica,sans-Serif" font-size="10.00">msg_consts.h</text>
</a>
</g>
</g>
<!-- Node1&#45;&gt;Node11 -->
<g id="edge16_Node000001_Node000011" class="edge">
<title>Node1&#45;&gt;Node11</title>
<g id="a_edge16_Node000001_Node000011"><a xlink:title=" ">
<path fill="none" stroke="#63b8ff" d="M290.29,-113.44C341.77,-105.6 443.9,-89.92 540.28,-74.25"/>
<polygon fill="#63b8ff" stroke="#63b8ff" points="540.88,-77.7 550.19,-72.64 539.75,-70.79 540.88,-77.7"/>
</a>
</g>
</g>
<!-- Node8&#45;&gt;Node4 -->
<g id="edge8_Node000008_Node000004" class="edge">
<title>Node8&#45;&gt;Node4</title>
<g id="a_edge8_Node000008_Node000004"><a xlink:title=" ">
<path fill="none" stroke="#63b8ff" d="M341.55,-54.98C319.77,-46.3 285.76,-32.75 261,-22.88"/>
<polygon fill="#63b8ff" stroke="#63b8ff" points="262.27,-19.62 251.68,-19.17 259.67,-26.12 262.27,-19.62"/>
</a>
</g>
</g>
<!-- Node8&#45;&gt;Node5 -->
<g id="edge9_Node000008_Node000005" class="edge">
<title>Node8&#45;&gt;Node5</title>
<g id="a_edge9_Node000008_Node000005"><a xlink:title=" ">
<path fill="none" stroke="#63b8ff" d="M362.92,-54.75C362.92,-47.8 362.92,-37.85 362.92,-29.13"/>
<polygon fill="#63b8ff" stroke="#63b8ff" points="366.42,-29.09 362.92,-19.09 359.42,-29.09 366.42,-29.09"/>
</a>
</g>
</g>
<!-- Node9&#45;&gt;Node2 -->
<g id="edge11_Node000009_Node000002" class="edge">
<title>Node9&#45;&gt;Node2</title>
<g id="a_edge11_Node000009_Node000002"><a xlink:title=" ">
<path fill="none" stroke="#63b8ff" d="M142.52,-54.98C121.9,-46.38 89.82,-32.99 66.23,-23.15"/>
<polygon fill="#63b8ff" stroke="#63b8ff" points="67.27,-19.79 56.7,-19.17 64.58,-26.25 67.27,-19.79"/>
</a>
</g>
</g>
<!-- Node9&#45;&gt;Node4 -->
<g id="edge12_Node000009_Node000004" class="edge">
<title>Node9&#45;&gt;Node4</title>
<g id="a_edge12_Node000009_Node000004"><a xlink:title=" ">
<path fill="none" stroke="#63b8ff" d="M173.69,-54.98C183.69,-47.07 198.81,-35.11 210.85,-25.58"/>
<polygon fill="#63b8ff" stroke="#63b8ff" points="213.29,-28.12 218.96,-19.17 208.95,-22.63 213.29,-28.12"/>
</a>
</g>
</g>
<!-- Node9&#45;&gt;Node5 -->
<g id="edge13_Node000009_Node000005" class="edge">
<title>Node9&#45;&gt;Node5</title>
<g id="a_edge13_Node000009_Node000005"><a xlink:title=" ">
<path fill="none" stroke="#63b8ff" d="M195.06,-54.98C231.39,-45.36 290.36,-29.73 327.86,-19.79"/>
<polygon fill="#63b8ff" stroke="#63b8ff" points="329.06,-23.09 337.83,-17.15 327.27,-16.33 329.06,-23.09"/>
</a>
</g>
</g>
<!-- Node9&#45;&gt;Node6 -->
<g id="edge14_Node000009_Node000006" class="edge">
<title>Node9&#45;&gt;Node6</title>
<g id="a_edge14_Node000009_Node000006"><a xlink:title=" ">
<path fill="none" stroke="#63b8ff" d="M156.98,-54.75C151.94,-47.34 144.59,-36.5 138.41,-27.41"/>
<polygon fill="#63b8ff" stroke="#63b8ff" points="141.27,-25.39 132.76,-19.09 135.48,-29.33 141.27,-25.39"/>
</a>
</g>
</g>
</g>
</svg>
