<?xml version="1.0" encoding="UTF-8" standalone="no"?>
<!DOCTYPE svg PUBLIC "-//W3C//DTD SVG 1.1//EN"
 "http://www.w3.org/Graphics/SVG/1.1/DTD/svg11.dtd">
<!-- Generated by graphviz version 2.43.0 (0)
 -->
<!-- Title: file_utils.c Pages: 1 -->
<svg width="627pt" height="137pt"
 viewBox="0.00 0.00 626.50 137.00" xmlns="http://www.w3.org/2000/svg" xmlns:xlink="http://www.w3.org/1999/xlink">
<g id="graph0" class="graph" transform="scale(1 1) rotate(0) translate(4 133)">
<title>file_utils.c</title>
<!-- Node1 -->
<g id="Node000001" class="node">
<title>Node1</title>
<g id="a_Node000001"><a xlink:title="File reading, dictionary parsing, and dictionary broadcasting over MPI.">
<polygon fill="#999999" stroke="#666666" points="317,-129 251,-129 251,-110 317,-110 317,-129"/>
<text text-anchor="middle" x="284" y="-117" font-family="Helvetica,sans-Serif" font-size="10.00">file_utils.c</text>
</a>
</g>
</g>
<!-- Node2 -->
<g id="Node000002" class="node">
<title>Node2</title>
<g id="a_Node000002"><a xlink:title=" ">
<polygon fill="#e0e0e0" stroke="#999999" points="44,-74 0,-74 0,-55 44,-55 44,-74"/>
<text text-anchor="middle" x="22" y="-62" font-family="Helvetica,sans-Serif" font-size="10.00">mpi.h</text>
</a>
</g>
</g>
<!-- Node1&#45;&gt;Node2 -->
<g id="edge1_Node000001_Node000002" class="edge">
<title>Node1&#45;&gt;Node2</title>
<g id="a_edge1_Node000001_Node000002"><a xlink:title=" ">
<path fill="none" stroke="#63b8ff" d="M250.93,-112.96C207.87,-105.56 130.06,-91.58 54.46,-74.2"/>
<polygon fill="#63b8ff" stroke="#63b8ff" points="54.83,-70.69 44.3,-71.84 53.25,-77.51 54.83,-70.69"/>
</a>
</g>
</g>
<!-- Node3 -->
<g id="Node000003" class="node">
<title>Node3</title>
<g id="a_Node000003"><a xlink:title=" ">
<polygon fill="#e0e0e0" stroke="#999999" points="116,-74 62,-74 62,-55 116,-55 116,-74"/>
<text text-anchor="middle" x="89" y="-62" font-family="Helvetica,sans-Serif" font-size="10.00">dirent.h</text>
</a>
</g>
</g>
<!-- Node1&#45;&gt;Node3 -->
<g id="edge2_Node000001_Node000003" class="edge">
<title>Node1&#45;&gt;Node3</title>
<g id="a_edge2_Node000001_Node000003"><a xlink:title=" ">
<path fill="none" stroke="#63b8ff" d="M252.67,-109.98C218.13,-100.6 162.61,-85.51 125.97,-75.55"/>
<polygon fill="#63b8ff" stroke="#63b8ff" points="126.73,-72.13 116.16,-72.88 124.9,-78.88 126.73,-72.13"/>
</a>
</g>
</g>
<!-- Node4 -->
<g id="Node000004" class="node">
<title>Node4</title>
<g id="a_Node000004"><a xlink:title=" ">
<polygon fill="#e0e0e0" stroke="#999999" points="201.5,-19 148.5,-19 148.5,0 201.5,0 201.5,-19"/>
<text text-anchor="middle" x="175" y="-7" font-family="Helvetica,sans-Serif" font-size="10.00">limits.h</text>
</a>
</g>
</g>
<!-- Node1&#45;&gt;Node4 -->
<g id="edge3_Node000001_Node000004" class="edge">
<title>Node1&#45;&gt;Node4</title>
<g id="a_edge3_Node000001_Node000004"><a xlink:title=" ">
<path fill="none" stroke="#63b8ff" d="M250.79,-116.36C222.25,-112.56 182.66,-102.18 163,-74 153.69,-60.66 158.78,-42.05 164.94,-28.43"/>
<polygon fill="#63b8ff" stroke="#63b8ff" points="168.24,-29.65 169.64,-19.15 162,-26.49 168.24,-29.65"/>
</a>
</g>
</g>
<!-- Node5 -->
<g id="Node000005" class="node">
<title>Node5</title>
<g id="a_Node000005"><a xlink:title=" ">
<polygon fill="#e0e0e0" stroke="#999999" points="352,-19 302,-19 302,0 352,0 352,-19"/>
<text text-anchor="middle" x="327" y="-7" font-family="Helvetica,sans-Serif" font-size="10.00">stdio.h</text>
</a>
</g>
</g>
<!-- Node1&#45;&gt;Node5 -->
<g id="edge4_Node000001_Node000005" class="edge">
<title>Node1&#45;&gt;Node5</title>
<g id="a_edge4_Node000001_Node000005"><a xlink:title=" ">
<path fill="none" stroke="#63b8ff" d="M317,-114.5C341.97,-109.55 374.64,-98.52 391,-74 404.21,-54.2 379.15,-35.52 356.62,-23.61"/>
<polygon fill="#63b8ff" stroke="#63b8ff" points="358.07,-20.43 347.56,-19.09 354.94,-26.69 358.07,-20.43"/>
</a>
</g>
</g>
<!-- Node6 -->
<g id="Node000006" class="node">
<title>Node6</title>
<g id="a_Node000006"><a xlink:title=" ">
<polygon fill="#e0e0e0" stroke="#999999" points="310.5,-74 257.5,-74 257.5,-55 310.5,-55 310.5,-74"/>
<text text-anchor="middle" x="284" y="-62" font-family="Helvetica,sans-Serif" font-size="10.00">stdlib.h</text>
</a>
</g>
</g>
<!-- Node1&#45;&gt;Node6 -->
<g id="edge5_Node000001_Node000006" class="edge">
<title>Node1&#45;&gt;Node6</title>
<g id="a_edge5_Node000001_Node000006"><a xlink:title=" ">
<path fill="none" stroke="#63b8ff" d="M284,-109.75C284,-102.8 284,-92.85 284,-84.13"/>
<polygon fill="#63b8ff" stroke="#63b8ff" points="287.5,-84.09 284,-74.09 280.5,-84.09 287.5,-84.09"/>
</a>
</g>
</g>
<!-- Node7 -->
<g id="Node000007" class="node">
<title>Node7</title>
<g id="a_Node000007"><a xlink:title=" ">
<polygon fill="#e0e0e0" stroke="#999999" points="381.5,-74 328.5,-74 328.5,-55 381.5,-55 381.5,-74"/>
<text text-anchor="middle" x="355" y="-62" font-family="Helvetica,sans-Serif" font-size="10.00">string.h</text>
</a>
</g>
</g>
<!-- Node1&#45;&gt;Node7 -->
<g id="edge6_Node000001_Node000007" class="edge">
<title>Node1&#45;&gt;Node7</title>
<g id="a_edge6_Node000001_Node000007"><a xlink:title=" ">
<path fill="none" stroke="#63b8ff" d="M295.41,-109.98C306.11,-102 322.34,-89.88 335.16,-80.31"/>
<polygon fill="#63b8ff" stroke="#63b8ff" points="337.47,-82.96 343.39,-74.17 333.28,-77.35 337.47,-82.96"/>
</a>
</g>
</g>
<!-- Node8 -->
<g id="Node000008" class="node">
<title>Node8</title>
<g id="a_Node000008"><a xlink:href="../../d1/d9d/file__utils_8h.html" target="_top" xlink:title="Utility functions for files operations.">
<polygon fill="white" stroke="#666666" points="239.5,-74 172.5,-74 172.5,-55 239.5,-55 239.5,-74"/>
<text text-anchor="middle" x="206" y="-62" font-family="Helvetica,sans-Serif" font-size="10.00">file_utils.h</text>
</a>
</g>
</g>
<!-- Node1&#45;&gt;Node8 -->
<g id="edge7_Node000001_Node000008" class="edge">
<title>Node1&#45;&gt;Node8</title>
<g id="a_edge7_Node000001_Node000008"><a xlink:title=" ">
<path fill="none" stroke="#63b8ff" d="M271.47,-109.98C259.6,-101.92 241.54,-89.65 227.39,-80.03"/>
<polygon fill="#63b8ff" stroke="#63b8ff" points="229,-76.9 218.76,-74.17 225.06,-82.69 229,-76.9"/>
</a>
</g>
</g>
<!-- Node9 -->
<g id="Node000009" class="node">
<title>Node9</title>
<g id="a_Node000009"><a xlink:href="../../d4/ddb/hash__table_8h.html" target="_top" xlink:title="Simple fixed&#45;size chained hash table for word lookup.">
<polygon fill="white" stroke="#666666" points="517.5,-74 438.5,-74 438.5,-55 517.5,-55 517.5,-74"/>
<text text-anchor="middle" x="478" y="-62" font-family="Helvetica,sans-Serif" font-size="10.00">hash_table.h</text>
</a>
</g>
</g>
<!-- Node1&#45;&gt;Node9 -->
<g id="edge10_Node000001_Node000009" class="edge">
<title>Node1&#45;&gt;Node9</title>
<g id="a_edge10_Node000001_Node000009"><a xlink:title=" ">
<path fill="none" stroke="#63b8ff" d="M315.17,-109.98C348.16,-100.97 400.4,-86.7 436.77,-76.76"/>
<polygon fill="#63b8ff" stroke="#63b8ff" points="437.86,-80.09 446.59,-74.08 436.02,-73.34 437.86,-80.09"/>
</a>
</g>
</g>
<!-- Node10 -->
<g id="Node000010" class="node">
<title>Node10</title>
<g id="a_Node000010"><a xlink:href="../../d2/d81/msg__consts_8h.html" target="_top" xlink:title="Constants for MPI messaging and buffer sizes.">
<polygon fill="white" stroke="#666666" points="618.5,-74 535.5,-74 535.5,-55 618.5,-55 618.5,-74"/>
<text text-anchor="middle" x="577" y="-62" font-family="Helvetica,sans-Serif" font-size="10.00">msg_consts.h</text>
</a>
</g>
</g>
<!-- Node1&#45;&gt;Node10 -->
<g id="edge11_Node000001_Node000010" class="edge">
<title>Node1&#45;&gt;Node10</title>
<g id="a_edge11_Node000001_Node000010"><a xlink:title=" ">
<path fill="none" stroke="#63b8ff" d="M317.04,-112.52C367.69,-103.36 464.96,-85.77 525.09,-74.89"/>
<polygon fill="#63b8ff" stroke="#63b8ff" points="525.92,-78.3 535.13,-73.07 524.67,-71.41 525.92,-78.3"/>
</a>
</g>
</g>
<!-- Node8&#45;&gt;Node4 -->
<g id="edge8_Node000008_Node000004" class="edge">
<title>Node8&#45;&gt;Node4</title>
<g id="a_edge8_Node000008_Node000004"><a xlink:title=" ">
<path fill="none" stroke="#63b8ff" d="M200.88,-54.75C196.64,-47.49 190.47,-36.95 185.22,-27.98"/>
<polygon fill="#63b8ff" stroke="#63b8ff" points="188.09,-25.95 180.02,-19.09 182.05,-29.49 188.09,-25.95"/>
</a>
</g>
</g>
<!-- Node8&#45;&gt;Node5 -->
<g id="edge9_Node000008_Node000005" class="edge">
<title>Node8&#45;&gt;Node5</title>
<g id="a_edge9_Node000008_Node000005"><a xlink:title=" ">
<path fill="none" stroke="#63b8ff" d="M225.44,-54.98C244.99,-46.42 275.38,-33.11 297.82,-23.28"/>
<polygon fill="#63b8ff" stroke="#63b8ff" points="299.45,-26.39 307.21,-19.17 296.64,-19.98 299.45,-26.39"/>
</a>
</g>
</g>
</g>
</svg>
