<?xml version="1.0" encoding="UTF-8" standalone="no"?>
<!DOCTYPE svg PUBLIC "-//W3C//DTD SVG 1.1//EN"
 "http://www.w3.org/Graphics/SVG/1.1/DTD/svg11.dtd">
<!-- Generated by graphviz version 2.43.0 (0)
 -->
<!-- Title: worker.h Pages: 1 -->
<svg width="134pt" height="82pt"
 viewBox="0.00 0.00 133.50 82.00" xmlns="http://www.w3.org/2000/svg" xmlns:xlink="http://www.w3.org/1999/xlink">
<g id="graph0" class="graph" transform="scale(1 1) rotate(0) translate(4 78)">
<title>worker.h</title>
<!-- Node1 -->
<g id="Node000001" class="node">
<title>Node1</title>
<g id="a_Node000001"><a xlink:title="Interface for worker process.">
<polygon fill="#999999" stroke="#666666" points="90,-74 32,-74 32,-55 90,-55 90,-74"/>
<text text-anchor="middle" x="61" y="-62" font-family="Helvetica,sans-Serif" font-size="10.00">worker.h</text>
</a>
</g>
</g>
<!-- Node2 -->
<g id="Node000002" class="node">
<title>Node2</title>
<g id="a_Node000002"><a xlink:href="../../d0/d29/main_8c.html" target="_top" xlink:title="Entry point for the GASPI&#45;based document classifier.">
<polygon fill="white" stroke="#666666" points="50,-19 0,-19 0,0 50,0 50,-19"/>
<text text-anchor="middle" x="25" y="-7" font-family="Helvetica,sans-Serif" font-size="10.00">main.c</text>
</a>
</g>
</g>
<!-- Node1&#45;&gt;Node2 -->
<g id="edge1_Node000001_Node000002" class="edge">
<title>Node1&#45;&gt;Node2</title>
<g id="a_edge1_Node000001_Node000002"><a xlink:title=" ">
<path fill="none" stroke="#63b8ff" d="M49.38,-46.39C43.18,-37.27 35.83,-26.45 30.83,-19.09"/>
<polygon fill="#63b8ff" stroke="#63b8ff" points="46.54,-48.44 55.06,-54.75 52.33,-44.51 46.54,-48.44"/>
</a>
</g>
</g>
<!-- Node3 -->
<g id="Node000003" class="node">
<title>Node3</title>
<g id="a_Node000003"><a xlink:href="../../dc/d8e/worker_8c.html" target="_top" xlink:title="Logic for a worker process participating in distributed document classification.">
<polygon fill="white" stroke="#666666" points="125.5,-19 68.5,-19 68.5,0 125.5,0 125.5,-19"/>
<text text-anchor="middle" x="97" y="-7" font-family="Helvetica,sans-Serif" font-size="10.00">worker.c</text>
</a>
</g>
</g>
<!-- Node1&#45;&gt;Node3 -->
<g id="edge2_Node000001_Node000003" class="edge">
<title>Node1&#45;&gt;Node3</title>
<g id="a_edge2_Node000001_Node000003"><a xlink:title=" ">
<path fill="none" stroke="#63b8ff" d="M72.62,-46.39C78.82,-37.27 86.17,-26.45 91.17,-19.09"/>
<polygon fill="#63b8ff" stroke="#63b8ff" points="69.67,-44.51 66.94,-54.75 75.46,-48.44 69.67,-44.51"/>
</a>
</g>
</g>
</g>
</svg>
