<?xml version="1.0" encoding="UTF-8" standalone="no"?>
<!DOCTYPE svg PUBLIC "-//W3C//DTD SVG 1.1//EN"
 "http://www.w3.org/Graphics/SVG/1.1/DTD/svg11.dtd">
<!-- Generated by graphviz version 2.43.0 (0)
 -->
<!-- Title: msg_consts.h Pages: 1 -->
<svg width="322pt" height="82pt"
 viewBox="0.00 0.00 321.50 82.00" xmlns="http://www.w3.org/2000/svg" xmlns:xlink="http://www.w3.org/1999/xlink">
<g id="graph0" class="graph" transform="scale(1 1) rotate(0) translate(4 78)">
<title>msg_consts.h</title>
<!-- Node1 -->
<g id="Node000001" class="node">
<title>Node1</title>
<g id="a_Node000001"><a xlink:title="Constants for MPI messaging and buffer sizes.">
<polygon fill="#999999" stroke="#666666" points="202.5,-74 119.5,-74 119.5,-55 202.5,-55 202.5,-74"/>
<text text-anchor="middle" x="161" y="-62" font-family="Helvetica,sans-Serif" font-size="10.00">msg_consts.h</text>
</a>
</g>
</g>
<!-- Node2 -->
<g id="Node000002" class="node">
<title>Node2</title>
<g id="a_Node000002"><a xlink:href="../../d0/db9/classifier_8c.html" target="_top" xlink:title="Implements document classification using tokenization and a hash table.">
<polygon fill="white" stroke="#666666" points="68,-19 0,-19 0,0 68,0 68,-19"/>
<text text-anchor="middle" x="34" y="-7" font-family="Helvetica,sans-Serif" font-size="10.00">classifier.c</text>
</a>
</g>
</g>
<!-- Node1&#45;&gt;Node2 -->
<g id="edge1_Node000001_Node000002" class="edge">
<title>Node1&#45;&gt;Node2</title>
<g id="a_edge1_Node000001_Node000002"><a xlink:title=" ">
<path fill="none" stroke="#63b8ff" d="M131.12,-51.03C107.63,-41.23 75.53,-27.83 54.78,-19.17"/>
<polygon fill="#63b8ff" stroke="#63b8ff" points="130.02,-54.36 140.6,-54.98 132.71,-47.9 130.02,-54.36"/>
</a>
</g>
</g>
<!-- Node3 -->
<g id="Node000003" class="node">
<title>Node3</title>
<g id="a_Node000003"><a xlink:href="../../d5/d5e/file__utils_8c.html" target="_top" xlink:title="File reading, dictionary parsing, and dictionary broadcasting over MPI.">
<polygon fill="white" stroke="#666666" points="152,-19 86,-19 86,0 152,0 152,-19"/>
<text text-anchor="middle" x="119" y="-7" font-family="Helvetica,sans-Serif" font-size="10.00">file_utils.c</text>
</a>
</g>
</g>
<!-- Node1&#45;&gt;Node3 -->
<g id="edge2_Node000001_Node000003" class="edge">
<title>Node1&#45;&gt;Node3</title>
<g id="a_edge2_Node000001_Node000003"><a xlink:title=" ">
<path fill="none" stroke="#63b8ff" d="M147.67,-46.67C140.39,-37.5 131.7,-26.52 125.81,-19.09"/>
<polygon fill="#63b8ff" stroke="#63b8ff" points="145.11,-49.08 154.06,-54.75 150.6,-44.74 145.11,-49.08"/>
</a>
</g>
</g>
<!-- Node4 -->
<g id="Node000004" class="node">
<title>Node4</title>
<g id="a_Node000004"><a xlink:href="../../d4/d10/manager_8c.html" target="_top" xlink:title="Orchestrates the classification by managing worker coordination and output collection.">
<polygon fill="white" stroke="#666666" points="238,-19 170,-19 170,0 238,0 238,-19"/>
<text text-anchor="middle" x="204" y="-7" font-family="Helvetica,sans-Serif" font-size="10.00">manager.c</text>
</a>
</g>
</g>
<!-- Node1&#45;&gt;Node4 -->
<g id="edge3_Node000001_Node000004" class="edge">
<title>Node1&#45;&gt;Node4</title>
<g id="a_edge3_Node000001_Node000004"><a xlink:title=" ">
<path fill="none" stroke="#63b8ff" d="M174.42,-46.96C181.91,-37.72 190.94,-26.6 197.03,-19.09"/>
<polygon fill="#63b8ff" stroke="#63b8ff" points="171.68,-44.78 168.1,-54.75 177.12,-49.19 171.68,-44.78"/>
</a>
</g>
</g>
<!-- Node5 -->
<g id="Node000005" class="node">
<title>Node5</title>
<g id="a_Node000005"><a xlink:href="../../dc/d8e/worker_8c.html" target="_top" xlink:title="Logic for a worker process participating in distributed document classification.">
<polygon fill="white" stroke="#666666" points="313.5,-19 256.5,-19 256.5,0 313.5,0 313.5,-19"/>
<text text-anchor="middle" x="285" y="-7" font-family="Helvetica,sans-Serif" font-size="10.00">worker.c</text>
</a>
</g>
</g>
<!-- Node1&#45;&gt;Node5 -->
<g id="edge4_Node000001_Node000005" class="edge">
<title>Node1&#45;&gt;Node5</title>
<g id="a_edge4_Node000001_Node000005"><a xlink:title=" ">
<path fill="none" stroke="#63b8ff" d="M190.18,-51.03C213.11,-41.23 244.45,-27.83 264.71,-19.17"/>
<polygon fill="#63b8ff" stroke="#63b8ff" points="188.74,-47.84 180.92,-54.98 191.49,-54.27 188.74,-47.84"/>
</a>
</g>
</g>
</g>
</svg>
