<?xml version="1.0" encoding="UTF-8" standalone="no"?>
<!DOCTYPE svg PUBLIC "-//W3C//DTD SVG 1.1//EN"
 "http://www.w3.org/Graphics/SVG/1.1/DTD/svg11.dtd">
<!-- Generated by graphviz version 2.43.0 (0)
 -->
<!-- Title: manager.c Pages: 1 -->
<svg width="603pt" height="137pt"
 viewBox="0.00 0.00 602.50 137.00" xmlns="http://www.w3.org/2000/svg" xmlns:xlink="http://www.w3.org/1999/xlink">
<g id="graph0" class="graph" transform="scale(1 1) rotate(0) translate(4 133)">
<title>manager.c</title>
<!-- Node1 -->
<g id="Node000001" class="node">
<title>Node1</title>
<g id="a_Node000001"><a xlink:title="Orchestrates the classification by managing worker coordination and output collection.">
<polygon fill="#999999" stroke="#666666" points="271,-129 203,-129 203,-110 271,-110 271,-129"/>
<text text-anchor="middle" x="237" y="-117" font-family="Helvetica,sans-Serif" font-size="10.00">manager.c</text>
</a>
</g>
</g>
<!-- Node2 -->
<g id="Node000002" class="node">
<title>Node2</title>
<g id="a_Node000002"><a xlink:title=" ">
<polygon fill="#e0e0e0" stroke="#999999" points="44,-74 0,-74 0,-55 44,-55 44,-74"/>
<text text-anchor="middle" x="22" y="-62" font-family="Helvetica,sans-Serif" font-size="10.00">mpi.h</text>
</a>
</g>
</g>
<!-- Node1&#45;&gt;Node2 -->
<g id="edge1_Node000001_Node000002" class="edge">
<title>Node1&#45;&gt;Node2</title>
<g id="a_edge1_Node000001_Node000002"><a xlink:title=" ">
<path fill="none" stroke="#63b8ff" d="M202.93,-110.1C161.98,-100.01 93.78,-83.2 53.84,-73.35"/>
<polygon fill="#63b8ff" stroke="#63b8ff" points="54.64,-69.94 44.09,-70.95 52.96,-76.74 54.64,-69.94"/>
</a>
</g>
</g>
<!-- Node3 -->
<g id="Node000003" class="node">
<title>Node3</title>
<g id="a_Node000003"><a xlink:title=" ">
<polygon fill="#e0e0e0" stroke="#999999" points="164,-19 114,-19 114,0 164,0 164,-19"/>
<text text-anchor="middle" x="139" y="-7" font-family="Helvetica,sans-Serif" font-size="10.00">stdio.h</text>
</a>
</g>
</g>
<!-- Node1&#45;&gt;Node3 -->
<g id="edge2_Node000001_Node000003" class="edge">
<title>Node1&#45;&gt;Node3</title>
<g id="a_edge2_Node000001_Node000003"><a xlink:title=" ">
<path fill="none" stroke="#63b8ff" d="M202.74,-118.86C168.23,-117.15 116.55,-108.5 91,-74 78.42,-57.01 98.01,-37.65 115.82,-24.82"/>
<polygon fill="#63b8ff" stroke="#63b8ff" points="117.96,-27.6 124.27,-19.09 114.03,-21.81 117.96,-27.6"/>
</a>
</g>
</g>
<!-- Node4 -->
<g id="Node000004" class="node">
<title>Node4</title>
<g id="a_Node000004"><a xlink:title=" ">
<polygon fill="#e0e0e0" stroke="#999999" points="153.5,-74 100.5,-74 100.5,-55 153.5,-55 153.5,-74"/>
<text text-anchor="middle" x="127" y="-62" font-family="Helvetica,sans-Serif" font-size="10.00">stdlib.h</text>
</a>
</g>
</g>
<!-- Node1&#45;&gt;Node4 -->
<g id="edge3_Node000001_Node000004" class="edge">
<title>Node1&#45;&gt;Node4</title>
<g id="a_edge3_Node000001_Node000004"><a xlink:title=" ">
<path fill="none" stroke="#63b8ff" d="M219.33,-109.98C201.71,-101.5 174.42,-88.35 154.07,-78.54"/>
<polygon fill="#63b8ff" stroke="#63b8ff" points="155.52,-75.36 144.99,-74.17 152.48,-81.66 155.52,-75.36"/>
</a>
</g>
</g>
<!-- Node5 -->
<g id="Node000005" class="node">
<title>Node5</title>
<g id="a_Node000005"><a xlink:title=" ">
<polygon fill="#e0e0e0" stroke="#999999" points="224.5,-74 171.5,-74 171.5,-55 224.5,-55 224.5,-74"/>
<text text-anchor="middle" x="198" y="-62" font-family="Helvetica,sans-Serif" font-size="10.00">string.h</text>
</a>
</g>
</g>
<!-- Node1&#45;&gt;Node5 -->
<g id="edge4_Node000001_Node000005" class="edge">
<title>Node1&#45;&gt;Node5</title>
<g id="a_edge4_Node000001_Node000005"><a xlink:title=" ">
<path fill="none" stroke="#63b8ff" d="M230.56,-109.75C225.11,-102.34 217.14,-91.5 210.44,-82.41"/>
<polygon fill="#63b8ff" stroke="#63b8ff" points="213.07,-80.07 204.32,-74.09 207.43,-84.22 213.07,-80.07"/>
</a>
</g>
</g>
<!-- Node6 -->
<g id="Node000006" class="node">
<title>Node6</title>
<g id="a_Node000006"><a xlink:href="../../d1/d9d/file__utils_8h.html" target="_top" xlink:title="Utility functions for files operations.">
<polygon fill="white" stroke="#666666" points="309.5,-74 242.5,-74 242.5,-55 309.5,-55 309.5,-74"/>
<text text-anchor="middle" x="276" y="-62" font-family="Helvetica,sans-Serif" font-size="10.00">file_utils.h</text>
</a>
</g>
</g>
<!-- Node1&#45;&gt;Node6 -->
<g id="edge5_Node000001_Node000006" class="edge">
<title>Node1&#45;&gt;Node6</title>
<g id="a_edge5_Node000001_Node000006"><a xlink:title=" ">
<path fill="none" stroke="#63b8ff" d="M243.44,-109.75C248.89,-102.34 256.86,-91.5 263.56,-82.41"/>
<polygon fill="#63b8ff" stroke="#63b8ff" points="266.57,-84.22 269.68,-74.09 260.93,-80.07 266.57,-84.22"/>
</a>
</g>
</g>
<!-- Node8 -->
<g id="Node000008" class="node">
<title>Node8</title>
<g id="a_Node000008"><a xlink:href="../../d4/ddb/hash__table_8h.html" target="_top" xlink:title="Simple fixed&#45;size chained hash table for word lookup.">
<polygon fill="white" stroke="#666666" points="406.5,-74 327.5,-74 327.5,-55 406.5,-55 406.5,-74"/>
<text text-anchor="middle" x="367" y="-62" font-family="Helvetica,sans-Serif" font-size="10.00">hash_table.h</text>
</a>
</g>
</g>
<!-- Node1&#45;&gt;Node8 -->
<g id="edge8_Node000001_Node000008" class="edge">
<title>Node1&#45;&gt;Node8</title>
<g id="a_edge8_Node000001_Node000008"><a xlink:title=" ">
<path fill="none" stroke="#63b8ff" d="M257.89,-109.98C279.08,-101.34 312.13,-87.87 336.3,-78.02"/>
<polygon fill="#63b8ff" stroke="#63b8ff" points="337.79,-81.19 345.73,-74.17 335.15,-74.7 337.79,-81.19"/>
</a>
</g>
</g>
<!-- Node9 -->
<g id="Node000009" class="node">
<title>Node9</title>
<g id="a_Node000009"><a xlink:href="../../db/d45/manager_8h.html" target="_top" xlink:title="Interface for the manager process.">
<polygon fill="white" stroke="#666666" points="493,-74 425,-74 425,-55 493,-55 493,-74"/>
<text text-anchor="middle" x="459" y="-62" font-family="Helvetica,sans-Serif" font-size="10.00">manager.h</text>
</a>
</g>
</g>
<!-- Node1&#45;&gt;Node9 -->
<g id="edge9_Node000001_Node000009" class="edge">
<title>Node1&#45;&gt;Node9</title>
<g id="a_edge9_Node000001_Node000009"><a xlink:title=" ">
<path fill="none" stroke="#63b8ff" d="M271.2,-110.33C309.82,-101.11 372.77,-86.09 415.02,-76"/>
<polygon fill="#63b8ff" stroke="#63b8ff" points="415.85,-79.4 424.76,-73.67 414.22,-72.59 415.85,-79.4"/>
</a>
</g>
</g>
<!-- Node10 -->
<g id="Node000010" class="node">
<title>Node10</title>
<g id="a_Node000010"><a xlink:href="../../d2/d81/msg__consts_8h.html" target="_top" xlink:title="Constants for MPI messaging and buffer sizes.">
<polygon fill="white" stroke="#666666" points="594.5,-74 511.5,-74 511.5,-55 594.5,-55 594.5,-74"/>
<text text-anchor="middle" x="553" y="-62" font-family="Helvetica,sans-Serif" font-size="10.00">msg_consts.h</text>
</a>
</g>
</g>
<!-- Node1&#45;&gt;Node10 -->
<g id="edge10_Node000001_Node000010" class="edge">
<title>Node1&#45;&gt;Node10</title>
<g id="a_edge10_Node000001_Node000010"><a xlink:title=" ">
<path fill="none" stroke="#63b8ff" d="M271.12,-112.78C326.49,-103.49 436.25,-85.08 501.26,-74.18"/>
<polygon fill="#63b8ff" stroke="#63b8ff" points="502.02,-77.6 511.3,-72.49 500.86,-70.7 502.02,-77.6"/>
</a>
</g>
</g>
<!-- Node6&#45;&gt;Node3 -->
<g id="edge7_Node000006_Node000003" class="edge">
<title>Node6&#45;&gt;Node3</title>
<g id="a_edge7_Node000006_Node000003"><a xlink:title=" ">
<path fill="none" stroke="#63b8ff" d="M253.99,-54.98C231.55,-46.3 196.52,-32.75 171.01,-22.88"/>
<polygon fill="#63b8ff" stroke="#63b8ff" points="172,-19.51 161.41,-19.17 169.48,-26.04 172,-19.51"/>
</a>
</g>
</g>
<!-- Node7 -->
<g id="Node000007" class="node">
<title>Node7</title>
<g id="a_Node000007"><a xlink:title=" ">
<polygon fill="#e0e0e0" stroke="#999999" points="302.5,-19 249.5,-19 249.5,0 302.5,0 302.5,-19"/>
<text text-anchor="middle" x="276" y="-7" font-family="Helvetica,sans-Serif" font-size="10.00">limits.h</text>
</a>
</g>
</g>
<!-- Node6&#45;&gt;Node7 -->
<g id="edge6_Node000006_Node000007" class="edge">
<title>Node6&#45;&gt;Node7</title>
<g id="a_edge6_Node000006_Node000007"><a xlink:title=" ">
<path fill="none" stroke="#63b8ff" d="M276,-54.75C276,-47.8 276,-37.85 276,-29.13"/>
<polygon fill="#63b8ff" stroke="#63b8ff" points="279.5,-29.09 276,-19.09 272.5,-29.09 279.5,-29.09"/>
</a>
</g>
</g>
</g>
</svg>
