<?xml version="1.0" encoding="UTF-8" standalone="no"?>
<!DOCTYPE svg PUBLIC "-//W3C//DTD SVG 1.1//EN"
 "http://www.w3.org/Graphics/SVG/1.1/DTD/svg11.dtd">
<!-- Generated by graphviz version 2.43.0 (0)
 -->
<!-- Title: manager.c Pages: 1 -->
<svg width="690pt" height="137pt"
 viewBox="0.00 0.00 690.00 137.00" xmlns="http://www.w3.org/2000/svg" xmlns:xlink="http://www.w3.org/1999/xlink">
<g id="graph0" class="graph" transform="scale(1 1) rotate(0) translate(4 133)">
<title>manager.c</title>
<!-- Node1 -->
<g id="Node000001" class="node">
<title>Node1</title>
<g id="a_Node000001"><a xlink:title="Orchestrates the classification by managing worker coordination and output collection.">
<polygon fill="#999999" stroke="#666666" points="319.5,-129 251.5,-129 251.5,-110 319.5,-110 319.5,-129"/>
<text text-anchor="middle" x="285.5" y="-117" font-family="Helvetica,sans-Serif" font-size="10.00">manager.c</text>
</a>
</g>
</g>
<!-- Node2 -->
<g id="Node000002" class="node">
<title>Node2</title>
<g id="a_Node000002"><a xlink:title=" ">
<polygon fill="#e0e0e0" stroke="#999999" points="55,-19 0,-19 0,0 55,0 55,-19"/>
<text text-anchor="middle" x="27.5" y="-7" font-family="Helvetica,sans-Serif" font-size="10.00">GASPI.h</text>
</a>
</g>
</g>
<!-- Node1&#45;&gt;Node2 -->
<g id="edge1_Node000001_Node000002" class="edge">
<title>Node1&#45;&gt;Node2</title>
<g id="a_edge1_Node000001_Node000002"><a xlink:title=" ">
<path fill="none" stroke="#63b8ff" d="M251.15,-119.37C205.52,-118.88 124.21,-112.1 68.5,-74 52.29,-62.91 41.02,-43.08 34.45,-28.53"/>
<polygon fill="#63b8ff" stroke="#63b8ff" points="37.58,-26.94 30.5,-19.06 31.12,-29.63 37.58,-26.94"/>
</a>
</g>
</g>
<!-- Node3 -->
<g id="Node000003" class="node">
<title>Node3</title>
<g id="a_Node000003"><a xlink:title=" ">
<polygon fill="#e0e0e0" stroke="#999999" points="218,-19 165,-19 165,0 218,0 218,-19"/>
<text text-anchor="middle" x="191.5" y="-7" font-family="Helvetica,sans-Serif" font-size="10.00">limits.h</text>
</a>
</g>
</g>
<!-- Node1&#45;&gt;Node3 -->
<g id="edge2_Node000001_Node000003" class="edge">
<title>Node1&#45;&gt;Node3</title>
<g id="a_edge2_Node000001_Node000003"><a xlink:title=" ">
<path fill="none" stroke="#63b8ff" d="M262.73,-109.99C246.3,-102.75 224.77,-90.84 211.5,-74 201.33,-61.09 196.29,-42.93 193.81,-29.34"/>
<polygon fill="#63b8ff" stroke="#63b8ff" points="197.24,-28.57 192.28,-19.21 190.32,-29.62 197.24,-28.57"/>
</a>
</g>
</g>
<!-- Node4 -->
<g id="Node000004" class="node">
<title>Node4</title>
<g id="a_Node000004"><a xlink:title=" ">
<polygon fill="#e0e0e0" stroke="#999999" points="349.5,-19 299.5,-19 299.5,0 349.5,0 349.5,-19"/>
<text text-anchor="middle" x="324.5" y="-7" font-family="Helvetica,sans-Serif" font-size="10.00">stdio.h</text>
</a>
</g>
</g>
<!-- Node1&#45;&gt;Node4 -->
<g id="edge3_Node000001_Node000004" class="edge">
<title>Node1&#45;&gt;Node4</title>
<g id="a_edge3_Node000001_Node000004"><a xlink:title=" ">
<path fill="none" stroke="#63b8ff" d="M317.71,-109.92C335.75,-103.29 356.73,-92.09 367.5,-74 377.67,-56.91 361.34,-38.15 345.97,-25.48"/>
<polygon fill="#63b8ff" stroke="#63b8ff" points="347.76,-22.45 337.7,-19.12 343.49,-28 347.76,-22.45"/>
</a>
</g>
</g>
<!-- Node5 -->
<g id="Node000005" class="node">
<title>Node5</title>
<g id="a_Node000005"><a xlink:title=" ">
<polygon fill="#e0e0e0" stroke="#999999" points="140,-19 87,-19 87,0 140,0 140,-19"/>
<text text-anchor="middle" x="113.5" y="-7" font-family="Helvetica,sans-Serif" font-size="10.00">stdlib.h</text>
</a>
</g>
</g>
<!-- Node1&#45;&gt;Node5 -->
<g id="edge4_Node000001_Node000005" class="edge">
<title>Node1&#45;&gt;Node5</title>
<g id="a_edge4_Node000001_Node000005"><a xlink:title=" ">
<path fill="none" stroke="#63b8ff" d="M251.17,-116.28C197.62,-112.03 98.09,-100.67 76.5,-74 64.24,-58.85 79.78,-39.18 94.31,-25.77"/>
<polygon fill="#63b8ff" stroke="#63b8ff" points="96.82,-28.22 102.09,-19.04 92.24,-22.93 96.82,-28.22"/>
</a>
</g>
</g>
<!-- Node6 -->
<g id="Node000006" class="node">
<title>Node6</title>
<g id="a_Node000006"><a xlink:title=" ">
<polygon fill="#e0e0e0" stroke="#999999" points="273,-74 220,-74 220,-55 273,-55 273,-74"/>
<text text-anchor="middle" x="246.5" y="-62" font-family="Helvetica,sans-Serif" font-size="10.00">string.h</text>
</a>
</g>
</g>
<!-- Node1&#45;&gt;Node6 -->
<g id="edge5_Node000001_Node000006" class="edge">
<title>Node1&#45;&gt;Node6</title>
<g id="a_edge5_Node000001_Node000006"><a xlink:title=" ">
<path fill="none" stroke="#63b8ff" d="M279.06,-109.75C273.61,-102.34 265.64,-91.5 258.94,-82.41"/>
<polygon fill="#63b8ff" stroke="#63b8ff" points="261.57,-80.07 252.82,-74.09 255.93,-84.22 261.57,-80.07"/>
</a>
</g>
</g>
<!-- Node7 -->
<g id="Node000007" class="node">
<title>Node7</title>
<g id="a_Node000007"><a xlink:href="../../d1/d9d/file__utils_8h.html" target="_top" xlink:title="Utility functions for files operations.">
<polygon fill="white" stroke="#666666" points="358,-74 291,-74 291,-55 358,-55 358,-74"/>
<text text-anchor="middle" x="324.5" y="-62" font-family="Helvetica,sans-Serif" font-size="10.00">file_utils.h</text>
</a>
</g>
</g>
<!-- Node1&#45;&gt;Node7 -->
<g id="edge6_Node000001_Node000007" class="edge">
<title>Node1&#45;&gt;Node7</title>
<g id="a_edge6_Node000001_Node000007"><a xlink:title=" ">
<path fill="none" stroke="#63b8ff" d="M291.94,-109.75C297.39,-102.34 305.36,-91.5 312.06,-82.41"/>
<polygon fill="#63b8ff" stroke="#63b8ff" points="315.07,-84.22 318.18,-74.09 309.43,-80.07 315.07,-84.22"/>
</a>
</g>
</g>
<!-- Node8 -->
<g id="Node000008" class="node">
<title>Node8</title>
<g id="a_Node000008"><a xlink:href="../../df/df9/gaspi__utils_8h.html" target="_top" xlink:title="Utility macros and functions for GASPI error handling.">
<polygon fill="white" stroke="#666666" points="163.5,-74 85.5,-74 85.5,-55 163.5,-55 163.5,-74"/>
<text text-anchor="middle" x="124.5" y="-62" font-family="Helvetica,sans-Serif" font-size="10.00">gaspi_utils.h</text>
</a>
</g>
</g>
<!-- Node1&#45;&gt;Node8 -->
<g id="edge9_Node000001_Node000008" class="edge">
<title>Node1&#45;&gt;Node8</title>
<g id="a_edge9_Node000001_Node000008"><a xlink:title=" ">
<path fill="none" stroke="#63b8ff" d="M259.63,-109.98C232.72,-101.13 190.38,-87.19 160.27,-77.28"/>
<polygon fill="#63b8ff" stroke="#63b8ff" points="161.16,-73.88 150.57,-74.08 158.97,-80.53 161.16,-73.88"/>
</a>
</g>
</g>
<!-- Node9 -->
<g id="Node000009" class="node">
<title>Node9</title>
<g id="a_Node000009"><a xlink:href="../../d4/ddb/hash__table_8h.html" target="_top" xlink:title="Simple fixed&#45;size chained hash table for word lookup.">
<polygon fill="white" stroke="#666666" points="494,-74 415,-74 415,-55 494,-55 494,-74"/>
<text text-anchor="middle" x="454.5" y="-62" font-family="Helvetica,sans-Serif" font-size="10.00">hash_table.h</text>
</a>
</g>
</g>
<!-- Node1&#45;&gt;Node9 -->
<g id="edge14_Node000001_Node000009" class="edge">
<title>Node1&#45;&gt;Node9</title>
<g id="a_edge14_Node000001_Node000009"><a xlink:title=" ">
<path fill="none" stroke="#63b8ff" d="M312.65,-109.98C341.03,-101.09 385.73,-87.07 417.36,-77.15"/>
<polygon fill="#63b8ff" stroke="#63b8ff" points="418.64,-80.41 427.13,-74.08 416.55,-73.73 418.64,-80.41"/>
</a>
</g>
</g>
<!-- Node10 -->
<g id="Node000010" class="node">
<title>Node10</title>
<g id="a_Node000010"><a xlink:href="../../db/d45/manager_8h.html" target="_top" xlink:title="Interface for the manager process.">
<polygon fill="white" stroke="#666666" points="580.5,-74 512.5,-74 512.5,-55 580.5,-55 580.5,-74"/>
<text text-anchor="middle" x="546.5" y="-62" font-family="Helvetica,sans-Serif" font-size="10.00">manager.h</text>
</a>
</g>
</g>
<!-- Node1&#45;&gt;Node10 -->
<g id="edge15_Node000001_Node000010" class="edge">
<title>Node1&#45;&gt;Node10</title>
<g id="a_edge15_Node000001_Node000010"><a xlink:title=" ">
<path fill="none" stroke="#63b8ff" d="M319.62,-111.57C366.52,-102.05 450.92,-84.91 502.51,-74.43"/>
<polygon fill="#63b8ff" stroke="#63b8ff" points="503.27,-77.85 512.37,-72.43 501.87,-70.99 503.27,-77.85"/>
</a>
</g>
</g>
<!-- Node11 -->
<g id="Node000011" class="node">
<title>Node11</title>
<g id="a_Node000011"><a xlink:href="../../d2/d81/msg__consts_8h.html" target="_top" xlink:title="Constants for GASPI messaging and buffer sizes.">
<polygon fill="white" stroke="#666666" points="682,-74 599,-74 599,-55 682,-55 682,-74"/>
<text text-anchor="middle" x="640.5" y="-62" font-family="Helvetica,sans-Serif" font-size="10.00">msg_consts.h</text>
</a>
</g>
</g>
<!-- Node1&#45;&gt;Node11 -->
<g id="edge16_Node000001_Node000011" class="edge">
<title>Node1&#45;&gt;Node11</title>
<g id="a_edge16_Node000001_Node000011"><a xlink:title=" ">
<path fill="none" stroke="#63b8ff" d="M319.73,-113.72C374.28,-106.04 484.57,-90.32 588.71,-74.1"/>
<polygon fill="#63b8ff" stroke="#63b8ff" points="589.42,-77.53 598.76,-72.53 588.34,-70.61 589.42,-77.53"/>
</a>
</g>
</g>
<!-- Node7&#45;&gt;Node3 -->
<g id="edge7_Node000007_Node000003" class="edge">
<title>Node7&#45;&gt;Node3</title>
<g id="a_edge7_Node000007_Node000003"><a xlink:title=" ">
<path fill="none" stroke="#63b8ff" d="M303.13,-54.98C281.35,-46.3 247.34,-32.75 222.58,-22.88"/>
<polygon fill="#63b8ff" stroke="#63b8ff" points="223.84,-19.62 213.26,-19.17 221.25,-26.12 223.84,-19.62"/>
</a>
</g>
</g>
<!-- Node7&#45;&gt;Node4 -->
<g id="edge8_Node000007_Node000004" class="edge">
<title>Node7&#45;&gt;Node4</title>
<g id="a_edge8_Node000007_Node000004"><a xlink:title=" ">
<path fill="none" stroke="#63b8ff" d="M324.5,-54.75C324.5,-47.8 324.5,-37.85 324.5,-29.13"/>
<polygon fill="#63b8ff" stroke="#63b8ff" points="328,-29.09 324.5,-19.09 321,-29.09 328,-29.09"/>
</a>
</g>
</g>
<!-- Node8&#45;&gt;Node2 -->
<g id="edge10_Node000008_Node000002" class="edge">
<title>Node8&#45;&gt;Node2</title>
<g id="a_edge10_Node000008_Node000002"><a xlink:title=" ">
<path fill="none" stroke="#63b8ff" d="M108.92,-54.98C93.73,-46.69 70.4,-33.94 52.6,-24.22"/>
<polygon fill="#63b8ff" stroke="#63b8ff" points="53.82,-20.89 43.37,-19.17 50.47,-27.04 53.82,-20.89"/>
</a>
</g>
</g>
<!-- Node8&#45;&gt;Node3 -->
<g id="edge11_Node000008_Node000003" class="edge">
<title>Node8&#45;&gt;Node3</title>
<g id="a_edge11_Node000008_Node000003"><a xlink:title=" ">
<path fill="none" stroke="#63b8ff" d="M135.26,-54.98C145.27,-47.07 160.39,-35.11 172.43,-25.58"/>
<polygon fill="#63b8ff" stroke="#63b8ff" points="174.87,-28.12 180.54,-19.17 170.53,-22.63 174.87,-28.12"/>
</a>
</g>
</g>
<!-- Node8&#45;&gt;Node4 -->
<g id="edge12_Node000008_Node000004" class="edge">
<title>Node8&#45;&gt;Node4</title>
<g id="a_edge12_Node000008_Node000004"><a xlink:title=" ">
<path fill="none" stroke="#63b8ff" d="M156.63,-54.98C192.97,-45.36 251.94,-29.73 289.44,-19.79"/>
<polygon fill="#63b8ff" stroke="#63b8ff" points="290.64,-23.09 299.41,-17.15 288.85,-16.33 290.64,-23.09"/>
</a>
</g>
</g>
<!-- Node8&#45;&gt;Node5 -->
<g id="edge13_Node000008_Node000005" class="edge">
<title>Node8&#45;&gt;Node5</title>
<g id="a_edge13_Node000008_Node000005"><a xlink:title=" ">
<path fill="none" stroke="#63b8ff" d="M122.68,-54.75C121.24,-47.8 119.18,-37.85 117.37,-29.13"/>
<polygon fill="#63b8ff" stroke="#63b8ff" points="120.74,-28.17 115.28,-19.09 113.89,-29.59 120.74,-28.17"/>
</a>
</g>
</g>
</g>
</svg>
