<?xml version="1.0" encoding="UTF-8" standalone="no"?>
<!DOCTYPE svg PUBLIC "-//W3C//DTD SVG 1.1//EN"
 "http://www.w3.org/Graphics/SVG/1.1/DTD/svg11.dtd">
<!-- Generated by graphviz version 2.43.0 (0)
 -->
<!-- Title: read_dictionary Pages: 1 -->
<svg width="312pt" height="64pt"
 viewBox="0.00 0.00 312.00 64.00" xmlns="http://www.w3.org/2000/svg" xmlns:xlink="http://www.w3.org/1999/xlink">
<g id="graph0" class="graph" transform="scale(1 1) rotate(0) translate(4 60)">
<title>read_dictionary</title>
<!-- Node1 -->
<g id="Node000001" class="node">
<title>Node1</title>
<g id="a_Node000001"><a xlink:title="Reads dictionary and builds global keyword list and hash table.">
<polygon fill="#999999" stroke="#666666" points="92,-37 0,-37 0,-18 92,-18 92,-37"/>
<text text-anchor="middle" x="46" y="-25" font-family="Helvetica,sans-Serif" font-size="10.00">read_dictionary</text>
</a>
</g>
</g>
<!-- Node2 -->
<g id="Node000002" class="node">
<title>Node2</title>
<g id="a_Node000002"><a xlink:href="../../d2/daf/hash__table_8c.html#a02829007f61a93c496676c28e3a4cc60" target="_top" xlink:title="Inserts a keyword into the hash table.">
<polygon fill="white" stroke="#666666" points="202,-56 128,-56 128,-37 202,-37 202,-56"/>
<text text-anchor="middle" x="165" y="-44" font-family="Helvetica,sans-Serif" font-size="10.00">insert_word</text>
</a>
</g>
</g>
<!-- Node1&#45;&gt;Node2 -->
<g id="edge1_Node000001_Node000002" class="edge">
<title>Node1&#45;&gt;Node2</title>
<g id="a_edge1_Node000001_Node000002"><a xlink:title=" ">
<path fill="none" stroke="#63b8ff" d="M92.24,-34.85C100.65,-36.21 109.45,-37.64 117.88,-39.01"/>
<polygon fill="#63b8ff" stroke="#63b8ff" points="117.51,-42.5 127.95,-40.65 118.64,-35.59 117.51,-42.5"/>
</a>
</g>
</g>
<!-- Node4 -->
<g id="Node000004" class="node">
<title>Node4</title>
<g id="a_Node000004"><a xlink:href="../../d2/daf/hash__table_8c.html#a4c463db37a1ef64d9f98543215c06426" target="_top" xlink:title="Converts a string to lowercase in&#45;place.">
<polygon fill="white" stroke="#666666" points="194.5,-19 135.5,-19 135.5,0 194.5,0 194.5,-19"/>
<text text-anchor="middle" x="165" y="-7" font-family="Helvetica,sans-Serif" font-size="10.00">to_lower</text>
</a>
</g>
</g>
<!-- Node1&#45;&gt;Node4 -->
<g id="edge3_Node000001_Node000004" class="edge">
<title>Node1&#45;&gt;Node4</title>
<g id="a_edge3_Node000001_Node000004"><a xlink:title=" ">
<path fill="none" stroke="#63b8ff" d="M92.24,-20.54C103.13,-18.86 114.68,-17.09 125.26,-15.46"/>
<polygon fill="#63b8ff" stroke="#63b8ff" points="126.09,-18.87 135.44,-13.89 125.03,-11.95 126.09,-18.87"/>
</a>
</g>
</g>
<!-- Node3 -->
<g id="Node000003" class="node">
<title>Node3</title>
<g id="a_Node000003"><a xlink:href="../../d2/daf/hash__table_8c.html#ad0fdb05352f003d01650380f878c5059" target="_top" xlink:title="Hash function for a word.">
<polygon fill="white" stroke="#666666" points="304,-56 238,-56 238,-37 304,-37 304,-56"/>
<text text-anchor="middle" x="271" y="-44" font-family="Helvetica,sans-Serif" font-size="10.00">hash_func</text>
</a>
</g>
</g>
<!-- Node2&#45;&gt;Node3 -->
<g id="edge2_Node000002_Node000003" class="edge">
<title>Node2&#45;&gt;Node3</title>
<g id="a_edge2_Node000002_Node000003"><a xlink:title=" ">
<path fill="none" stroke="#63b8ff" d="M202.08,-46.5C210.34,-46.5 219.19,-46.5 227.69,-46.5"/>
<polygon fill="#63b8ff" stroke="#63b8ff" points="227.8,-50 237.8,-46.5 227.8,-43 227.8,-50"/>
</a>
</g>
</g>
</g>
</svg>
