<?xml version="1.0" encoding="UTF-8" standalone="no"?>
<!DOCTYPE svg PUBLIC "-//W3C//DTD SVG 1.1//EN"
 "http://www.w3.org/Graphics/SVG/1.1/DTD/svg11.dtd">
<!-- Generated by graphviz version 2.43.0 (0)
 -->
<!-- Title: open_output_file Pages: 1 -->
<svg width="279pt" height="27pt"
 viewBox="0.00 0.00 279.00 27.00" xmlns="http://www.w3.org/2000/svg" xmlns:xlink="http://www.w3.org/1999/xlink">
<g id="graph0" class="graph" transform="scale(1 1) rotate(0) translate(4 23)">
<title>open_output_file</title>
<!-- Node1 -->
<g id="Node000001" class="node">
<title>Node1</title>
<g id="a_Node000001"><a xlink:title="Opens the result output file for writing.">
<polygon fill="#999999" stroke="#666666" points="271,-19 173,-19 173,0 271,0 271,-19"/>
<text text-anchor="middle" x="222" y="-7" font-family="Helvetica,sans-Serif" font-size="10.00">open_output_file</text>
</a>
</g>
</g>
<!-- Node2 -->
<g id="Node000002" class="node">
<title>Node2</title>
<g id="a_Node000002"><a xlink:href="../../d4/d10/manager_8c.html#a693fc6348be56bfec805d6893f018c42" target="_top" xlink:title="Entry point for the manager process.">
<polygon fill="white" stroke="#666666" points="137,-19 77,-19 77,0 137,0 137,-19"/>
<text text-anchor="middle" x="107" y="-7" font-family="Helvetica,sans-Serif" font-size="10.00">manager</text>
</a>
</g>
</g>
<!-- Node1&#45;&gt;Node2 -->
<g id="edge1_Node000001_Node000002" class="edge">
<title>Node1&#45;&gt;Node2</title>
<g id="a_edge1_Node000001_Node000002"><a xlink:title=" ">
<path fill="none" stroke="#63b8ff" d="M162.74,-9.5C153.86,-9.5 145.03,-9.5 137.14,-9.5"/>
<polygon fill="#63b8ff" stroke="#63b8ff" points="162.75,-13 172.75,-9.5 162.75,-6 162.75,-13"/>
</a>
</g>
</g>
<!-- Node3 -->
<g id="Node000003" class="node">
<title>Node3</title>
<g id="a_Node000003"><a xlink:href="../../d0/d29/main_8c.html#a0ddf1224851353fc92bfbff6f499fa97" target="_top" xlink:title=" ">
<polygon fill="white" stroke="#666666" points="41,-19 0,-19 0,0 41,0 41,-19"/>
<text text-anchor="middle" x="20.5" y="-7" font-family="Helvetica,sans-Serif" font-size="10.00">main</text>
</a>
</g>
</g>
<!-- Node2&#45;&gt;Node3 -->
<g id="edge2_Node000002_Node000003" class="edge">
<title>Node2&#45;&gt;Node3</title>
<g id="a_edge2_Node000002_Node000003"><a xlink:title=" ">
<path fill="none" stroke="#63b8ff" d="M66.66,-9.5C57.77,-9.5 48.71,-9.5 41.07,-9.5"/>
<polygon fill="#63b8ff" stroke="#63b8ff" points="66.92,-13 76.92,-9.5 66.92,-6 66.92,-13"/>
</a>
</g>
</g>
</g>
</svg>
