<?xml version="1.0" encoding="UTF-8" standalone="no"?>
<!DOCTYPE svg PUBLIC "-//W3C//DTD SVG 1.1//EN"
 "http://www.w3.org/Graphics/SVG/1.1/DTD/svg11.dtd">
<!-- Generated by graphviz version 2.43.0 (0)
 -->
<!-- Title: receive_dictionary Pages: 1 -->
<svg width="327pt" height="27pt"
 viewBox="0.00 0.00 327.00 27.00" xmlns="http://www.w3.org/2000/svg" xmlns:xlink="http://www.w3.org/1999/xlink">
<g id="graph0" class="graph" transform="scale(1 1) rotate(0) translate(4 23)">
<title>receive_dictionary</title>
<!-- Node1 -->
<g id="Node000001" class="node">
<title>Node1</title>
<g id="a_Node000001"><a xlink:title="Receives dictionary in a worker and builds local keyword array and hash table.">
<polygon fill="#999999" stroke="#666666" points="107,-19 0,-19 0,0 107,0 107,-19"/>
<text text-anchor="middle" x="53.5" y="-7" font-family="Helvetica,sans-Serif" font-size="10.00">receive_dictionary</text>
</a>
</g>
</g>
<!-- Node2 -->
<g id="Node000002" class="node">
<title>Node2</title>
<g id="a_Node000002"><a xlink:href="../../d2/daf/hash__table_8c.html#a02829007f61a93c496676c28e3a4cc60" target="_top" xlink:title="Inserts a keyword into the hash table.">
<polygon fill="white" stroke="#666666" points="217,-19 143,-19 143,0 217,0 217,-19"/>
<text text-anchor="middle" x="180" y="-7" font-family="Helvetica,sans-Serif" font-size="10.00">insert_word</text>
</a>
</g>
</g>
<!-- Node1&#45;&gt;Node2 -->
<g id="edge1_Node000001_Node000002" class="edge">
<title>Node1&#45;&gt;Node2</title>
<g id="a_edge1_Node000001_Node000002"><a xlink:title=" ">
<path fill="none" stroke="#63b8ff" d="M107.3,-9.5C115.69,-9.5 124.31,-9.5 132.54,-9.5"/>
<polygon fill="#63b8ff" stroke="#63b8ff" points="132.7,-13 142.7,-9.5 132.7,-6 132.7,-13"/>
</a>
</g>
</g>
<!-- Node3 -->
<g id="Node000003" class="node">
<title>Node3</title>
<g id="a_Node000003"><a xlink:href="../../d2/daf/hash__table_8c.html#ad0fdb05352f003d01650380f878c5059" target="_top" xlink:title="Hash function for a word.">
<polygon fill="white" stroke="#666666" points="319,-19 253,-19 253,0 319,0 319,-19"/>
<text text-anchor="middle" x="286" y="-7" font-family="Helvetica,sans-Serif" font-size="10.00">hash_func</text>
</a>
</g>
</g>
<!-- Node2&#45;&gt;Node3 -->
<g id="edge2_Node000002_Node000003" class="edge">
<title>Node2&#45;&gt;Node3</title>
<g id="a_edge2_Node000002_Node000003"><a xlink:title=" ">
<path fill="none" stroke="#63b8ff" d="M217.08,-9.5C225.34,-9.5 234.19,-9.5 242.69,-9.5"/>
<polygon fill="#63b8ff" stroke="#63b8ff" points="242.8,-13 252.8,-9.5 242.8,-6 242.8,-13"/>
</a>
</g>
</g>
</g>
</svg>
