<?xml version="1.0" encoding="UTF-8" standalone="no"?>
<!DOCTYPE svg PUBLIC "-//W3C//DTD SVG 1.1//EN"
 "http://www.w3.org/Graphics/SVG/1.1/DTD/svg11.dtd">
<!-- Generated by graphviz version 2.43.0 (0)
 -->
<!-- Title: DDC_Flow Pages: 1 -->
<svg width="360pt" height="677pt"
 viewBox="0.00 0.00 359.50 677.00" xmlns="http://www.w3.org/2000/svg" xmlns:xlink="http://www.w3.org/1999/xlink">
<g id="graph0" class="graph" transform="scale(1 1) rotate(0) translate(4 673)">
<title>DDC_Flow</title>
<polygon fill="white" stroke="transparent" points="-4,4 -4,-673 355.5,-673 355.5,4 -4,4"/>
<!-- Start -->
<g id="node1" class="node">
<title>Start</title>
<ellipse fill="#f2f2f2" stroke="black" cx="162.5" cy="-651" rx="52.28" ry="18"/>
<text text-anchor="middle" x="162.5" y="-648.5" font-family="Helvetica,sans-Serif" font-size="10.00">Start (MPI_Init)</text>
</g>
<!-- RoleCheck -->
<g id="node2" class="node">
<title>RoleCheck</title>
<polygon fill="lightblue" stroke="black" points="225.5,-596 99.5,-596 99.5,-560 225.5,-560 225.5,-596"/>
<text text-anchor="middle" x="162.5" y="-581" font-family="Helvetica,sans-Serif" font-size="10.00">Check rank</text>
<text text-anchor="middle" x="162.5" y="-570" font-family="Helvetica,sans-Serif" font-size="10.00">(if manager or worker)</text>
</g>
<!-- Start&#45;&gt;RoleCheck -->
<g id="edge1" class="edge">
<title>Start&#45;&gt;RoleCheck</title>
<path fill="none" stroke="black" d="M162.5,-632.81C162.5,-624.79 162.5,-615.05 162.5,-606.07"/>
<polygon fill="black" stroke="black" points="166,-606.03 162.5,-596.03 159,-606.03 166,-606.03"/>
</g>
<!-- M_DictRead -->
<g id="node3" class="node">
<title>M_DictRead</title>
<polygon fill="lightblue" stroke="black" points="140,-509 1,-509 1,-473 140,-473 140,-509"/>
<text text-anchor="middle" x="70.5" y="-488.5" font-family="Helvetica,sans-Serif" font-size="10.00">Manager: read dictionary</text>
</g>
<!-- RoleCheck&#45;&gt;M_DictRead -->
<g id="edge2" class="edge">
<title>RoleCheck&#45;&gt;M_DictRead</title>
<path fill="none" stroke="black" d="M99.34,-565C87.6,-559.85 76.77,-552.5 69.5,-542 64.96,-535.45 63.81,-527.17 64.19,-519.24"/>
<polygon fill="black" stroke="black" points="67.68,-519.55 65.43,-509.2 60.74,-518.69 67.68,-519.55"/>
<text text-anchor="middle" x="152" y="-530.8" font-family="Times,serif" font-size="14.00">if rank 0 then manager</text>
</g>
<!-- W_RecvDict -->
<g id="node9" class="node">
<title>W_RecvDict</title>
<polygon fill="lightblue" stroke="black" points="351.5,-509 159.5,-509 159.5,-473 351.5,-473 351.5,-509"/>
<text text-anchor="middle" x="255.5" y="-488.5" font-family="Helvetica,sans-Serif" font-size="10.00">Worker: receive dictionary via Bcast</text>
</g>
<!-- RoleCheck&#45;&gt;W_RecvDict -->
<g id="edge9" class="edge">
<title>RoleCheck&#45;&gt;W_RecvDict</title>
<path fill="none" stroke="black" d="M210.33,-559.81C219.16,-555.05 227.72,-549.17 234.5,-542 240.67,-535.49 245.15,-526.9 248.35,-518.68"/>
<polygon fill="black" stroke="black" points="251.74,-519.6 251.65,-509 245.11,-517.34 251.74,-519.6"/>
<text text-anchor="middle" x="285.5" y="-530.8" font-family="Times,serif" font-size="14.00">else worker</text>
</g>
<!-- M_BcastDict -->
<g id="node4" class="node">
<title>M_BcastDict</title>
<polygon fill="lightblue" stroke="black" points="165,-436 0,-436 0,-400 165,-400 165,-436"/>
<text text-anchor="middle" x="82.5" y="-415.5" font-family="Helvetica,sans-Serif" font-size="10.00">Manager: broadcast dictionary</text>
</g>
<!-- M_DictRead&#45;&gt;M_BcastDict -->
<g id="edge3" class="edge">
<title>M_DictRead&#45;&gt;M_BcastDict</title>
<path fill="none" stroke="black" d="M73.4,-472.81C74.76,-464.79 76.41,-455.05 77.92,-446.07"/>
<polygon fill="black" stroke="black" points="81.41,-446.47 79.62,-436.03 74.5,-445.31 81.41,-446.47"/>
</g>
<!-- M_ListFiles -->
<g id="node5" class="node">
<title>M_ListFiles</title>
<polygon fill="lightblue" stroke="black" points="158,-363 7,-363 7,-327 158,-327 158,-363"/>
<text text-anchor="middle" x="82.5" y="-342.5" font-family="Helvetica,sans-Serif" font-size="10.00">Manager: list input .txt files</text>
</g>
<!-- M_BcastDict&#45;&gt;M_ListFiles -->
<g id="edge4" class="edge">
<title>M_BcastDict&#45;&gt;M_ListFiles</title>
<path fill="none" stroke="black" d="M82.5,-399.81C82.5,-391.79 82.5,-382.05 82.5,-373.07"/>
<polygon fill="black" stroke="black" points="86,-373.03 82.5,-363.03 79,-373.03 86,-373.03"/>
</g>
<!-- M_AssignWork -->
<g id="node6" class="node">
<title>M_AssignWork</title>
<polygon fill="lightblue" stroke="black" points="208.5,-290 34.5,-290 34.5,-254 208.5,-254 208.5,-290"/>
<text text-anchor="middle" x="121.5" y="-269.5" font-family="Helvetica,sans-Serif" font-size="10.00">Manager: assign files to workers</text>
</g>
<!-- M_ListFiles&#45;&gt;M_AssignWork -->
<g id="edge5" class="edge">
<title>M_ListFiles&#45;&gt;M_AssignWork</title>
<path fill="none" stroke="black" d="M91.94,-326.81C96.54,-318.44 102.17,-308.2 107.27,-298.9"/>
<polygon fill="black" stroke="black" points="110.4,-300.48 112.15,-290.03 104.26,-297.11 110.4,-300.48"/>
</g>
<!-- M_RecvVec -->
<g id="node7" class="node">
<title>M_RecvVec</title>
<polygon fill="lightblue" stroke="black" points="193.5,-182 53.5,-182 53.5,-146 193.5,-146 193.5,-182"/>
<text text-anchor="middle" x="123.5" y="-161.5" font-family="Helvetica,sans-Serif" font-size="10.00">Manager: receive vectors</text>
</g>
<!-- M_AssignWork&#45;&gt;M_RecvVec -->
<g id="edge6" class="edge">
<title>M_AssignWork&#45;&gt;M_RecvVec</title>
<path fill="none" stroke="black" d="M121.82,-253.97C122.13,-237.38 122.62,-211.88 122.98,-192.43"/>
<polygon fill="black" stroke="black" points="126.48,-192.4 123.17,-182.34 119.48,-192.27 126.48,-192.4"/>
</g>
<!-- M_WriteOutput -->
<g id="node8" class="node">
<title>M_WriteOutput</title>
<polygon fill="lightblue" stroke="black" points="207.5,-109 55.5,-109 55.5,-73 207.5,-73 207.5,-109"/>
<text text-anchor="middle" x="131.5" y="-88.5" font-family="Helvetica,sans-Serif" font-size="10.00">Manager: write result to file</text>
</g>
<!-- M_RecvVec&#45;&gt;M_WriteOutput -->
<g id="edge7" class="edge">
<title>M_RecvVec&#45;&gt;M_WriteOutput</title>
<path fill="none" stroke="black" d="M125.44,-145.81C126.34,-137.79 127.44,-128.05 128.45,-119.07"/>
<polygon fill="black" stroke="black" points="131.94,-119.36 129.58,-109.03 124.98,-118.57 131.94,-119.36"/>
</g>
<!-- End -->
<g id="node13" class="node">
<title>End</title>
<ellipse fill="#f2f2f2" stroke="black" cx="184.5" cy="-18" rx="45.15" ry="18"/>
<text text-anchor="middle" x="184.5" y="-15.5" font-family="Helvetica,sans-Serif" font-size="10.00">MPI_Finalize</text>
</g>
<!-- M_WriteOutput&#45;&gt;End -->
<g id="edge8" class="edge">
<title>M_WriteOutput&#45;&gt;End</title>
<path fill="none" stroke="black" d="M144.33,-72.81C150.87,-64.05 158.94,-53.24 166.13,-43.61"/>
<polygon fill="black" stroke="black" points="168.98,-45.65 172.15,-35.54 163.37,-41.46 168.98,-45.65"/>
</g>
<!-- W_RecvFile -->
<g id="node10" class="node">
<title>W_RecvFile</title>
<polygon fill="lightblue" stroke="black" points="320,-436 185,-436 185,-400 320,-400 320,-436"/>
<text text-anchor="middle" x="252.5" y="-415.5" font-family="Helvetica,sans-Serif" font-size="10.00">Worker: receive file path</text>
</g>
<!-- W_RecvDict&#45;&gt;W_RecvFile -->
<g id="edge10" class="edge">
<title>W_RecvDict&#45;&gt;W_RecvFile</title>
<path fill="none" stroke="black" d="M254.77,-472.81C254.43,-464.79 254.02,-455.05 253.64,-446.07"/>
<polygon fill="black" stroke="black" points="257.14,-445.87 253.22,-436.03 250.14,-446.17 257.14,-445.87"/>
</g>
<!-- W_Classify -->
<g id="node11" class="node">
<title>W_Classify</title>
<polygon fill="lightblue" stroke="black" points="323.5,-363 177.5,-363 177.5,-327 323.5,-327 323.5,-363"/>
<text text-anchor="middle" x="250.5" y="-342.5" font-family="Helvetica,sans-Serif" font-size="10.00">Worker: read file &amp; classify</text>
</g>
<!-- W_RecvFile&#45;&gt;W_Classify -->
<g id="edge11" class="edge">
<title>W_RecvFile&#45;&gt;W_Classify</title>
<path fill="none" stroke="black" d="M252.02,-399.81C251.79,-391.79 251.52,-382.05 251.26,-373.07"/>
<polygon fill="black" stroke="black" points="254.76,-372.93 250.98,-363.03 247.76,-373.12 254.76,-372.93"/>
</g>
<!-- W_SendVec -->
<g id="node12" class="node">
<title>W_SendVec</title>
<polygon fill="lightblue" stroke="black" points="328,-236 155,-236 155,-200 328,-200 328,-236"/>
<text text-anchor="middle" x="241.5" y="-215.5" font-family="Helvetica,sans-Serif" font-size="10.00">Worker: send vector to manager</text>
</g>
<!-- W_Classify&#45;&gt;W_SendVec -->
<g id="edge12" class="edge">
<title>W_Classify&#45;&gt;W_SendVec</title>
<path fill="none" stroke="black" d="M249.27,-326.88C247.77,-306.15 245.24,-270.95 243.47,-246.42"/>
<polygon fill="black" stroke="black" points="246.96,-246.04 242.75,-236.31 239.97,-246.54 246.96,-246.04"/>
</g>
<!-- W_SendVec&#45;&gt;End -->
<g id="edge13" class="edge">
<title>W_SendVec&#45;&gt;End</title>
<path fill="none" stroke="black" d="M240.51,-199.63C238.5,-172.03 232.66,-116.8 216.5,-73 212.86,-63.14 207.42,-53.04 202.05,-44.28"/>
<polygon fill="black" stroke="black" points="204.9,-42.24 196.56,-35.71 199.01,-46.02 204.9,-42.24"/>
</g>
</g>
</svg>
