<?xml version="1.0" encoding="UTF-8" standalone="no"?>
<!DOCTYPE svg PUBLIC "-//W3C//DTD SVG 1.1//EN"
 "http://www.w3.org/Graphics/SVG/1.1/DTD/svg11.dtd">
<!-- Generated by graphviz version 2.43.0 (0)
 -->
<!-- Title: file_utils.h Pages: 1 -->
<svg width="236pt" height="82pt"
 viewBox="0.00 0.00 235.50 82.00" xmlns="http://www.w3.org/2000/svg" xmlns:xlink="http://www.w3.org/1999/xlink">
<g id="graph0" class="graph" transform="scale(1 1) rotate(0) translate(4 78)">
<title>file_utils.h</title>
<!-- Node1 -->
<g id="Node000001" class="node">
<title>Node1</title>
<g id="a_Node000001"><a xlink:title="Utility functions for files operations.">
<polygon fill="#999999" stroke="#666666" points="151.5,-74 84.5,-74 84.5,-55 151.5,-55 151.5,-74"/>
<text text-anchor="middle" x="118" y="-62" font-family="Helvetica,sans-Serif" font-size="10.00">file_utils.h</text>
</a>
</g>
</g>
<!-- Node2 -->
<g id="Node000002" class="node">
<title>Node2</title>
<g id="a_Node000002"><a xlink:href="../../d5/d5e/file__utils_8c.html" target="_top" xlink:title="File reading, dictionary parsing, and dictionary broadcasting over MPI.">
<polygon fill="white" stroke="#666666" points="66,-19 0,-19 0,0 66,0 66,-19"/>
<text text-anchor="middle" x="33" y="-7" font-family="Helvetica,sans-Serif" font-size="10.00">file_utils.c</text>
</a>
</g>
</g>
<!-- Node1&#45;&gt;Node2 -->
<g id="edge1_Node000001_Node000002" class="edge">
<title>Node1&#45;&gt;Node2</title>
<g id="a_edge1_Node000001_Node000002"><a xlink:title=" ">
<path fill="none" stroke="#63b8ff" d="M95.43,-49.42C80,-39.81 60.05,-27.37 46.91,-19.17"/>
<polygon fill="#63b8ff" stroke="#63b8ff" points="94.01,-52.66 104.34,-54.98 97.71,-46.72 94.01,-52.66"/>
</a>
</g>
</g>
<!-- Node3 -->
<g id="Node000003" class="node">
<title>Node3</title>
<g id="a_Node000003"><a xlink:href="../../d4/d10/manager_8c.html" target="_top" xlink:title="Orchestrates the classification by managing worker coordination and output collection.">
<polygon fill="white" stroke="#666666" points="152,-19 84,-19 84,0 152,0 152,-19"/>
<text text-anchor="middle" x="118" y="-7" font-family="Helvetica,sans-Serif" font-size="10.00">manager.c</text>
</a>
</g>
</g>
<!-- Node1&#45;&gt;Node3 -->
<g id="edge2_Node000001_Node000003" class="edge">
<title>Node1&#45;&gt;Node3</title>
<g id="a_edge2_Node000001_Node000003"><a xlink:title=" ">
<path fill="none" stroke="#63b8ff" d="M118,-44.66C118,-35.93 118,-25.99 118,-19.09"/>
<polygon fill="#63b8ff" stroke="#63b8ff" points="114.5,-44.75 118,-54.75 121.5,-44.75 114.5,-44.75"/>
</a>
</g>
</g>
<!-- Node4 -->
<g id="Node000004" class="node">
<title>Node4</title>
<g id="a_Node000004"><a xlink:href="../../dc/d8e/worker_8c.html" target="_top" xlink:title="Logic for a worker process participating in distributed document classification.">
<polygon fill="white" stroke="#666666" points="227.5,-19 170.5,-19 170.5,0 227.5,0 227.5,-19"/>
<text text-anchor="middle" x="199" y="-7" font-family="Helvetica,sans-Serif" font-size="10.00">worker.c</text>
</a>
</g>
</g>
<!-- Node1&#45;&gt;Node4 -->
<g id="edge3_Node000001_Node000004" class="edge">
<title>Node1&#45;&gt;Node4</title>
<g id="a_edge3_Node000001_Node000004"><a xlink:title=" ">
<path fill="none" stroke="#63b8ff" d="M139.51,-49.42C154.21,-39.81 173.22,-27.37 185.75,-19.17"/>
<polygon fill="#63b8ff" stroke="#63b8ff" points="137.47,-46.58 131.01,-54.98 141.3,-52.44 137.47,-46.58"/>
</a>
</g>
</g>
</g>
</svg>
