<?xml version="1.0" encoding="UTF-8" standalone="no"?>
<!DOCTYPE svg PUBLIC "-//W3C//DTD SVG 1.1//EN"
 "http://www.w3.org/Graphics/SVG/1.1/DTD/svg11.dtd">
<!-- Generated by graphviz version 2.43.0 (0)
 -->
<!-- Title: main Pages: 1 -->
<svg width="410pt" height="286pt"
 viewBox="0.00 0.00 410.00 286.00" xmlns="http://www.w3.org/2000/svg" xmlns:xlink="http://www.w3.org/1999/xlink">
<g id="graph0" class="graph" transform="scale(1 1) rotate(0) translate(4 282)">
<title>main</title>
<!-- Node1 -->
<g id="Node000001" class="node">
<title>Node1</title>
<g id="a_Node000001"><a xlink:title=" ">
<polygon fill="#999999" stroke="#666666" points="41,-130 0,-130 0,-111 41,-111 41,-130"/>
<text text-anchor="middle" x="20.5" y="-118" font-family="Helvetica,sans-Serif" font-size="10.00">main</text>
</a>
</g>
</g>
<!-- Node2 -->
<g id="Node000002" class="node">
<title>Node2</title>
<g id="a_Node000002"><a xlink:href="../../d4/d10/manager_8c.html#a693fc6348be56bfec805d6893f018c42" target="_top" xlink:title="Entry point for the manager process.">
<polygon fill="white" stroke="#666666" points="137,-185 77,-185 77,-166 137,-166 137,-185"/>
<text text-anchor="middle" x="107" y="-173" font-family="Helvetica,sans-Serif" font-size="10.00">manager</text>
</a>
</g>
</g>
<!-- Node1&#45;&gt;Node2 -->
<g id="edge1_Node000001_Node000002" class="edge">
<title>Node1&#45;&gt;Node2</title>
<g id="a_edge1_Node000001_Node000002"><a xlink:title=" ">
<path fill="none" stroke="#63b8ff" d="M36.22,-130.08C48.98,-138.39 67.69,-150.56 82.52,-160.22"/>
<polygon fill="#63b8ff" stroke="#63b8ff" points="80.88,-163.32 91.17,-165.84 84.69,-157.46 80.88,-163.32"/>
</a>
</g>
</g>
<!-- Node11 -->
<g id="Node000011" class="node">
<title>Node11</title>
<g id="a_Node000011"><a xlink:href="../../dc/d8e/worker_8c.html#a60b3bdb96860f3e67ef2dcc21b7b5c37" target="_top" xlink:title="Entry point for each GASPI worker process.">
<polygon fill="white" stroke="#666666" points="132,-93 82,-93 82,-74 132,-74 132,-93"/>
<text text-anchor="middle" x="107" y="-81" font-family="Helvetica,sans-Serif" font-size="10.00">worker</text>
</a>
</g>
</g>
<!-- Node1&#45;&gt;Node11 -->
<g id="edge9_Node000001_Node000011" class="edge">
<title>Node1&#45;&gt;Node11</title>
<g id="a_edge9_Node000001_Node000011"><a xlink:title=" ">
<path fill="none" stroke="#63b8ff" d="M41.1,-111.92C51.15,-107.52 63.64,-102.05 74.97,-97.09"/>
<polygon fill="#63b8ff" stroke="#63b8ff" points="76.37,-100.29 84.13,-93.08 73.57,-93.88 76.37,-100.29"/>
</a>
</g>
</g>
<!-- Node3 -->
<g id="Node000003" class="node">
<title>Node3</title>
<g id="a_Node000003"><a xlink:href="../../d5/d5e/file__utils_8c.html#a07982d8fbcce521936640f6b39550dad" target="_top" xlink:title="Broadcasts dictionary from manager to workers.">
<polygon fill="white" stroke="#666666" points="292,-278 173,-278 173,-259 292,-259 292,-278"/>
<text text-anchor="middle" x="232.5" y="-266" font-family="Helvetica,sans-Serif" font-size="10.00">broadcast_dictionary</text>
</a>
</g>
</g>
<!-- Node2&#45;&gt;Node3 -->
<g id="edge2_Node000002_Node000003" class="edge">
<title>Node2&#45;&gt;Node3</title>
<g id="a_edge2_Node000002_Node000003"><a xlink:title=" ">
<path fill="none" stroke="#63b8ff" d="M113.74,-185.07C123.77,-201 146.01,-232.91 173,-250.5 175.42,-252.08 177.99,-253.52 180.64,-254.85"/>
<polygon fill="#63b8ff" stroke="#63b8ff" points="179.35,-258.1 189.91,-258.89 182.15,-251.69 179.35,-258.1"/>
</a>
</g>
</g>
<!-- Node4 -->
<g id="Node000004" class="node">
<title>Node4</title>
<g id="a_Node000004"><a xlink:href="../../d2/daf/hash__table_8c.html#a2512fdab32c231a3a2e5621cb1e309c9" target="_top" xlink:title="Frees all allocated hash table entries.">
<polygon fill="white" stroke="#666666" points="282,-130 183,-130 183,-111 282,-111 282,-130"/>
<text text-anchor="middle" x="232.5" y="-118" font-family="Helvetica,sans-Serif" font-size="10.00">clear_hash_table</text>
</a>
</g>
</g>
<!-- Node2&#45;&gt;Node4 -->
<g id="edge3_Node000002_Node000004" class="edge">
<title>Node2&#45;&gt;Node4</title>
<g id="a_edge3_Node000002_Node000004"><a xlink:title=" ">
<path fill="none" stroke="#63b8ff" d="M123.33,-165.9C136.24,-158.1 155.37,-147.16 173,-139.5 178.02,-137.32 183.37,-135.25 188.73,-133.33"/>
<polygon fill="#63b8ff" stroke="#63b8ff" points="189.96,-136.61 198.29,-130.06 187.7,-129.99 189.96,-136.61"/>
</a>
</g>
</g>
<!-- Node5 -->
<g id="Node000005" class="node">
<title>Node5</title>
<g id="a_Node000005"><a xlink:href="../../d5/d5e/file__utils_8c.html#af60f33bb7908850bdcf52ebe9f49d310" target="_top" xlink:title="Lists all .txt files in a directory.">
<polygon fill="white" stroke="#666666" points="270.5,-241 194.5,-241 194.5,-222 270.5,-222 270.5,-241"/>
<text text-anchor="middle" x="232.5" y="-229" font-family="Helvetica,sans-Serif" font-size="10.00">list_txt_files</text>
</a>
</g>
</g>
<!-- Node2&#45;&gt;Node5 -->
<g id="edge4_Node000002_Node000005" class="edge">
<title>Node2&#45;&gt;Node5</title>
<g id="a_edge4_Node000002_Node000005"><a xlink:title=" ">
<path fill="none" stroke="#63b8ff" d="M122.46,-185.26C135.3,-193.61 154.81,-205.51 173,-213.5 177.16,-215.33 181.57,-217.05 186.02,-218.64"/>
<polygon fill="#63b8ff" stroke="#63b8ff" points="185.16,-222.05 195.76,-221.94 187.4,-215.42 185.16,-222.05"/>
</a>
</g>
</g>
<!-- Node6 -->
<g id="Node000006" class="node">
<title>Node6</title>
<g id="a_Node000006"><a xlink:href="../../d5/d5e/file__utils_8c.html#af2d299fe865532706c80ab701585b877" target="_top" xlink:title="Opens the result output file for writing.">
<polygon fill="white" stroke="#666666" points="281.5,-204 183.5,-204 183.5,-185 281.5,-185 281.5,-204"/>
<text text-anchor="middle" x="232.5" y="-192" font-family="Helvetica,sans-Serif" font-size="10.00">open_output_file</text>
</a>
</g>
</g>
<!-- Node2&#45;&gt;Node6 -->
<g id="edge5_Node000002_Node000006" class="edge">
<title>Node2&#45;&gt;Node6</title>
<g id="a_edge5_Node000002_Node000006"><a xlink:title=" ">
<path fill="none" stroke="#63b8ff" d="M137.27,-180C148.07,-181.67 160.74,-183.61 173.21,-185.53"/>
<polygon fill="#63b8ff" stroke="#63b8ff" points="172.72,-189 183.13,-187.06 173.78,-182.08 172.72,-189"/>
</a>
</g>
</g>
<!-- Node7 -->
<g id="Node000007" class="node">
<title>Node7</title>
<g id="a_Node000007"><a xlink:href="../../d5/d5e/file__utils_8c.html#a9cef8f76bf0bbcbbc225ed062b5d8d15" target="_top" xlink:title="Reads dictionary and builds global keyword list and hash table.">
<polygon fill="white" stroke="#666666" points="278.5,-167 186.5,-167 186.5,-148 278.5,-148 278.5,-167"/>
<text text-anchor="middle" x="232.5" y="-155" font-family="Helvetica,sans-Serif" font-size="10.00">read_dictionary</text>
</a>
</g>
</g>
<!-- Node2&#45;&gt;Node7 -->
<g id="edge6_Node000002_Node000007" class="edge">
<title>Node2&#45;&gt;Node7</title>
<g id="a_edge6_Node000002_Node000007"><a xlink:title=" ">
<path fill="none" stroke="#63b8ff" d="M137.27,-171.23C148.86,-169.54 162.59,-167.54 175.94,-165.6"/>
<polygon fill="#63b8ff" stroke="#63b8ff" points="176.63,-169.03 186.02,-164.13 175.62,-162.11 176.63,-169.03"/>
</a>
</g>
</g>
<!-- Node8 -->
<g id="Node000008" class="node">
<title>Node8</title>
<g id="a_Node000008"><a xlink:href="../../d2/daf/hash__table_8c.html#a02829007f61a93c496676c28e3a4cc60" target="_top" xlink:title="Inserts a keyword into the hash table.">
<polygon fill="#fff0f0" stroke="red" points="402,-148 328,-148 328,-129 402,-129 402,-148"/>
<text text-anchor="middle" x="365" y="-136" font-family="Helvetica,sans-Serif" font-size="10.00">insert_word</text>
</a>
</g>
</g>
<!-- Node7&#45;&gt;Node8 -->
<g id="edge7_Node000007_Node000008" class="edge">
<title>Node7&#45;&gt;Node8</title>
<g id="a_edge7_Node000007_Node000008"><a xlink:title=" ">
<path fill="none" stroke="#63b8ff" d="M278.78,-150.91C291.44,-149.06 305.21,-147.06 317.92,-145.21"/>
<polygon fill="#63b8ff" stroke="#63b8ff" points="318.45,-148.67 327.84,-143.76 317.44,-141.74 318.45,-148.67"/>
</a>
</g>
</g>
<!-- Node10 -->
<g id="Node000010" class="node">
<title>Node10</title>
<g id="a_Node000010"><a xlink:href="../../d2/daf/hash__table_8c.html#a4c463db37a1ef64d9f98543215c06426" target="_top" xlink:title="Converts a string to lowercase in&#45;place.">
<polygon fill="white" stroke="#666666" points="394.5,-93 335.5,-93 335.5,-74 394.5,-74 394.5,-93"/>
<text text-anchor="middle" x="365" y="-81" font-family="Helvetica,sans-Serif" font-size="10.00">to_lower</text>
</a>
</g>
</g>
<!-- Node7&#45;&gt;Node10 -->
<g id="edge8_Node000007_Node000010" class="edge">
<title>Node7&#45;&gt;Node10</title>
<g id="a_edge8_Node000007_Node000010"><a xlink:title=" ">
<path fill="none" stroke="#63b8ff" d="M271.75,-147.93C278.67,-145.59 285.68,-142.79 292,-139.5 312.24,-128.97 332.51,-112.55 346.36,-100.21"/>
<polygon fill="#63b8ff" stroke="#63b8ff" points="349.07,-102.47 354.09,-93.14 344.35,-97.3 349.07,-102.47"/>
</a>
</g>
</g>
<!-- Node11&#45;&gt;Node4 -->
<g id="edge13_Node000011_Node000004" class="edge">
<title>Node11&#45;&gt;Node4</title>
<g id="a_edge13_Node000011_Node000004"><a xlink:title=" ">
<path fill="none" stroke="#63b8ff" d="M132.11,-90.72C148.48,-95.63 170.58,-102.25 189.77,-108"/>
<polygon fill="#63b8ff" stroke="#63b8ff" points="188.92,-111.4 199.5,-110.91 190.93,-104.69 188.92,-111.4"/>
</a>
</g>
</g>
<!-- Node12 -->
<g id="Node000012" class="node">
<title>Node12</title>
<g id="a_Node000012"><a xlink:href="../../d0/db9/classifier_8c.html#a34d7a99c1b14f5a3da44dc698c1f3bcb" target="_top" xlink:title="Generates a classification vector from input text.">
<polygon fill="white" stroke="#666666" points="271.5,-19 193.5,-19 193.5,0 271.5,0 271.5,-19"/>
<text text-anchor="middle" x="232.5" y="-7" font-family="Helvetica,sans-Serif" font-size="10.00">classify_text</text>
</a>
</g>
</g>
<!-- Node11&#45;&gt;Node12 -->
<g id="edge10_Node000011_Node000012" class="edge">
<title>Node11&#45;&gt;Node12</title>
<g id="a_edge10_Node000011_Node000012"><a xlink:title=" ">
<path fill="none" stroke="#63b8ff" d="M117.23,-73.62C129.08,-61.45 150.79,-40.87 173,-28.5 176.88,-26.34 181.05,-24.38 185.31,-22.61"/>
<polygon fill="#63b8ff" stroke="#63b8ff" points="186.59,-25.86 194.69,-19.04 184.1,-19.32 186.59,-25.86"/>
</a>
</g>
</g>
<!-- Node14 -->
<g id="Node000014" class="node">
<title>Node14</title>
<g id="a_Node000014"><a xlink:href="../../d5/d5e/file__utils_8c.html#aa06b061afa3a76842fb0de418d69fab4" target="_top" xlink:title="Reads entire content of a file into buffer.">
<polygon fill="white" stroke="#666666" points="283,-56 182,-56 182,-37 283,-37 283,-56"/>
<text text-anchor="middle" x="232.5" y="-44" font-family="Helvetica,sans-Serif" font-size="10.00">read_file_content</text>
</a>
</g>
</g>
<!-- Node11&#45;&gt;Node14 -->
<g id="edge14_Node000011_Node000014" class="edge">
<title>Node11&#45;&gt;Node14</title>
<g id="a_edge14_Node000011_Node000014"><a xlink:title=" ">
<path fill="none" stroke="#63b8ff" d="M132.11,-76.28C148.48,-71.37 170.58,-64.75 189.77,-59"/>
<polygon fill="#63b8ff" stroke="#63b8ff" points="190.93,-62.31 199.5,-56.09 188.92,-55.6 190.93,-62.31"/>
</a>
</g>
</g>
<!-- Node15 -->
<g id="Node000015" class="node">
<title>Node15</title>
<g id="a_Node000015"><a xlink:href="../../d5/d5e/file__utils_8c.html#a9e7c1dc86cc9f5060dc30988f68aeb76" target="_top" xlink:title="Receives dictionary in a worker and builds local keyword array and hash table.">
<polygon fill="white" stroke="#666666" points="286,-93 179,-93 179,-74 286,-74 286,-93"/>
<text text-anchor="middle" x="232.5" y="-81" font-family="Helvetica,sans-Serif" font-size="10.00">receive_dictionary</text>
</a>
</g>
</g>
<!-- Node11&#45;&gt;Node15 -->
<g id="edge15_Node000011_Node000015" class="edge">
<title>Node11&#45;&gt;Node15</title>
<g id="a_edge15_Node000011_Node000015"><a xlink:title=" ">
<path fill="none" stroke="#63b8ff" d="M132.11,-83.5C142.63,-83.5 155.51,-83.5 168.47,-83.5"/>
<polygon fill="#63b8ff" stroke="#63b8ff" points="168.84,-87 178.84,-83.5 168.84,-80 168.84,-87"/>
</a>
</g>
</g>
<!-- Node12&#45;&gt;Node10 -->
<g id="edge12_Node000012_Node000010" class="edge">
<title>Node12&#45;&gt;Node10</title>
<g id="a_edge12_Node000012_Node000010"><a xlink:title=" ">
<path fill="none" stroke="#63b8ff" d="M269.55,-19.09C277.16,-21.69 285,-24.83 292,-28.5 311.84,-38.91 331.89,-54.76 345.78,-66.78"/>
<polygon fill="#63b8ff" stroke="#63b8ff" points="343.76,-69.67 353.57,-73.68 348.41,-64.43 343.76,-69.67"/>
</a>
</g>
</g>
<!-- Node13 -->
<g id="Node000013" class="node">
<title>Node13</title>
<g id="a_Node000013"><a xlink:href="../../d2/daf/hash__table_8c.html#a09866b547c82fa1cf347fe26223f9f51" target="_top" xlink:title="Finds a word in the hash table.">
<polygon fill="#fff0f0" stroke="red" points="397,-19 333,-19 333,0 397,0 397,-19"/>
<text text-anchor="middle" x="365" y="-7" font-family="Helvetica,sans-Serif" font-size="10.00">find_word</text>
</a>
</g>
</g>
<!-- Node12&#45;&gt;Node13 -->
<g id="edge11_Node000012_Node000013" class="edge">
<title>Node12&#45;&gt;Node13</title>
<g id="a_edge11_Node000012_Node000013"><a xlink:title=" ">
<path fill="none" stroke="#63b8ff" d="M271.6,-9.5C287.52,-9.5 306.07,-9.5 322.35,-9.5"/>
<polygon fill="#63b8ff" stroke="#63b8ff" points="322.67,-13 332.67,-9.5 322.67,-6 322.67,-13"/>
</a>
</g>
</g>
<!-- Node15&#45;&gt;Node8 -->
<g id="edge16_Node000015_Node000008" class="edge">
<title>Node15&#45;&gt;Node8</title>
<g id="a_edge16_Node000015_Node000008"><a xlink:title=" ">
<path fill="none" stroke="#63b8ff" d="M265.69,-93C274.33,-95.81 283.6,-99.06 292,-102.5 307.4,-108.81 324.06,-117.04 337.46,-124.04"/>
<polygon fill="#63b8ff" stroke="#63b8ff" points="336.11,-127.28 346.59,-128.87 339.39,-121.1 336.11,-127.28"/>
</a>
</g>
</g>
</g>
</svg>
