<?xml version="1.0" encoding="UTF-8" standalone="no"?>
<!DOCTYPE svg PUBLIC "-//W3C//DTD SVG 1.1//EN"
 "http://www.w3.org/Graphics/SVG/1.1/DTD/svg11.dtd">
<!-- Generated by graphviz version 2.43.0 (0)
 -->
<!-- Title: to_lower Pages: 1 -->
<svg width="368pt" height="64pt"
 viewBox="0.00 0.00 368.00 64.00" xmlns="http://www.w3.org/2000/svg" xmlns:xlink="http://www.w3.org/1999/xlink">
<g id="graph0" class="graph" transform="scale(1 1) rotate(0) translate(4 60)">
<title>to_lower</title>
<!-- Node1 -->
<g id="Node000001" class="node">
<title>Node1</title>
<g id="a_Node000001"><a xlink:title="Converts a string to lowercase in&#45;place.">
<polygon fill="#999999" stroke="#666666" points="360,-37 301,-37 301,-18 360,-18 360,-37"/>
<text text-anchor="middle" x="330.5" y="-25" font-family="Helvetica,sans-Serif" font-size="10.00">to_lower</text>
</a>
</g>
</g>
<!-- Node2 -->
<g id="Node000002" class="node">
<title>Node2</title>
<g id="a_Node000002"><a xlink:href="../../d0/db9/classifier_8c.html#a34d7a99c1b14f5a3da44dc698c1f3bcb" target="_top" xlink:title="Generates a classification vector from input text.">
<polygon fill="white" stroke="#666666" points="258,-56 180,-56 180,-37 258,-37 258,-56"/>
<text text-anchor="middle" x="219" y="-44" font-family="Helvetica,sans-Serif" font-size="10.00">classify_text</text>
</a>
</g>
</g>
<!-- Node1&#45;&gt;Node2 -->
<g id="edge1_Node000001_Node000002" class="edge">
<title>Node1&#45;&gt;Node2</title>
<g id="a_edge1_Node000001_Node000002"><a xlink:title=" ">
<path fill="none" stroke="#63b8ff" d="M290.85,-34.21C280.21,-36.05 268.67,-38.06 258.05,-39.9"/>
<polygon fill="#63b8ff" stroke="#63b8ff" points="291.48,-37.65 300.73,-32.49 290.28,-30.75 291.48,-37.65"/>
</a>
</g>
</g>
<!-- Node5 -->
<g id="Node000005" class="node">
<title>Node5</title>
<g id="a_Node000005"><a xlink:href="../../d5/d5e/file__utils_8c.html#a9cef8f76bf0bbcbbc225ed062b5d8d15" target="_top" xlink:title="Reads dictionary and builds global keyword list and hash table.">
<polygon fill="white" stroke="#666666" points="265,-19 173,-19 173,0 265,0 265,-19"/>
<text text-anchor="middle" x="219" y="-7" font-family="Helvetica,sans-Serif" font-size="10.00">read_dictionary</text>
</a>
</g>
</g>
<!-- Node1&#45;&gt;Node5 -->
<g id="edge4_Node000001_Node000005" class="edge">
<title>Node1&#45;&gt;Node5</title>
<g id="a_edge4_Node000001_Node000005"><a xlink:title=" ">
<path fill="none" stroke="#63b8ff" d="M290.61,-21.11C282.36,-19.75 273.57,-18.31 265.1,-16.91"/>
<polygon fill="#63b8ff" stroke="#63b8ff" points="290.29,-24.6 300.73,-22.77 291.43,-17.69 290.29,-24.6"/>
</a>
</g>
</g>
<!-- Node3 -->
<g id="Node000003" class="node">
<title>Node3</title>
<g id="a_Node000003"><a xlink:href="../../dc/d8e/worker_8c.html#a60b3bdb96860f3e67ef2dcc21b7b5c37" target="_top" xlink:title="Entry point for each MPI worker process.">
<polygon fill="white" stroke="#666666" points="132,-56 82,-56 82,-37 132,-37 132,-56"/>
<text text-anchor="middle" x="107" y="-44" font-family="Helvetica,sans-Serif" font-size="10.00">worker</text>
</a>
</g>
</g>
<!-- Node2&#45;&gt;Node3 -->
<g id="edge2_Node000002_Node000003" class="edge">
<title>Node2&#45;&gt;Node3</title>
<g id="a_edge2_Node000002_Node000003"><a xlink:title=" ">
<path fill="none" stroke="#63b8ff" d="M169.56,-46.5C156.55,-46.5 143.04,-46.5 132,-46.5"/>
<polygon fill="#63b8ff" stroke="#63b8ff" points="169.84,-50 179.84,-46.5 169.84,-43 169.84,-50"/>
</a>
</g>
</g>
<!-- Node4 -->
<g id="Node000004" class="node">
<title>Node4</title>
<g id="a_Node000004"><a xlink:href="../../d0/d29/main_8c.html#a0ddf1224851353fc92bfbff6f499fa97" target="_top" xlink:title=" ">
<polygon fill="white" stroke="#666666" points="41,-37 0,-37 0,-18 41,-18 41,-37"/>
<text text-anchor="middle" x="20.5" y="-25" font-family="Helvetica,sans-Serif" font-size="10.00">main</text>
</a>
</g>
</g>
<!-- Node3&#45;&gt;Node4 -->
<g id="edge3_Node000003_Node000004" class="edge">
<title>Node3&#45;&gt;Node4</title>
<g id="a_edge3_Node000003_Node000004"><a xlink:title=" ">
<path fill="none" stroke="#63b8ff" d="M71.5,-38.74C61.13,-36.41 50.11,-33.93 41.07,-31.9"/>
<polygon fill="#63b8ff" stroke="#63b8ff" points="71.03,-42.23 81.56,-41 72.57,-35.4 71.03,-42.23"/>
</a>
</g>
</g>
<!-- Node6 -->
<g id="Node000006" class="node">
<title>Node6</title>
<g id="a_Node000006"><a xlink:href="../../d4/d10/manager_8c.html#a5afb0ce7625828da3439e1e2aa87b0a9" target="_top" xlink:title="Entry point for the manager process.">
<polygon fill="white" stroke="#666666" points="137,-19 77,-19 77,0 137,0 137,-19"/>
<text text-anchor="middle" x="107" y="-7" font-family="Helvetica,sans-Serif" font-size="10.00">manager</text>
</a>
</g>
</g>
<!-- Node5&#45;&gt;Node6 -->
<g id="edge5_Node000005_Node000006" class="edge">
<title>Node5&#45;&gt;Node6</title>
<g id="a_edge5_Node000005_Node000006"><a xlink:title=" ">
<path fill="none" stroke="#63b8ff" d="M162.91,-9.5C153.99,-9.5 145.07,-9.5 137.09,-9.5"/>
<polygon fill="#63b8ff" stroke="#63b8ff" points="162.94,-13 172.94,-9.5 162.94,-6 162.94,-13"/>
</a>
</g>
</g>
<!-- Node6&#45;&gt;Node4 -->
<g id="edge6_Node000006_Node000004" class="edge">
<title>Node6&#45;&gt;Node4</title>
<g id="a_edge6_Node000006_Node000004"><a xlink:title=" ">
<path fill="none" stroke="#63b8ff" d="M66.95,-17.82C57.97,-19.73 48.8,-21.69 41.07,-23.33"/>
<polygon fill="#63b8ff" stroke="#63b8ff" points="67.87,-21.2 76.92,-15.69 66.41,-14.35 67.87,-21.2"/>
</a>
</g>
</g>
</g>
</svg>
