<?xml version="1.0" encoding="UTF-8" standalone="no"?>
<!DOCTYPE svg PUBLIC "-//W3C//DTD SVG 1.1//EN"
 "http://www.w3.org/Graphics/SVG/1.1/DTD/svg11.dtd">
<!-- Generated by graphviz version 2.43.0 (0)
 -->
<!-- Title: hash_func Pages: 1 -->
<svg width="423pt" height="101pt"
 viewBox="0.00 0.00 423.00 101.00" xmlns="http://www.w3.org/2000/svg" xmlns:xlink="http://www.w3.org/1999/xlink">
<g id="graph0" class="graph" transform="scale(1 1) rotate(0) translate(4 97)">
<title>hash_func</title>
<!-- Node1 -->
<g id="Node000001" class="node">
<title>Node1</title>
<g id="a_Node000001"><a xlink:title="Hash function for a word.">
<polygon fill="#999999" stroke="#666666" points="415,-74 349,-74 349,-55 415,-55 415,-74"/>
<text text-anchor="middle" x="382" y="-62" font-family="Helvetica,sans-Serif" font-size="10.00">hash_func</text>
</a>
</g>
</g>
<!-- Node2 -->
<g id="Node000002" class="node">
<title>Node2</title>
<g id="a_Node000002"><a xlink:href="../../d2/daf/hash__table_8c.html#a09866b547c82fa1cf347fe26223f9f51" target="_top" xlink:title="Finds a word in the hash table.">
<polygon fill="white" stroke="#666666" points="308,-93 244,-93 244,-74 308,-74 308,-93"/>
<text text-anchor="middle" x="276" y="-81" font-family="Helvetica,sans-Serif" font-size="10.00">find_word</text>
</a>
</g>
</g>
<!-- Node1&#45;&gt;Node2 -->
<g id="edge1_Node000001_Node000002" class="edge">
<title>Node1&#45;&gt;Node2</title>
<g id="a_edge1_Node000001_Node000002"><a xlink:title=" ">
<path fill="none" stroke="#63b8ff" d="M338.88,-72.19C328.58,-74.08 317.74,-76.06 308.05,-77.83"/>
<polygon fill="#63b8ff" stroke="#63b8ff" points="339.74,-75.6 348.95,-70.36 338.48,-68.71 339.74,-75.6"/>
</a>
</g>
</g>
<!-- Node6 -->
<g id="Node000006" class="node">
<title>Node6</title>
<g id="a_Node000006"><a xlink:href="../../d2/daf/hash__table_8c.html#a02829007f61a93c496676c28e3a4cc60" target="_top" xlink:title="Inserts a keyword into the hash table.">
<polygon fill="white" stroke="#666666" points="313,-56 239,-56 239,-37 313,-37 313,-56"/>
<text text-anchor="middle" x="276" y="-44" font-family="Helvetica,sans-Serif" font-size="10.00">insert_word</text>
</a>
</g>
</g>
<!-- Node1&#45;&gt;Node6 -->
<g id="edge4_Node000001_Node000006" class="edge">
<title>Node1&#45;&gt;Node6</title>
<g id="a_edge4_Node000001_Node000006"><a xlink:title=" ">
<path fill="none" stroke="#63b8ff" d="M339.09,-57.25C330.48,-55.76 321.5,-54.2 313.12,-52.75"/>
<polygon fill="#63b8ff" stroke="#63b8ff" points="338.5,-60.7 348.95,-58.95 339.69,-53.8 338.5,-60.7"/>
</a>
</g>
</g>
<!-- Node3 -->
<g id="Node000003" class="node">
<title>Node3</title>
<g id="a_Node000003"><a xlink:href="../../d0/db9/classifier_8c.html#a34d7a99c1b14f5a3da44dc698c1f3bcb" target="_top" xlink:title="Generates a classification vector from input text.">
<polygon fill="white" stroke="#666666" points="188.5,-93 110.5,-93 110.5,-74 188.5,-74 188.5,-93"/>
<text text-anchor="middle" x="149.5" y="-81" font-family="Helvetica,sans-Serif" font-size="10.00">classify_text</text>
</a>
</g>
</g>
<!-- Node2&#45;&gt;Node3 -->
<g id="edge2_Node000002_Node000003" class="edge">
<title>Node2&#45;&gt;Node3</title>
<g id="a_edge2_Node000002_Node000003"><a xlink:title=" ">
<path fill="none" stroke="#63b8ff" d="M233.7,-83.5C219.21,-83.5 203,-83.5 188.76,-83.5"/>
<polygon fill="#63b8ff" stroke="#63b8ff" points="233.9,-87 243.9,-83.5 233.9,-80 233.9,-87"/>
</a>
</g>
</g>
<!-- Node4 -->
<g id="Node000004" class="node">
<title>Node4</title>
<g id="a_Node000004"><a xlink:href="../../dc/d8e/worker_8c.html#a60b3bdb96860f3e67ef2dcc21b7b5c37" target="_top" xlink:title="Entry point for each MPI worker process.">
<polygon fill="#fff0f0" stroke="red" points="55,-74 5,-74 5,-55 55,-55 55,-74"/>
<text text-anchor="middle" x="30" y="-62" font-family="Helvetica,sans-Serif" font-size="10.00">worker</text>
</a>
</g>
</g>
<!-- Node3&#45;&gt;Node4 -->
<g id="edge3_Node000003_Node000004" class="edge">
<title>Node3&#45;&gt;Node4</title>
<g id="a_edge3_Node000003_Node000004"><a xlink:title=" ">
<path fill="none" stroke="#63b8ff" d="M100.36,-75.72C84.85,-73.21 68.33,-70.54 55.3,-68.43"/>
<polygon fill="#63b8ff" stroke="#63b8ff" points="99.92,-79.19 110.35,-77.33 101.04,-72.28 99.92,-79.19"/>
</a>
</g>
</g>
<!-- Node7 -->
<g id="Node000007" class="node">
<title>Node7</title>
<g id="a_Node000007"><a xlink:href="../../d5/d5e/file__utils_8c.html#a9cef8f76bf0bbcbbc225ed062b5d8d15" target="_top" xlink:title="Reads dictionary and builds global keyword list and hash table.">
<polygon fill="white" stroke="#666666" points="195.5,-19 103.5,-19 103.5,0 195.5,0 195.5,-19"/>
<text text-anchor="middle" x="149.5" y="-7" font-family="Helvetica,sans-Serif" font-size="10.00">read_dictionary</text>
</a>
</g>
</g>
<!-- Node6&#45;&gt;Node7 -->
<g id="edge5_Node000006_Node000007" class="edge">
<title>Node6&#45;&gt;Node7</title>
<g id="a_edge5_Node000006_Node000007"><a xlink:title=" ">
<path fill="none" stroke="#63b8ff" d="M233.06,-34.04C216.69,-29.17 198.2,-23.68 182.89,-19.12"/>
<polygon fill="#63b8ff" stroke="#63b8ff" points="232.36,-37.48 242.94,-36.97 234.35,-30.77 232.36,-37.48"/>
</a>
</g>
</g>
<!-- Node9 -->
<g id="Node000009" class="node">
<title>Node9</title>
<g id="a_Node000009"><a xlink:href="../../d5/d5e/file__utils_8c.html#a9e7c1dc86cc9f5060dc30988f68aeb76" target="_top" xlink:title="Receives dictionary in a worker and builds local keyword array and hash table.">
<polygon fill="white" stroke="#666666" points="203,-56 96,-56 96,-37 203,-37 203,-56"/>
<text text-anchor="middle" x="149.5" y="-44" font-family="Helvetica,sans-Serif" font-size="10.00">receive_dictionary</text>
</a>
</g>
</g>
<!-- Node6&#45;&gt;Node9 -->
<g id="edge7_Node000006_Node000009" class="edge">
<title>Node6&#45;&gt;Node9</title>
<g id="a_edge7_Node000006_Node000009"><a xlink:title=" ">
<path fill="none" stroke="#63b8ff" d="M228.97,-46.5C220.55,-46.5 211.7,-46.5 203.1,-46.5"/>
<polygon fill="#63b8ff" stroke="#63b8ff" points="228.99,-50 238.99,-46.5 228.99,-43 228.99,-50"/>
</a>
</g>
</g>
<!-- Node8 -->
<g id="Node000008" class="node">
<title>Node8</title>
<g id="a_Node000008"><a xlink:href="../../d4/d10/manager_8c.html#a5afb0ce7625828da3439e1e2aa87b0a9" target="_top" xlink:title="Entry point for the manager process.">
<polygon fill="#fff0f0" stroke="red" points="60,-19 0,-19 0,0 60,0 60,-19"/>
<text text-anchor="middle" x="30" y="-7" font-family="Helvetica,sans-Serif" font-size="10.00">manager</text>
</a>
</g>
</g>
<!-- Node7&#45;&gt;Node8 -->
<g id="edge6_Node000007_Node000008" class="edge">
<title>Node7&#45;&gt;Node8</title>
<g id="a_edge6_Node000007_Node000008"><a xlink:title=" ">
<path fill="none" stroke="#63b8ff" d="M93.07,-9.5C81.71,-9.5 70.18,-9.5 60.2,-9.5"/>
<polygon fill="#63b8ff" stroke="#63b8ff" points="93.41,-13 103.41,-9.5 93.41,-6 93.41,-13"/>
</a>
</g>
</g>
<!-- Node9&#45;&gt;Node4 -->
<g id="edge8_Node000009_Node000004" class="edge">
<title>Node9&#45;&gt;Node4</title>
<g id="a_edge8_Node000009_Node000004"><a xlink:title=" ">
<path fill="none" stroke="#63b8ff" d="M85.93,-56.08C75.04,-57.75 64.33,-59.39 55.3,-60.78"/>
<polygon fill="#63b8ff" stroke="#63b8ff" points="86.58,-59.53 95.94,-54.55 85.52,-52.61 86.58,-59.53"/>
</a>
</g>
</g>
</g>
</svg>
