<?xml version="1.0" encoding="UTF-8" standalone="no"?>
<!DOCTYPE svg PUBLIC "-//W3C//DTD SVG 1.1//EN"
 "http://www.w3.org/Graphics/SVG/1.1/DTD/svg11.dtd">
<!-- Generated by graphviz version 2.43.0 (0)
 -->
<!-- Title: classifier.c Pages: 1 -->
<svg width="346pt" height="82pt"
 viewBox="0.00 0.00 346.00 82.00" xmlns="http://www.w3.org/2000/svg" xmlns:xlink="http://www.w3.org/1999/xlink">
<g id="graph0" class="graph" transform="scale(1 1) rotate(0) translate(4 78)">
<title>classifier.c</title>
<!-- Node1 -->
<g id="Node000001" class="node">
<title>Node1</title>
<g id="a_Node000001"><a xlink:title="Implements document classification using tokenization and a hash table.">
<polygon fill="#999999" stroke="#666666" points="185.5,-74 117.5,-74 117.5,-55 185.5,-55 185.5,-74"/>
<text text-anchor="middle" x="151.5" y="-62" font-family="Helvetica,sans-Serif" font-size="10.00">classifier.c</text>
</a>
</g>
</g>
<!-- Node2 -->
<g id="Node000002" class="node">
<title>Node2</title>
<g id="a_Node000002"><a xlink:title=" ">
<polygon fill="#e0e0e0" stroke="#999999" points="53,-19 0,-19 0,0 53,0 53,-19"/>
<text text-anchor="middle" x="26.5" y="-7" font-family="Helvetica,sans-Serif" font-size="10.00">string.h</text>
</a>
</g>
</g>
<!-- Node1&#45;&gt;Node2 -->
<g id="edge1_Node000001_Node000002" class="edge">
<title>Node1&#45;&gt;Node2</title>
<g id="a_edge1_Node000001_Node000002"><a xlink:title=" ">
<path fill="none" stroke="#63b8ff" d="M131.42,-54.98C111.13,-46.38 79.54,-32.99 56.33,-23.15"/>
<polygon fill="#63b8ff" stroke="#63b8ff" points="57.52,-19.85 46.95,-19.17 54.79,-26.3 57.52,-19.85"/>
</a>
</g>
</g>
<!-- Node3 -->
<g id="Node000003" class="node">
<title>Node3</title>
<g id="a_Node000003"><a xlink:href="../../d9/d85/classifier_8h.html" target="_top" xlink:title="Tokenization and text classification logic.">
<polygon fill="white" stroke="#666666" points="139.5,-19 71.5,-19 71.5,0 139.5,0 139.5,-19"/>
<text text-anchor="middle" x="105.5" y="-7" font-family="Helvetica,sans-Serif" font-size="10.00">classifier.h</text>
</a>
</g>
</g>
<!-- Node1&#45;&gt;Node3 -->
<g id="edge2_Node000001_Node000003" class="edge">
<title>Node1&#45;&gt;Node3</title>
<g id="a_edge2_Node000001_Node000003"><a xlink:title=" ">
<path fill="none" stroke="#63b8ff" d="M143.9,-54.75C137.34,-47.18 127.68,-36.05 119.69,-26.84"/>
<polygon fill="#63b8ff" stroke="#63b8ff" points="122.15,-24.35 112.95,-19.09 116.87,-28.94 122.15,-24.35"/>
</a>
</g>
</g>
<!-- Node4 -->
<g id="Node000004" class="node">
<title>Node4</title>
<g id="a_Node000004"><a xlink:href="../../d4/ddb/hash__table_8h.html" target="_top" xlink:title="Simple fixed&#45;size chained hash table for word lookup.">
<polygon fill="white" stroke="#666666" points="237,-19 158,-19 158,0 237,0 237,-19"/>
<text text-anchor="middle" x="197.5" y="-7" font-family="Helvetica,sans-Serif" font-size="10.00">hash_table.h</text>
</a>
</g>
</g>
<!-- Node1&#45;&gt;Node4 -->
<g id="edge3_Node000001_Node000004" class="edge">
<title>Node1&#45;&gt;Node4</title>
<g id="a_edge3_Node000001_Node000004"><a xlink:title=" ">
<path fill="none" stroke="#63b8ff" d="M159.1,-54.75C165.66,-47.18 175.32,-36.05 183.31,-26.84"/>
<polygon fill="#63b8ff" stroke="#63b8ff" points="186.13,-28.94 190.05,-19.09 180.85,-24.35 186.13,-28.94"/>
</a>
</g>
</g>
<!-- Node5 -->
<g id="Node000005" class="node">
<title>Node5</title>
<g id="a_Node000005"><a xlink:href="../../d2/d81/msg__consts_8h.html" target="_top" xlink:title="Constants for MPI messaging and buffer sizes.">
<polygon fill="white" stroke="#666666" points="338,-19 255,-19 255,0 338,0 338,-19"/>
<text text-anchor="middle" x="296.5" y="-7" font-family="Helvetica,sans-Serif" font-size="10.00">msg_consts.h</text>
</a>
</g>
</g>
<!-- Node1&#45;&gt;Node5 -->
<g id="edge4_Node000001_Node000005" class="edge">
<title>Node1&#45;&gt;Node5</title>
<g id="a_edge4_Node000001_Node000005"><a xlink:title=" ">
<path fill="none" stroke="#63b8ff" d="M174.8,-54.98C198.75,-46.23 236.28,-32.51 263.33,-22.62"/>
<polygon fill="#63b8ff" stroke="#63b8ff" points="264.59,-25.89 272.78,-19.17 262.19,-19.32 264.59,-25.89"/>
</a>
</g>
</g>
</g>
</svg>
