<?xml version="1.0" encoding="UTF-8" standalone="no"?>
<!DOCTYPE svg PUBLIC "-//W3C//DTD SVG 1.1//EN"
 "http://www.w3.org/Graphics/SVG/1.1/DTD/svg11.dtd">
<!-- Generated by graphviz version 2.43.0 (0)
 -->
<!-- Title: classifier.h Pages: 1 -->
<svg width="152pt" height="82pt"
 viewBox="0.00 0.00 151.50 82.00" xmlns="http://www.w3.org/2000/svg" xmlns:xlink="http://www.w3.org/1999/xlink">
<g id="graph0" class="graph" transform="scale(1 1) rotate(0) translate(4 78)">
<title>classifier.h</title>
<!-- Node1 -->
<g id="Node000001" class="node">
<title>Node1</title>
<g id="a_Node000001"><a xlink:title="Tokenization and text classification logic.">
<polygon fill="#999999" stroke="#666666" points="108,-74 40,-74 40,-55 108,-55 108,-74"/>
<text text-anchor="middle" x="74" y="-62" font-family="Helvetica,sans-Serif" font-size="10.00">classifier.h</text>
</a>
</g>
</g>
<!-- Node2 -->
<g id="Node000002" class="node">
<title>Node2</title>
<g id="a_Node000002"><a xlink:href="../../d0/db9/classifier_8c.html" target="_top" xlink:title="Implements document classification using tokenization and a hash table.">
<polygon fill="white" stroke="#666666" points="68,-19 0,-19 0,0 68,0 68,-19"/>
<text text-anchor="middle" x="34" y="-7" font-family="Helvetica,sans-Serif" font-size="10.00">classifier.c</text>
</a>
</g>
</g>
<!-- Node1&#45;&gt;Node2 -->
<g id="edge1_Node000001_Node000002" class="edge">
<title>Node1&#45;&gt;Node2</title>
<g id="a_edge1_Node000001_Node000002"><a xlink:title=" ">
<path fill="none" stroke="#63b8ff" d="M61.3,-46.67C54.37,-37.5 46.09,-26.52 40.48,-19.09"/>
<polygon fill="#63b8ff" stroke="#63b8ff" points="58.58,-48.87 67.39,-54.75 64.16,-44.66 58.58,-48.87"/>
</a>
</g>
</g>
<!-- Node3 -->
<g id="Node000003" class="node">
<title>Node3</title>
<g id="a_Node000003"><a xlink:href="../../dc/d8e/worker_8c.html" target="_top" xlink:title="Logic for a worker process participating in distributed document classification.">
<polygon fill="white" stroke="#666666" points="143.5,-19 86.5,-19 86.5,0 143.5,0 143.5,-19"/>
<text text-anchor="middle" x="115" y="-7" font-family="Helvetica,sans-Serif" font-size="10.00">worker.c</text>
</a>
</g>
</g>
<!-- Node1&#45;&gt;Node3 -->
<g id="edge2_Node000001_Node000003" class="edge">
<title>Node1&#45;&gt;Node3</title>
<g id="a_edge2_Node000001_Node000003"><a xlink:title=" ">
<path fill="none" stroke="#63b8ff" d="M87.02,-46.67C94.12,-37.5 102.6,-26.52 108.36,-19.09"/>
<polygon fill="#63b8ff" stroke="#63b8ff" points="84.12,-44.7 80.77,-54.75 89.66,-48.98 84.12,-44.7"/>
</a>
</g>
</g>
</g>
</svg>
